<svg width="760" height="880" viewBox="0 0 760 880" fill="none" xmlns="http://www.w3.org/2000/svg">
<path d="M380 840C567.78 840 720 687.78 720 500C720 312.22 567.78 160 380 160C192.22 160 40 312.22 40 500C40 687.78 192.22 840 380 840Z" stroke="#535D69" stroke-width="80"/>
<path d="M280 40H480M40.0003 500H120M40.0003 500C39.9442 455.395 48.6913 411.218 65.7403 370M40.0003 500C40.0003 546.04 49.1603 589.96 65.7403 630M640 500H720M720 500C720.057 455.395 711.31 411.218 694.26 370M720 500C720 546.04 710.84 589.96 694.26 630M380 160V240M380 160C331.783 159.935 284.108 170.163 240.16 190M380 160C429.84 160 477.2 170.72 519.84 190M380 760V840M380 840C335.395 840.057 291.218 831.31 250 814.26M380 840C426.04 840 469.96 830.84 510 814.26" stroke="#535D69" stroke-width="80" stroke-linecap="round" stroke-linejoin="round"/>
<path d="M345 373L365 513L465.5 615.5" stroke="#535D69" stroke-width="80" stroke-linecap="round" stroke-linejoin="round"/>
</svg>
