<svg width="840" height="880" viewBox="0 0 840 880" fill="none" xmlns="http://www.w3.org/2000/svg">
<path d="M400 839.996C452.539 840.064 504.573 829.749 553.112 809.643C601.652 789.536 645.739 760.036 682.84 722.836C720.04 685.735 749.54 641.648 769.647 593.109C789.753 544.569 800.068 492.535 800 439.996C800.067 387.458 789.751 335.424 769.645 286.885C749.539 238.346 720.039 194.259 682.84 157.156C645.739 119.957 601.652 90.4564 553.112 70.3501C504.573 50.2439 452.539 39.9284 400 39.9964C347.462 39.9295 295.428 50.2455 246.889 70.3517C198.35 90.4579 154.262 119.958 117.16 157.156C79.9618 194.259 50.4618 238.346 30.3556 286.885C10.2494 335.424 -0.066643 387.458 0.000334731 439.996C-0.0677387 492.535 10.2478 544.569 30.354 593.109C50.4603 641.648 79.9609 685.735 117.16 722.836C154.262 760.035 198.35 789.535 246.889 809.641C295.428 829.747 347.462 840.063 400 839.996Z" stroke="#535D69" stroke-width="80" stroke-linejoin="round"/>
<path fill-rule="evenodd" clip-rule="evenodd" d="M400 700C413.261 700 425.979 694.732 435.355 685.355C444.732 675.979 450 663.261 450 650C450 636.739 444.732 624.021 435.355 614.645C425.979 605.268 413.261 600 400 600C386.739 600 374.021 605.268 364.645 614.645C355.268 624.021 350 636.739 350 650C350 663.261 355.268 675.979 364.645 685.355C374.021 694.732 386.739 700 400 700Z" fill="#535D69"/>
<path d="M400 199.996V519.996" stroke="#535D69" stroke-width="80" stroke-linecap="round" stroke-linejoin="round"/>
</svg>
