<svg width="138" height="138" viewBox="0 0 138 138" fill="none" xmlns="http://www.w3.org/2000/svg">
<g clip-path="url(#clip0_791_375)">
<path d="M68.1297 109.77C45.4648 109.77 35.1095 98.2239 35.1095 89.7555C35.1064 87.7353 35.9355 85.8029 37.4018 84.4132C38.868 83.0234 40.8419 82.2989 42.8591 82.4101C52.563 82.4101 50.0247 96.966 68.1297 96.966C77.3844 96.966 82.8204 91.3952 82.8204 86.1614C82.8204 83.0166 81.0233 79.4226 74.9135 77.985L54.697 72.8859C38.4564 68.7528 35.6261 59.7227 35.6261 51.3441C35.6261 33.958 51.5297 27.6684 66.6696 27.6684C80.619 27.6684 97.1965 35.3731 97.1965 45.7958C97.1965 50.2884 93.4453 52.6919 89.0875 52.6919C80.7987 52.6919 82.1914 41.0562 65.524 41.0562C57.2353 41.0562 52.8775 44.9422 52.8775 50.3782C52.8775 55.8142 59.3243 57.6562 64.9849 58.8916L79.9002 62.261C96.2531 65.9449 100.611 75.5365 100.611 84.7238C100.611 98.8529 89.6715 109.77 68.1073 109.77M130.711 79.8718C131.358 76.1632 131.682 72.4052 131.677 68.6405C131.756 49.7293 123.447 31.7563 108.989 19.5662C94.5305 7.37608 75.4118 2.22359 56.786 5.49763C51.0611 2.20152 44.5682 0.473672 37.9622 0.488436C24.4028 0.571268 11.9042 7.83842 5.12457 19.5815C-1.6551 31.3247 -1.69896 45.7823 5.00934 57.5663C1.26616 78.134 7.8231 99.2318 22.5652 114.054C37.3072 128.877 58.369 135.549 78.9568 131.918C84.6746 135.211 91.1596 136.939 97.7581 136.927C111.311 136.84 123.802 129.576 130.58 117.84C137.358 106.104 137.408 91.6544 130.711 79.8718Z" fill="black"/>
</g>
<defs>
<clipPath id="clip0_791_375">
<rect width="137.023" height="137.023" fill="white" transform="translate(0.0229492 0.488525)"/>
</clipPath>
</defs>
</svg>
