<svg width="138" height="138" viewBox="0 0 138 138" fill="none" xmlns="http://www.w3.org/2000/svg">
<g clip-path="url(#clip0_791_372)">
<path fill-rule="evenodd" clip-rule="evenodd" d="M138 69C138 107.108 107.108 138 69 138C30.8924 138 0 107.108 0 69C0 30.8924 30.8924 0 69 0C107.108 0 138 30.8924 138 69ZM71.4726 50.9388C64.7614 53.7303 51.3483 59.5079 31.2334 68.2716C27.967 69.5705 26.256 70.8413 26.1002 72.0838C25.837 74.1836 28.4666 75.0105 32.0475 76.1365C32.5346 76.2897 33.0392 76.4483 33.5566 76.6165C37.0797 77.7617 41.8187 79.1015 44.2824 79.1547C46.5172 79.203 49.0114 78.2817 51.7652 76.3907C70.5592 63.7043 80.2607 57.2919 80.8698 57.1537C81.2995 57.0562 81.8949 56.9335 82.2984 57.2921C82.7018 57.6507 82.6622 58.3298 82.6194 58.512C82.3589 59.6226 72.0367 69.2191 66.6949 74.1853C65.0296 75.7335 63.8484 76.8316 63.6069 77.0825C63.066 77.6443 62.5147 78.1757 61.9849 78.6865C58.7119 81.8417 56.2575 84.2078 62.1208 88.0716C64.9384 89.9284 67.1931 91.4638 69.4424 92.9956C71.8989 94.6685 74.3491 96.3371 77.5193 98.4151C78.3269 98.9446 79.0983 99.4945 79.8496 100.03C82.7084 102.068 85.2768 103.899 88.4499 103.607C90.2936 103.438 92.1981 101.704 93.1654 96.5331C95.4512 84.3131 99.9443 57.8361 100.983 46.9256C101.074 45.9697 100.959 44.7463 100.867 44.2093C100.775 43.6723 100.583 42.9071 99.8853 42.3407C99.0586 41.6699 97.7824 41.5284 97.2116 41.5385C94.6164 41.5842 90.6347 42.9687 71.4726 50.9388Z" fill="#EBEBEB"/>
</g>
<defs>
<clipPath id="clip0_791_372">
<rect width="138" height="138" fill="white"/>
</clipPath>
</defs>
</svg>
