<svg width="138" height="138" viewBox="0 0 138 138" fill="none" xmlns="http://www.w3.org/2000/svg">
<path d="M83.1149 58.989C82.6855 58.989 82.2725 58.824 81.9614 58.528C81.6503 58.2321 81.4649 57.8279 81.4434 57.399C81.1592 51.713 78.4802 48.9285 73.0127 48.6344C72.5771 48.5998 72.1722 48.3963 71.8845 48.0674C71.5968 47.7385 71.449 47.3102 71.4725 46.8738C71.4961 46.4374 71.6893 46.0276 72.0108 45.7316C72.3323 45.4356 72.7567 45.277 73.1936 45.2895C80.408 45.687 84.4186 49.807 84.7883 57.2321C84.7993 57.4518 84.7669 57.6716 84.6929 57.8788C84.6189 58.0861 84.5049 58.2767 84.3572 58.4399C84.2096 58.603 84.0312 58.7355 83.8324 58.8297C83.6336 58.9239 83.4181 58.978 83.1983 58.989H83.1149Z" fill="#EBEBEB"/>
<path d="M91.6725 61.8708H91.7123C92.1507 61.8699 92.5713 61.6973 92.884 61.3901C93.1968 61.0829 93.3769 60.6655 93.3857 60.2272C93.5328 53.6865 91.5314 48.1177 87.5068 43.7155C83.4822 39.3133 77.822 36.8151 70.6811 36.2924C70.2373 36.26 69.7988 36.4052 69.462 36.6961C69.1253 36.987 68.9179 37.3998 68.8855 37.8436C68.853 38.2874 68.9983 38.7259 69.2892 39.0627C69.5801 39.3994 69.9928 39.6068 70.4367 39.6393C76.7826 40.1043 81.5425 42.1713 85.0364 45.9832C88.5304 49.7951 90.166 54.4318 90.0368 60.1576C90.0267 60.6017 90.1933 61.0316 90.5 61.3528C90.8067 61.6741 91.2285 61.8604 91.6725 61.8708Z" fill="#EBEBEB"/>
<path d="M100.511 65.3091C100.069 65.3085 99.6445 65.1335 99.3308 64.822C99.017 64.5105 98.839 64.0877 98.8353 63.6456C98.7578 53.4043 95.8084 45.5817 89.8183 39.7346C83.8997 33.971 76.4229 31.0137 67.5927 30.9501C67.3727 30.9493 67.1549 30.9052 66.952 30.8203C66.749 30.7354 66.5647 30.6113 66.4097 30.4552C66.0966 30.1398 65.9216 29.7131 65.9232 29.2687C65.9248 28.8244 66.1028 28.3989 66.4182 28.0858C66.7335 27.7727 67.1602 27.5977 67.6046 27.5993H67.6185C77.3411 27.6708 85.5969 30.9461 92.1575 37.3377C98.718 43.7294 102.101 52.5894 102.188 63.6257C102.191 64.0697 102.018 64.4968 101.707 64.8132C101.395 65.1296 100.971 65.3093 100.527 65.313L100.511 65.3091Z" fill="#EBEBEB"/>
<path d="M77.0571 78.3904C75.7891 79.9526 73.434 79.7538 73.434 79.7538C56.2207 75.3596 51.6138 57.9237 51.6138 57.9237C51.6138 57.9237 51.4071 55.5686 52.9772 54.3006L56.0875 51.8282C57.6298 50.6397 58.6136 47.756 57.0435 44.9397C55.8392 42.8258 54.5298 40.7735 53.1203 38.7906C51.7509 36.9204 48.5611 33.0906 48.5491 33.0787C47.0109 31.2641 44.7491 30.8428 42.3642 32.0849C42.357 32.0849 42.3471 32.0882 42.3376 32.0913C42.3288 32.0941 42.3203 32.0969 42.3145 32.0969C39.9425 33.4636 37.8036 35.1999 35.9786 37.2404C35.9723 37.2528 35.9661 37.2588 35.9599 37.2647C35.9542 37.2702 35.9485 37.2756 35.9428 37.2861C34.4694 39.0642 33.6261 40.8072 33.4128 42.5151C33.3685 42.7669 33.3531 43.0229 33.3671 43.2782C33.3591 44.0324 33.4739 44.7829 33.7069 45.5002L33.7884 45.5559C34.5317 48.1952 36.3919 52.5914 40.4344 59.9211C42.7466 64.1606 45.4133 68.1969 48.4061 71.9869C49.9054 73.8867 51.5126 75.6989 53.2196 77.4146C53.2402 77.4352 53.2605 77.4557 53.2808 77.4762C53.3213 77.5171 53.3614 77.5577 53.4025 77.5974L53.951 78.146C55.6667 79.853 57.4789 81.4602 59.3787 82.9596C63.1691 85.9527 67.2061 88.6195 71.4465 90.9312C78.7742 94.9737 83.1744 96.8339 85.8098 97.5772L85.8654 97.6587C86.5826 97.8924 87.3331 98.0078 88.0874 98.0005C88.3428 98.0129 88.5987 97.9969 88.8506 97.9529C90.5611 97.7501 92.3028 96.9081 94.0756 95.4268C94.086 95.4211 94.0915 95.4154 94.0969 95.4097C94.1029 95.4035 94.1088 95.3972 94.1213 95.391C96.1618 93.5655 97.8987 91.4267 99.2668 89.0551C99.2668 89.0493 99.2691 89.0408 99.2714 89.032C99.274 89.0225 99.2767 89.0126 99.2767 89.0054C100.519 86.6204 100.098 84.3587 98.273 82.8185C98.2707 82.8185 98.1219 82.6958 97.87 82.4883C96.836 81.6364 94.065 79.3533 92.5611 78.2473C90.5801 76.8379 88.5298 75.5286 86.4179 74.3241C83.5997 72.754 80.7219 73.7378 79.5294 75.2801L77.0571 78.3904Z" fill="#EBEBEB"/>
<path fill-rule="evenodd" clip-rule="evenodd" d="M117.136 16.8153C113.845 13.7785 100.545 4.12345 70.9198 3.99228C70.9198 3.99228 35.9845 1.88559 18.954 17.5069C9.47393 26.989 6.139 40.8634 5.78722 58.0647C5.43545 75.266 4.98032 107.502 36.054 116.243H36.0838L36.064 129.581C36.064 129.581 35.8652 134.981 39.4208 136.082C43.0101 137.196 45.3619 134.522 48.4285 131.036C49.0364 130.344 49.6724 129.621 50.3517 128.889C52.6055 126.461 55.7178 122.893 58.063 120.166C79.3148 121.955 95.6595 117.867 97.5158 117.263C97.8989 117.139 98.4414 117.001 99.1145 116.829C105.98 115.084 126.44 109.881 130.036 80.5268C134.113 47.3027 128.065 26.2874 117.136 16.8153ZM120.737 78.1439C117.736 102.377 101.471 106.162 95.6102 107.526C94.9624 107.677 94.4409 107.798 94.0795 107.914C92.5352 108.411 78.1799 111.982 60.128 110.804C60.128 110.804 46.6769 127.031 42.4755 131.25C41.8196 131.91 41.0485 132.177 40.5337 132.045C39.8103 131.868 39.6116 131.012 39.6195 129.76C39.6314 127.971 39.7348 107.596 39.7348 107.596C14.3174 100.539 14.9103 74.6525 15.2467 59.9599C15.2582 59.4578 15.2694 58.9688 15.2793 58.494C15.5774 44.1267 18.2763 32.3571 26.2937 24.4411C40.6987 11.3935 70.3732 13.3432 70.3732 13.3432C95.4329 13.4525 107.441 20.9988 110.225 23.5269C119.471 31.4429 124.181 50.3852 120.737 78.1359V78.1439Z" fill="#EBEBEB"/>
</svg>
