<svg width="138" height="138" viewBox="0 0 138 138" fill="none" xmlns="http://www.w3.org/2000/svg">
<g clip-path="url(#clip0_791_373)">
<path fill-rule="evenodd" clip-rule="evenodd" d="M9.70063 9.70063C0 19.4013 0 35.0142 0 66.24V71.76C0 102.986 0 118.599 9.70063 128.299C19.4013 138 35.0142 138 66.24 138H71.76C102.986 138 118.599 138 128.299 128.299C138 118.599 138 102.986 138 71.76V66.24C138 35.0142 138 19.4013 128.299 9.70063C118.599 0 102.986 0 71.76 0H66.24C35.0142 0 19.4013 0 9.70063 9.70063ZM23.2878 41.9753C24.0353 77.8553 41.9752 99.4178 73.4277 99.4178H75.2106V78.8901C86.7681 80.0402 95.5073 88.4927 99.0149 99.4178H115.345C110.86 83.0877 99.0723 74.0601 91.7123 70.6101C99.0723 66.3552 109.422 56.0053 111.895 41.9753H97.0594C93.8393 53.3603 84.2955 63.7101 75.2106 64.6876V41.9753H60.375V81.7652C51.1751 79.4652 39.5603 68.3102 39.0428 41.9753H23.2878Z" fill="black"/>
</g>
<defs>
<clipPath id="clip0_791_373">
<rect width="138" height="138" fill="white"/>
</clipPath>
</defs>
</svg>
