<svg width="138" height="138" viewBox="0 0 138 138" fill="none" xmlns="http://www.w3.org/2000/svg">
<path d="M0 138L9.70025 102.563C3.7145 92.1897 0.56925 80.431 0.575 68.3732C0.59225 30.6762 31.2685 0 68.9598 0C87.2505 0.00575 104.42 7.13 117.335 20.056C130.243 32.982 137.35 50.163 137.345 68.4365C137.327 106.139 106.651 136.815 68.9598 136.815C57.5173 136.81 46.2415 133.94 36.2538 128.489L0 138ZM37.9328 116.11C47.5698 121.831 56.7698 125.258 68.9368 125.264C100.263 125.264 125.781 99.7682 125.799 68.425C125.81 37.0185 100.412 11.5575 68.9828 11.546C37.6338 11.546 12.1325 37.0415 12.121 68.379C12.1153 81.1727 15.8643 90.7522 22.1605 100.774L16.4163 121.75L37.9328 116.11ZM103.408 84.6917C102.983 83.9787 101.844 83.5532 100.131 82.6965C98.4228 81.8397 90.022 77.7055 88.4523 77.1362C86.8883 76.567 85.7498 76.2795 84.6055 77.993C83.467 79.7007 80.1895 83.5532 79.1948 84.6917C78.2 85.8302 77.1995 85.974 75.4918 85.1172C73.784 84.2605 68.2755 82.4607 61.7493 76.636C56.672 72.105 53.2393 66.5102 52.2445 64.7967C51.2498 63.089 52.141 62.1632 52.992 61.3122C53.7625 60.5475 54.6998 59.317 55.5565 58.3165C56.4248 57.3275 56.7065 56.6145 57.2815 55.4702C57.8508 54.3317 57.569 53.3312 57.1378 52.4745C56.7065 51.6235 53.291 43.2112 51.8708 39.79C50.4793 36.4607 49.0705 36.9092 48.024 36.8575L44.7465 36.8C43.608 36.8 41.7565 37.2255 40.1925 38.939C38.6285 40.6525 34.2125 44.781 34.2125 53.1932C34.2125 61.6055 40.3363 69.7302 41.1873 70.8687C42.044 72.0072 53.2335 89.2687 70.3743 96.669C74.451 98.4285 77.6365 99.4807 80.1148 100.268C84.2088 101.568 87.9348 101.384 90.8788 100.947C94.162 100.458 100.987 96.8127 102.413 92.8222C103.839 88.826 103.839 85.4047 103.408 84.6917Z" fill="black"/>
</svg>
