<svg width="152" height="152" viewBox="0 0 152 152" fill="none" xmlns="http://www.w3.org/2000/svg">
<path d="M89.5938 7.75006C103.607 9.22659 116.696 15.4418 126.697 25.3678C136.698 35.2938 143.012 48.336 144.594 62.3376M89.5938 35.2501C96.3555 36.5834 102.56 39.9184 107.403 44.8222C112.245 49.726 115.502 55.9722 116.75 62.7501M144.25 110.325V130.95C144.258 132.865 143.866 134.76 143.099 136.514C142.332 138.269 141.207 139.843 139.796 141.138C138.385 142.432 136.719 143.418 134.905 144.031C133.091 144.645 131.17 144.872 129.263 144.7C108.108 142.399 87.7869 135.17 69.9313 123.594C53.3202 113.038 39.2368 98.955 28.6813 82.3438C17.0648 64.4072 9.83429 43.9876 7.57509 22.7376C7.40329 20.8364 7.62923 18.9203 8.23853 17.1112C8.84783 15.3022 9.82714 13.6398 11.1141 12.23C12.4011 10.8201 13.9675 9.69368 15.7137 8.92239C17.4598 8.15111 19.3474 7.75185 21.2563 7.75006H41.8813C45.2178 7.71722 48.4524 8.89872 50.9822 11.0743C53.512 13.25 55.1644 16.2713 55.6313 19.5751C56.4995 26.176 58.1141 32.657 60.4438 38.8938C61.3688 41.3545 61.569 44.0288 61.0207 46.5999C60.4724 49.1709 59.1985 51.5308 57.3501 53.4001L48.6188 62.1313C58.4058 79.3432 72.657 93.5944 89.8689 103.381L98.6001 94.6501C100.469 92.8016 102.829 91.5278 105.4 90.9795C107.971 90.4311 110.646 90.6313 113.106 91.5563C119.343 93.8861 125.824 95.5006 132.425 96.3688C135.765 96.84 138.815 98.5221 140.995 101.095C143.175 103.669 144.334 106.953 144.25 110.325Z" stroke="#EBEBEB" stroke-width="13.75" stroke-linecap="round" stroke-linejoin="round"/>
</svg>
