<svg width="18" height="18" viewBox="0 0 18 18" fill="none" xmlns="http://www.w3.org/2000/svg">
<path d="M7.18276 2.71606C7.30964 3.28554 7.26021 3.95654 7.16804 4.39506C7.08284 4.80042 7.34238 5.19809 7.74774 5.28329C8.1531 5.36849 8.55077 5.10895 8.63597 4.7036C8.75705 4.12755 8.83397 3.22967 8.64686 2.38986C8.45811 1.5427 7.9492 0.589799 6.78369 0.306544C6.3812 0.208724 5.97561 0.455715 5.87779 0.858212C5.77997 1.26071 6.02696 1.6663 6.42946 1.76412C6.81208 1.85711 7.05751 2.15392 7.18276 2.71606Z" fill="black" fill-opacity="0.5"/>
<path d="M14.4777 8.87132C13.8143 8.95794 13.1159 9.27273 12.6831 9.54177C12.3314 9.76047 11.8689 9.65259 11.6502 9.30082C11.4315 8.94905 11.5394 8.48659 11.8911 8.26789C12.4432 7.92465 13.3455 7.50643 14.2835 7.38395C15.229 7.26049 16.3834 7.42947 17.1005 8.50641C17.3301 8.85118 17.2367 9.31678 16.8919 9.54637C16.5472 9.77595 16.0816 9.68257 15.852 9.3378C15.5814 8.93146 15.1336 8.78567 14.4777 8.87132Z" fill="black" fill-opacity="0.5"/>
<path fill-rule="evenodd" clip-rule="evenodd" d="M16.0952 1.58415C16.463 1.77481 16.6065 2.22748 16.4158 2.5952C15.7394 3.89977 14.6137 4.50868 13.5793 4.70081C13.5452 4.83524 13.4997 4.97141 13.4428 5.10876C13.0928 5.95241 12.4195 6.546 11.7506 6.92172C11.0873 7.29433 10.3453 7.49996 9.75 7.49996C9.33579 7.49996 9 7.16418 9 6.74996C9 6.33575 9.33579 5.99996 9.75 5.99996C10.0436 5.99996 10.5349 5.88417 11.016 5.61392C11.4386 5.37656 11.7875 5.05743 11.9887 4.67914C11.7605 4.62583 11.5482 4.54937 11.3628 4.44984C11.1532 4.33731 10.9133 4.16023 10.7633 3.88853C10.5913 3.57724 10.5763 3.20564 10.7509 2.86901C10.9939 2.40035 11.4568 2.22839 11.8398 2.21841C12.2191 2.20852 12.6005 2.34316 12.9083 2.57407C13.1187 2.73188 13.3048 2.94194 13.4388 3.19898C14.0585 3.05234 14.6889 2.66699 15.0842 1.90472C15.2749 1.537 15.7275 1.39348 16.0952 1.58415ZM12.0307 3.10201C12.0307 3.10201 12.0315 3.10259 12.0328 3.10385L12.0316 3.10288L12.0307 3.10201Z" fill="black" fill-opacity="0.5"/>
<path d="M17.25 5.24997C17.25 5.66418 16.9142 5.99997 16.5 5.99997C16.0858 5.99997 15.75 5.66418 15.75 5.24997C15.75 4.83575 16.0858 4.49997 16.5 4.49997C16.9142 4.49997 17.25 4.83575 17.25 5.24997Z" fill="black" fill-opacity="0.5"/>
<path d="M10.5 1.49997C10.5 1.91418 10.1642 2.24997 9.75 2.24997C9.33579 2.24997 9 1.91418 9 1.49997C9 1.08575 9.33579 0.749966 9.75 0.749966C10.1642 0.749966 10.5 1.08575 10.5 1.49997Z" fill="black" fill-opacity="0.5"/>
<path d="M16.5 12C16.5 12.4142 16.1642 12.75 15.75 12.75C15.3358 12.75 15 12.4142 15 12C15 11.5858 15.3358 11.25 15.75 11.25C16.1642 11.25 16.5 11.5858 16.5 12Z" fill="black" fill-opacity="0.5"/>
<path d="M6 2.99997C6 3.41418 5.66421 3.74997 5.25 3.74997C4.83579 3.74997 4.5 3.41418 4.5 2.99997C4.5 2.58575 4.83579 2.24997 5.25 2.24997C5.66421 2.24997 6 2.58575 6 2.99997Z" fill="black" fill-opacity="0.5"/>
<path fill-rule="evenodd" clip-rule="evenodd" d="M1.94584 17.1249C1.38955 16.9379 0.952897 16.5012 0.76592 15.9449C0.623822 15.5222 0.71023 15.0839 0.815523 14.7148C0.923962 14.3347 1.10691 13.8595 1.32628 13.2897L3.55393 7.50287C3.70938 7.09899 3.84407 6.74907 3.97774 6.47817C4.11518 6.19965 4.2969 5.90573 4.59568 5.69837C5.0096 5.41109 5.52172 5.30249 6.01661 5.39704C6.37383 5.46529 6.6592 5.66016 6.89785 5.85893C7.12995 6.05225 7.39506 6.31737 7.70102 6.62337L11.2674 10.1897C11.5734 10.4957 11.8385 10.7608 12.0318 10.9929C12.2306 11.2316 12.4255 11.5169 12.4937 11.8742C12.5883 12.3691 12.4797 12.8812 12.1924 13.2951C11.985 13.5939 11.6911 13.7756 11.4126 13.913C11.1417 14.0467 10.7918 14.1814 10.3879 14.3369L4.60111 16.5645C4.0313 16.7839 3.55608 16.9668 3.17598 17.0753C2.8069 17.1805 2.36861 17.267 1.94584 17.1249ZM2.41416 15.6997L2.41556 15.6997C2.43161 15.7 2.52359 15.7015 2.76447 15.6328C3.07178 15.5451 3.48356 15.3874 4.09642 15.1515L4.81444 14.8751L3.01571 13.0763L2.7393 13.7944C2.50338 14.4072 2.34565 14.819 2.25797 15.1263C2.18925 15.3672 2.19082 15.4592 2.1911 15.4752L2.19112 15.4766C2.22905 15.5801 2.31065 15.6617 2.41416 15.6997ZM8.06364 13.6243L6.30228 14.3023C6.2665 14.2272 6.21751 14.1568 6.15533 14.0946L3.60534 11.5446L4.2665 9.82713L8.06364 13.6243ZM5.03033 8.46964C4.97351 8.41282 4.90983 8.36702 4.84196 8.33224L4.94175 8.07302C5.11272 7.62889 5.22319 7.34398 5.32289 7.14193C5.40256 6.98047 5.44617 6.93559 5.4528 6.92937C5.53463 6.87331 5.63534 6.85195 5.73288 6.86998C5.74149 6.87298 5.79956 6.89631 5.93787 7.01151C6.111 7.15571 6.3276 7.37126 6.66411 7.70778L10.183 11.2267C10.5195 11.5632 10.7351 11.7798 10.8793 11.9529C10.9945 12.0913 11.0178 12.1493 11.0208 12.1579C11.0388 12.2554 11.0175 12.3561 10.9614 12.438C10.9552 12.4446 10.9103 12.4882 10.7488 12.5679C10.5468 12.6676 10.2619 12.7781 9.81775 12.949L9.58993 13.0367C9.57163 13.0135 9.55176 12.9911 9.53033 12.9696L5.03033 8.46964Z" fill="black" fill-opacity="0.5"/>
</svg>
