<svg width="23" height="22" viewBox="0 0 23 22" fill="none" xmlns="http://www.w3.org/2000/svg">
<path d="M6.875 12C6.875 12.5523 6.42729 13 5.875 13C5.32272 13 4.875 12.5523 4.875 12C4.875 11.4477 5.32272 11 5.875 11C6.42729 11 6.875 11.4477 6.875 12Z" fill="#28251B"/>
<path d="M10.875 12C10.875 12.5523 10.4273 13 9.875 13C9.32272 13 8.875 12.5523 8.875 12C8.875 11.4477 9.32272 11 9.875 11C10.4273 11 10.875 11.4477 10.875 12Z" fill="#28251B"/>
<path d="M13.875 13C14.4273 13 14.875 12.5523 14.875 12C14.875 11.4477 14.4273 11 13.875 11C13.3227 11 12.875 11.4477 12.875 12C12.875 12.5523 13.3227 13 13.875 13Z" fill="#28251B"/>
<path d="M18.875 12C18.875 12.5523 18.4273 13 17.875 13C17.3227 13 16.875 12.5523 16.875 12C16.875 11.4477 17.3227 11 17.875 11C18.4273 11 18.875 11.4477 18.875 12Z" fill="#28251B"/>
<path d="M5.875 17C6.42729 17 6.875 16.5523 6.875 16C6.875 15.4477 6.42729 15 5.875 15C5.32272 15 4.875 15.4477 4.875 16C4.875 16.5523 5.32272 17 5.875 17Z" fill="#28251B"/>
<path d="M10.875 16C10.875 16.5523 10.4273 17 9.875 17C9.32272 17 8.875 16.5523 8.875 16C8.875 15.4477 9.32272 15 9.875 15C10.4273 15 10.875 15.4477 10.875 16Z" fill="#28251B"/>
<path d="M13.875 17C14.4273 17 14.875 16.5523 14.875 16C14.875 15.4477 14.4273 15 13.875 15C13.3227 15 12.875 15.4477 12.875 16C12.875 16.5523 13.3227 17 13.875 17Z" fill="#28251B"/>
<path fill-rule="evenodd" clip-rule="evenodd" d="M8.23219 2.53247e-07H15.5178C16.6016 -9.52191e-06 17.4757 -1.75089e-05 18.1836 0.0578185C18.9125 0.117368 19.5527 0.243181 20.145 0.544968C21.0858 1.02434 21.8507 1.78924 22.33 2.73005C22.6318 3.32234 22.7576 3.96253 22.8172 4.69138C22.875 5.39923 22.875 6.27334 22.875 7.35706V14.6428C22.875 15.7266 22.875 16.6008 22.8172 17.3086C22.7576 18.0375 22.6318 18.6777 22.33 19.27C21.8507 20.2108 21.0858 20.9757 20.145 21.455C19.5527 21.7568 18.9125 21.8826 18.1836 21.9422C17.4758 22 16.6017 22 15.5179 22H8.23217C7.14844 22 6.27423 22 5.56638 21.9422C4.83753 21.8826 4.19734 21.7568 3.60505 21.455C2.66424 20.9757 1.89934 20.2108 1.41997 19.27C1.11818 18.6777 0.992368 18.0375 0.932819 17.3086C0.874982 16.6007 0.87499 15.7266 0.875 14.6428V7.35719C0.87499 6.27341 0.874983 5.39925 0.932819 4.69138C0.992368 3.96253 1.11818 3.32234 1.41997 2.73005C1.89934 1.78924 2.66424 1.02434 3.60505 0.544968C4.19734 0.243181 4.83753 0.117368 5.56638 0.0578185C6.27425 -1.74046e-05 7.14841 -9.52194e-06 8.23219 2.53247e-07ZM5.72924 2.05118C5.12407 2.10062 4.77638 2.19279 4.51303 2.32698C3.94854 2.6146 3.4896 3.07354 3.20198 3.63803C3.06779 3.90138 2.97562 4.24907 2.92618 4.85424C2.89962 5.17923 2.88685 5.55292 2.8807 6H20.8693C20.8632 5.55292 20.8504 5.17923 20.8238 4.85424C20.7744 4.24907 20.6822 3.90138 20.548 3.63803C20.2604 3.07354 19.8015 2.6146 19.237 2.32698C18.9736 2.19279 18.6259 2.10062 18.0208 2.05118C17.4039 2.00078 16.6116 2 15.475 2H8.275C7.13839 2 6.34608 2.00078 5.72924 2.05118ZM20.875 8H2.875V14.6C2.875 15.7366 2.87578 16.5289 2.92618 17.1458C2.97562 17.7509 3.06779 18.0986 3.20198 18.362C3.4896 18.9265 3.94854 19.3854 4.51303 19.673C4.77638 19.8072 5.12407 19.8994 5.72924 19.9488C6.34608 19.9992 7.13839 20 8.275 20H15.475C16.6116 20 17.4039 19.9992 18.0208 19.9488C18.6259 19.8994 18.9736 19.8072 19.237 19.673C19.8015 19.3854 20.2604 18.9265 20.548 18.362C20.6822 18.0986 20.7744 17.7509 20.8238 17.1458C20.8742 16.5289 20.875 15.7366 20.875 14.6V8Z" fill="#28251B"/>
</svg>
