<svg width="23" height="22" viewBox="0 0 23 22" fill="none" xmlns="http://www.w3.org/2000/svg">
<path fill-rule="evenodd" clip-rule="evenodd" d="M5.125 10C7.88642 10 10.125 7.76142 10.125 5C10.125 2.23858 7.88642 0 5.125 0C2.36358 0 0.125 2.23858 0.125 5C0.125 7.76142 2.36358 10 5.125 10ZM7.27171 2.51936C7.70327 2.76597 7.85321 3.31574 7.6066 3.74731L5.6066 7.24731C5.45396 7.51442 5.17545 7.68507 4.86815 7.69976C4.56085 7.71444 4.26733 7.57114 4.08991 7.3198L2.58991 5.1948C2.30327 4.78872 2.40009 4.22715 2.80617 3.94051C3.21225 3.65387 3.77381 3.75069 4.06046 4.15677L4.74518 5.12679L6.04377 2.85426C6.29037 2.42269 6.84014 2.27275 7.27171 2.51936Z" fill="#28251B"/>
<path d="M13.0703 4C12.518 4 12.0703 4.44772 12.0703 5C12.0703 5.55228 12.518 6 13.0703 6H21.0718C21.6241 6 22.0718 5.55228 22.0718 5C22.0718 4.44772 21.6241 4 21.0718 4H13.0703Z" fill="#28251B"/>
<path d="M12.0703 17C12.0703 16.4477 12.518 16 13.0703 16H21.0718C21.6241 16 22.0718 16.4477 22.0718 17C22.0718 17.5523 21.6241 18 21.0718 18H13.0703C12.518 18 12.0703 17.5523 12.0703 17Z" fill="#28251B"/>
<path fill-rule="evenodd" clip-rule="evenodd" d="M10.125 17C10.125 19.7614 7.88642 22 5.125 22C2.36358 22 0.125 19.7614 0.125 17C0.125 14.2386 2.36358 12 5.125 12C7.88642 12 10.125 14.2386 10.125 17ZM7.36159 14.7636C7.71306 15.1151 7.71306 15.6849 7.36159 16.0364L6.3984 16.9996L7.36164 17.9628C7.71311 18.3143 7.71311 18.8841 7.36164 19.2356C7.01017 19.5871 6.44032 19.5871 6.08885 19.2356L5.12561 18.2724L4.16237 19.2356C3.8109 19.5871 3.24105 19.5871 2.88958 19.2356C2.53811 18.8841 2.53811 18.3143 2.88958 17.9628L3.85282 16.9996L2.88963 16.0364C2.53816 15.6849 2.53816 15.1151 2.88963 14.7636C3.2411 14.4121 3.81095 14.4121 4.16242 14.7636L5.12561 15.7268L6.0888 14.7636C6.44027 14.4121 7.01012 14.4121 7.36159 14.7636Z" fill="#28251B"/>
</svg>
