<svg width="23" height="20" viewBox="0 0 23 20" fill="none" xmlns="http://www.w3.org/2000/svg">
<path d="M10.625 15.8L10.625 13.5C10.625 12.9477 10.1773 12.5 9.625 12.5C9.07271 12.5 8.625 12.9477 8.625 13.5L8.62501 15.8386C8.62499 16.3657 8.62498 16.8205 8.65558 17.195C8.68789 17.5904 8.7592 17.9836 8.952 18.362C9.23962 18.9265 9.69856 19.3854 10.263 19.673C10.6414 19.8658 11.0346 19.9371 11.43 19.9694C11.8045 20 12.2593 20 12.7864 20H18.4636C18.9907 20 19.4455 20 19.8201 19.9694C20.2154 19.9371 20.6086 19.8658 20.987 19.673C21.5515 19.3854 22.0104 18.9265 22.2981 18.362C22.4909 17.9836 22.5622 17.5904 22.5945 17.195C22.6251 16.8205 22.6251 16.3657 22.625 15.8386V4.16148C22.6251 3.63437 22.6251 3.17952 22.5945 2.80497C22.5622 2.40963 22.4909 2.01641 22.2981 1.63803C22.0104 1.07354 21.5515 0.614602 20.987 0.326982C20.6086 0.134187 20.2154 0.062871 19.8201 0.03057C19.4455 -3.33879e-05 18.9907 -1.81284e-05 18.4636 9.45064e-07H12.7864C12.2593 -1.81284e-05 11.8046 -3.33879e-05 11.43 0.03057C11.0346 0.062871 10.6414 0.134187 10.263 0.32698C9.69856 0.614598 9.23962 1.07354 8.952 1.63802C8.7592 2.0164 8.68789 2.40962 8.65558 2.80496C8.62498 3.17953 8.62499 3.63429 8.62501 4.16143L8.625 6.5C8.625 7.05228 9.07271 7.5 9.625 7.5C10.1773 7.5 10.625 7.05229 10.625 6.5L10.625 4.19999C10.625 3.62344 10.6258 3.25117 10.6489 2.96783C10.6711 2.69617 10.7088 2.59545 10.734 2.54601C10.8299 2.35785 10.9829 2.20487 11.171 2.10899C11.2205 2.0838 11.3212 2.04612 11.5928 2.02393C11.8762 2.00078 12.2485 2 12.825 2H18.425C19.0016 2 19.3739 2.00078 19.6572 2.02393C19.9289 2.04612 20.0296 2.0838 20.079 2.10899C20.2672 2.20487 20.4202 2.35785 20.516 2.54601C20.5412 2.59545 20.5789 2.69617 20.6011 2.96784C20.6243 3.25117 20.625 3.62345 20.625 4.2V15.8C20.625 16.3766 20.6243 16.7488 20.6011 17.0322C20.5789 17.3038 20.5412 17.4045 20.516 17.454C20.4202 17.6422 20.2672 17.7951 20.079 17.891C20.0296 17.9162 19.9289 17.9539 19.6572 17.9761C19.3739 17.9992 19.0016 18 18.425 18H12.825C12.2485 18 11.8762 17.9992 11.5928 17.9761C11.3212 17.9539 11.2205 17.9162 11.171 17.891C10.9829 17.7951 10.8299 17.6422 10.734 17.454C10.7088 17.4045 10.6711 17.3038 10.6489 17.0322C10.6258 16.7488 10.625 16.3766 10.625 15.8Z" fill="#28251B"/>
<path d="M0.917893 9.2929C0.527369 9.68342 0.527369 10.3166 0.917893 10.7071L4.41789 14.2071C4.80842 14.5976 5.44158 14.5976 5.83211 14.2071C6.22263 13.8166 6.22263 13.1834 5.83211 12.7929L4.03921 11H15.625C16.1773 11 16.625 10.5523 16.625 10C16.625 9.44772 16.1773 9 15.625 9H4.03921L5.83211 7.20711C6.22263 6.81659 6.22263 6.18342 5.83211 5.7929C5.44158 5.40237 4.80842 5.40237 4.41789 5.7929L0.917893 9.2929Z" fill="#28251B"/>
</svg>
