<svg width="18" height="14" viewBox="0 0 18 14" fill="none" xmlns="http://www.w3.org/2000/svg">
<path fill-rule="evenodd" clip-rule="evenodd" d="M0.75 5.05C0.75 3.36984 0.75 2.52976 1.07698 1.88803C1.3646 1.32354 1.82354 0.864601 2.38803 0.57698C3.02976 0.25 3.86984 0.25 5.55 0.25H12.45C14.1302 0.25 14.9702 0.25 15.612 0.57698C16.1765 0.864601 16.6354 1.32354 16.923 1.88803C17.25 2.52976 17.25 3.36984 17.25 5.05V8.95C17.25 10.6302 17.25 11.4702 16.923 12.112C16.6354 12.6765 16.1765 13.1354 15.612 13.423C14.9702 13.75 14.1302 13.75 12.45 13.75H5.55C3.86984 13.75 3.02976 13.75 2.38803 13.423C1.82354 13.1354 1.3646 12.6765 1.07698 12.112C0.75 11.4702 0.75 10.6302 0.75 8.95V5.05ZM5.55 1.75H12.45C13.3148 1.75 13.8732 1.75117 14.2982 1.78589C14.6531 1.81489 14.8136 1.8615 14.898 1.89801L9 7.46838L3.10196 1.89801C3.18645 1.8615 3.34685 1.81489 3.70175 1.78589C4.12676 1.75117 4.68517 1.75 5.55 1.75ZM2.28675 3.19133L2.28589 3.20175C2.25117 3.62676 2.25 4.18517 2.25 5.05V8.95C2.25 9.55823 2.25058 10.0149 2.263 10.3802L5.81925 6.52758L2.28675 3.19133ZM3.06901 12.0865C2.99301 12.0478 2.92084 12.0029 2.85314 11.9523L6.90984 7.55758L8.48503 9.04526C8.77408 9.31825 9.22593 9.31825 9.51497 9.04526L11.0902 7.55758L15.1469 11.9523C15.0792 12.0029 15.007 12.0478 14.931 12.0865C14.8568 12.1243 14.7057 12.1808 14.2982 12.2141C13.8732 12.2488 13.3148 12.25 12.45 12.25H5.55C4.68517 12.25 4.12676 12.2488 3.70175 12.2141C3.29426 12.1808 3.14318 12.1243 3.06901 12.0865ZM15.737 10.3802C15.7494 10.0149 15.75 9.55823 15.75 8.95V5.05C15.75 4.18517 15.7488 3.62676 15.7141 3.20175L15.7132 3.19133L12.1807 6.52758L15.737 10.3802Z" fill="black" fill-opacity="0.5"/>
</svg>
