<svg width="12" height="18" viewBox="0 0 12 18" fill="none" xmlns="http://www.w3.org/2000/svg">
<path d="M5.25 3C4.83579 3 4.5 3.33579 4.5 3.75C4.5 4.16421 4.83579 4.5 5.25 4.5H6.75C7.16421 4.5 7.5 4.16421 7.5 3.75C7.5 3.33579 7.16421 3 6.75 3H5.25Z" fill="black" fill-opacity="0.5"/>
<path fill-rule="evenodd" clip-rule="evenodd" d="M0 5.55C0 3.86984 0 3.02976 0.32698 2.38803C0.614601 1.82354 1.07354 1.3646 1.63803 1.07698C2.27976 0.75 3.11984 0.75 4.8 0.75H7.2C8.88016 0.75 9.72024 0.75 10.362 1.07698C10.9265 1.3646 11.3854 1.82354 11.673 2.38803C12 3.02976 12 3.86984 12 5.55V12.45C12 14.1302 12 14.9702 11.673 15.612C11.3854 16.1765 10.9265 16.6354 10.362 16.923C9.72024 17.25 8.88016 17.25 7.2 17.25H4.8C3.11984 17.25 2.27976 17.25 1.63803 16.923C1.07354 16.6354 0.614601 16.1765 0.32698 15.612C0 14.9702 0 14.1302 0 12.45V5.55ZM4.8 2.25H7.2C8.06483 2.25 8.62324 2.25117 9.04825 2.28589C9.45574 2.31918 9.60682 2.3757 9.68099 2.41349C9.96323 2.5573 10.1927 2.78677 10.3365 3.06901C10.3743 3.14318 10.4308 3.29426 10.4641 3.70175C10.4988 4.12676 10.5 4.68517 10.5 5.55V12.45C10.5 13.3148 10.4988 13.8732 10.4641 14.2982C10.4308 14.7057 10.3743 14.8568 10.3365 14.931C10.1927 15.2132 9.96323 15.4427 9.68099 15.5865C9.60682 15.6243 9.45574 15.6808 9.04825 15.7141C8.62324 15.7488 8.06483 15.75 7.2 15.75H4.8C3.93517 15.75 3.37676 15.7488 2.95175 15.7141C2.54426 15.6808 2.39318 15.6243 2.31901 15.5865C2.03677 15.4427 1.8073 15.2132 1.66349 14.931C1.6257 14.8568 1.56918 14.7057 1.53589 14.2982C1.50117 13.8732 1.5 13.3148 1.5 12.45V5.55C1.5 4.68517 1.50117 4.12676 1.53589 3.70175C1.56918 3.29426 1.6257 3.14318 1.66349 3.06901C1.8073 2.78677 2.03677 2.5573 2.31901 2.41349C2.39318 2.3757 2.54426 2.31918 2.95175 2.28589C3.37676 2.25117 3.93517 2.25 4.8 2.25Z" fill="black" fill-opacity="0.5"/>
</svg>
