<svg width="21" height="21" viewBox="0 0 21 21" fill="none" xmlns="http://www.w3.org/2000/svg">
<path d="M2.33333 9.33333H7C8.28333 9.33333 9.33333 8.28333 9.33333 7V2.33333C9.33333 1.05 8.28333 0 7 0H2.33333C1.05 0 0 1.05 0 2.33333V7C0 8.28333 1.05 9.33333 2.33333 9.33333ZM2.33333 2.33333H7V7H2.33333V2.33333ZM2.33333 21H7C8.28333 21 9.33333 19.95 9.33333 18.6667V14C9.33333 12.7167 8.28333 11.6667 7 11.6667H2.33333C1.05 11.6667 0 12.7167 0 14V18.6667C0 19.95 1.05 21 2.33333 21ZM2.33333 14H7V18.6667H2.33333V14ZM11.6667 2.33333V7C11.6667 8.28333 12.7167 9.33333 14 9.33333H18.6667C19.95 9.33333 21 8.28333 21 7V2.33333C21 1.05 19.95 0 18.6667 0H14C12.7167 0 11.6667 1.05 11.6667 2.33333ZM18.6667 7H14V2.33333H18.6667V7ZM21 20.4167V19.25C21 18.9233 20.7433 18.6667 20.4167 18.6667H19.25C18.9233 18.6667 18.6667 18.9233 18.6667 19.25V20.4167C18.6667 20.7433 18.9233 21 19.25 21H20.4167C20.7433 21 21 20.7433 21 20.4167ZM11.6667 12.25V13.4167C11.6667 13.7433 11.9233 14 12.25 14H13.4167C13.7433 14 14 13.7433 14 13.4167V12.25C14 11.9233 13.7433 11.6667 13.4167 11.6667H12.25C11.9233 11.6667 11.6667 11.9233 11.6667 12.25ZM15.75 14H14.5833C14.2567 14 14 14.2567 14 14.5833V15.75C14 16.0767 14.2567 16.3333 14.5833 16.3333H15.75C16.0767 16.3333 16.3333 16.0767 16.3333 15.75V14.5833C16.3333 14.2567 16.0767 14 15.75 14ZM11.6667 16.9167V18.0833C11.6667 18.41 11.9233 18.6667 12.25 18.6667H13.4167C13.7433 18.6667 14 18.41 14 18.0833V16.9167C14 16.59 13.7433 16.3333 13.4167 16.3333H12.25C11.9233 16.3333 11.6667 16.59 11.6667 16.9167ZM14.5833 21H15.75C16.0767 21 16.3333 20.7433 16.3333 20.4167V19.25C16.3333 18.9233 16.0767 18.6667 15.75 18.6667H14.5833C14.2567 18.6667 14 18.9233 14 19.25V20.4167C14 20.7433 14.2567 21 14.5833 21ZM16.9167 18.6667H18.0833C18.41 18.6667 18.6667 18.41 18.6667 18.0833V16.9167C18.6667 16.59 18.41 16.3333 18.0833 16.3333H16.9167C16.59 16.3333 16.3333 16.59 16.3333 16.9167V18.0833C16.3333 18.41 16.59 18.6667 16.9167 18.6667ZM18.0833 11.6667H16.9167C16.59 11.6667 16.3333 11.9233 16.3333 12.25V13.4167C16.3333 13.7433 16.59 14 16.9167 14H18.0833C18.41 14 18.6667 13.7433 18.6667 13.4167V12.25C18.6667 11.9233 18.41 11.6667 18.0833 11.6667ZM19.25 16.3333H20.4167C20.7433 16.3333 21 16.0767 21 15.75V14.5833C21 14.2567 20.7433 14 20.4167 14H19.25C18.9233 14 18.6667 14.2567 18.6667 14.5833V15.75C18.6667 16.0767 18.9233 16.3333 19.25 16.3333Z"/>
</svg>
