<svg width="23" height="20" viewBox="0 0 23 20" fill="none" xmlns="http://www.w3.org/2000/svg">
<path d="M4.49409 8.61709C5.14917 4.85789 8.42834 2 12.375 2C16.7933 2 20.375 5.58172 20.375 10C20.375 14.4183 16.7933 18 12.375 18C9.48531 18 6.95241 16.4685 5.54515 14.1682C5.25694 13.6971 4.64138 13.5488 4.17027 13.837C3.69915 14.1252 3.55087 14.7408 3.83908 15.2119C5.59457 18.0815 8.76029 20 12.375 20C17.8978 20 22.375 15.5228 22.375 10C22.375 4.47715 17.8978 0 12.375 0C7.34771 0 3.18688 3.70974 2.48066 8.54106L2.2325 8.29289C1.84197 7.90237 1.20881 7.90237 0.818284 8.29289C0.42776 8.68342 0.42776 9.31658 0.818284 9.70711L2.81828 11.7071C3.20881 12.0976 3.84197 12.0976 4.2325 11.7071L6.2325 9.70711C6.62302 9.31658 6.62302 8.68342 6.2325 8.29289C5.84197 7.90237 5.20881 7.90237 4.81828 8.29289L4.49409 8.61709Z" fill="#28251B"/>
<path d="M11.375 4.5C11.9273 4.5 12.375 4.94772 12.375 5.5V10H15.375C15.9273 10 16.375 10.4477 16.375 11C16.375 11.5523 15.9273 12 15.375 12H11.875C11.0466 12 10.375 11.3284 10.375 10.5V5.5C10.375 4.94772 10.8227 4.5 11.375 4.5Z" fill="#28251B"/>
</svg>
