<svg width="512" height="512" viewBox="0 0 512 512" fill="none" xmlns="http://www.w3.org/2000/svg">
<path d="M0 34C0 15.2223 15.2223 0 34 0H478C496.778 0 512 15.2223 512 34V478C512 496.778 496.778 512 478 512H34C15.2223 512 0 496.778 0 478V34Z" fill="#333333"/>
<path d="M412.25 71.5625H359.25C350.5 71.5625 343.75 79.5075 343.75 89.155C343.75 98.8025 350.75 106.748 359.25 106.748H412.25V178.253C412.25 188.184 419.25 195.845 427.75 195.845C436.25 195.845 443.25 187.9 443.25 178.253V107.031C443.25 87.4525 429.25 71.5625 412 71.5625H412.25ZM84 196.129C92.75 196.129 99.5 188.184 99.5 178.536V107.031H153.25C162 107.031 168.75 99.0863 168.75 89.4388C168.75 79.7913 161.75 71.8462 153.25 71.8462H99.75C82.5 71.8462 68.5 87.7362 68.5 107.315V178.82C68.5 188.751 75.5 196.412 84 196.412V196.129ZM153.25 404.969H99.75V333.464C99.75 323.532 92.75 315.871 84.25 315.871C75.75 315.871 68.75 323.816 68.75 333.464V404.969C68.75 424.547 82.75 440.438 100 440.438H153.25C162 440.438 168.75 432.492 168.75 422.845C168.75 413.198 161.75 405.253 153.25 405.253V404.969ZM428 315.871C419.25 315.871 412.5 323.816 412.5 333.464V404.969H359.5C350.75 404.969 344 412.914 344 422.561C344 432.209 351 440.154 359.5 440.154H412.5C429.75 440.154 443.75 424.264 443.75 404.685V333.18C443.75 323.249 436.75 315.588 428.25 315.588L428 315.871Z" fill="#DE283B"/>
<path d="M209 129.731H156.75C139.5 129.731 125.5 145.621 125.5 165.2V208.898C125.5 228.476 139.5 244.366 156.75 244.366H209C226.25 244.366 240.25 228.476 240.25 208.898V165.2C240.25 145.621 226.25 129.731 209 129.731ZM209 208.898H156.75V165.2H209V208.898ZM271.75 194.994H334.75V230.463H271.75V194.994ZM271.75 143.919H386.5V179.388H271.75V143.919ZM177.25 281.537H240.25V317.006H177.25V281.537ZM125.5 332.612H240.25V368.081H125.5V332.612Z" fill="white"/>
<path d="M329.5 301.389C331.824 301.389 334.125 300.931 336.271 300.042C338.418 299.153 340.369 297.849 342.012 296.206C343.655 294.563 344.958 292.613 345.848 290.466C346.737 288.319 347.194 286.018 347.194 283.694C347.194 281.371 346.737 279.07 345.848 276.923C344.958 274.776 343.655 272.826 342.012 271.183C340.369 269.54 338.418 268.236 336.271 267.347C334.125 266.458 331.824 266 329.5 266C324.807 266 320.306 267.864 316.988 271.183C313.67 274.501 311.806 279.002 311.806 283.694C311.806 288.387 313.67 292.888 316.988 296.206C320.306 299.525 324.807 301.389 329.5 301.389ZM284 353.967V357H375V353.967C375 342.642 375 336.98 372.796 332.652C370.857 328.848 367.764 325.754 363.959 323.815C359.631 321.611 353.969 321.611 342.644 321.611H316.356C305.031 321.611 299.369 321.611 295.041 323.815C291.236 325.754 288.143 328.848 286.204 332.652C284 336.98 284 342.642 284 353.967Z" stroke="white" stroke-width="22" stroke-linecap="round" stroke-linejoin="round"/>
</svg>
