<?xml version="1.0" encoding="UTF-8" standalone="no"?>
<svg
   xmlns:dc="http://purl.org/dc/elements/1.1/"
   xmlns:cc="http://creativecommons.org/ns#"
   xmlns:rdf="http://www.w3.org/1999/02/22-rdf-syntax-ns#"
   xmlns:svg="http://www.w3.org/2000/svg"
   xmlns="http://www.w3.org/2000/svg"
   viewBox="0 0 1481.5732 1111.1866"
   height="1111.1866"
   width="1481.5732"
   xml:space="preserve"
   id="svg2"
   version="1.1"><metadata
     id="metadata8"><rdf:RDF><cc:Work
         rdf:about=""><dc:format>image/svg+xml</dc:format><dc:type
           rdf:resource="http://purl.org/dc/dcmitype/StillImage" /></cc:Work></rdf:RDF></metadata><defs
     id="defs6" /><g
     transform="matrix(1.3333333,0,0,-1.3333333,0,1111.1867)"
     id="g10"><g
       transform="scale(0.1)"
       id="g12"><path
         id="path14"
         style="fill:#100f0d;fill-opacity:1;fill-rule:nonzero;stroke:none"
         d="m 1306.89,1267.03 c 1.84,15.79 6.17,36.04 12.99,60.74 l 7.64,-3.93 c -5.26,-17.36 -8.64,-33.51 -10.18,-48.45 -1.52,-14.95 -1.29,-31.49 0.73,-49.62 5.11,-45.75 19.35,-87.63 42.75,-125.67 30.76,39.28 71.77,61.78 123.03,67.48 40.22,4.48 79.73,-0.86 118.55,-16.01 38.82,-15.14 74.06,-37.43 105.66,-66.88 31.65,-29.46 58.11,-64.63 79.43,-105.549 21.33,-40.938 34.56,-84.559 39.73,-130.828 2.27,-20.422 2.99,-37.422 2.15,-51.036 -0.85,-13.605 -3.19,-28.578 -7.03,-44.875 9.51,-6.082 17.06,-10.808 22.66,-14.168 5.59,-3.332 14.02,-8.761 25.28,-16.269 12.95,-8.137 24.24,-15.676 33.84,-22.578 9.61,-6.926 18.55,-13.508 26.88,-19.758 8.34,-6.262 16.46,-12.547 24.39,-18.848 7.93,-6.297 16.69,-12.929 26.27,-19.832 l 18.37,-13.527 9.4,-8.535 c 18.25,45.156 38.2,78.703 59.83,100.695 21.65,21.961 47.15,34.598 76.49,37.859 36.48,4.063 67.18,-8.679 92.14,-38.242 24.94,-29.558 40.45,-71.551 46.51,-125.965 2.64,-23.671 2.54,-46.25 -0.24,-67.707 -2.83,-21.472 -7.87,-42.605 -15.2,-63.379 -3.6,-10.781 -8.31,-22.683 -14.08,-35.691 -5.76,-13.027 -13.98,-29.707 -24.55,-50.039 25.1,-37.93 45.63,-76.184 61.56,-114.707 15.93,-38.566 25.83,-75.195 29.7,-109.887 5,-44.949 0.59,-80.5935 -13.25,-106.8748 C 2294.5,18.6602 2272.6,3.84766 2242.63,0.507813 2209.5,-3.18359 2176.48,13.6445 2143.57,51.0273 c -32.9,37.3711 -66.21,92.8317 -99.97,166.4067 l -7.88,17.05 c -10.95,-2.035 -19.2,-3.339 -24.72,-3.949 -6.3,-0.711 -12.21,-1.375 -17.75,-1.98 -58.35,-6.504 -114.57,-1.817 -168.64,14.074 -54.06,15.898 -111.42,45.176 -172.07,87.84 -46.8,33.047 -87.54,67.355 -122.25,102.929 -34.7,35.594 -66.99,76.426 -96.88,122.5 -67.47,104.063 -106.96,207.629 -118.46,310.762 -5.15,46.438 -4.83,88.32 0.98,125.625 5.84,37.295 16.98,68.025 33.44,92.175 -23.28,44.43 -37.37,88.32 -42.21,131.71 -2,18.13 -2.1,35.09 -0.27,50.86 z M 2296.83,62.2383 c 10.3,22.293 13.33,52.3907 9.12,90.2417 -3.7,33.125 -12.24,65.11 -25.66,95.958 -13.42,30.832 -34.46,67.421 -63.13,109.746 -22.08,-31.211 -46.77,-56.727 -74.12,-76.532 -27.32,-19.804 -58.4,-34.843 -93.18,-45.121 10.61,-30.75 23.79,-59.429 39.53,-86.011 15.74,-26.602 32.65,-49.465 50.75,-68.6059 18.11,-19.1485 36.52,-33.8672 55.21,-44.1602 18.73,-10.3047 35.97,-14.5508 51.74,-12.7812 22.89,2.539 39.47,14.9609 49.74,37.2656 z M 1365.07,723.184 c 20.84,-54.383 48.07,-107.215 81.74,-158.582 29.73,-44.582 61.83,-83.735 96.32,-117.414 34.5,-33.692 74.61,-65.946 120.37,-96.778 59.5,-39.707 115.7,-67.363 168.54,-83.035 52.84,-15.676 106.48,-20.48 160.9,-14.414 6.31,0.691 11.78,1.695 16.43,3.027 4.65,1.309 11.26,2.84 19.85,4.61 -9.47,27.683 -16.17,52.09 -20.14,73.203 -3.94,21.121 -7.54,46.277 -10.79,75.449 -2.02,18.145 -3.61,34.141 -4.76,47.969 -1.13,13.836 -1.57,26.785 -1.31,38.797 0.26,12.011 1.1,24.062 2.55,36.211 1.46,12.128 3.82,24.765 7.14,37.921 -3.49,2.793 -6.32,4.872 -8.47,6.25 -2.13,1.344 -4.08,2.723 -5.85,4.129 -6.04,4.121 -13.64,9.446 -22.74,16.036 -9.13,6.562 -20.16,14.316 -33.13,23.253 -12.09,8.243 -22.67,15.243 -31.69,21.036 -9.02,5.761 -16.52,10.308 -22.49,13.652 l -58.76,32.976 -12.88,8.157 c -22.52,-56.008 -59.38,-86.856 -110.65,-92.571 -29.98,-3.339 -58.49,1.868 -85.59,15.618 -27.08,13.75 -50.17,34.722 -69.29,62.937 l 6.7,4.348 c 17.19,-25.246 38.6,-43.606 64.22,-55.129 25.66,-11.516 52.67,-15.692 81.05,-12.527 48.12,5.347 81.73,33.445 100.8,84.285 l -16.7,10.109 -61.26,33.906 c -11.02,5.957 -22.53,12.461 -34.51,19.512 -11.96,7.039 -24.81,14.988 -38.58,23.848 -37.07,24.617 -68.52,47.05 -94.34,67.351 -25.8,20.274 -51.38,43.762 -76.71,70.489 -10.87,11.554 -21.13,22.988 -30.79,34.304 -9.63,11.301 -19.48,22.778 -29.57,34.438 -11.05,13.135 -19.65,24.155 -25.84,33.045 -6.18,8.9 -14.13,21.18 -23.87,36.88 -32.05,-49.1 -43.92,-111.117 -35.58,-186.031 5.63,-50.476 18.86,-102.898 39.68,-157.265 z m 655.84,-382.676 c 5.61,-25.332 13.07,-51.055 22.37,-77.156 21.73,5.605 40.97,12.148 57.69,19.597 16.74,7.442 33.24,17.278 49.44,29.461 12.62,8.598 22.66,16.899 30.15,24.926 7.48,8.016 17.54,19.922 30.16,35.684 -14.98,19.89 -26.84,34.929 -35.58,45.156 -8.71,10.191 -19.33,21.387 -31.88,33.582 -15.25,15.051 -31.3,30.039 -48.12,44.941 -16.84,14.895 -39.13,32.356 -66.93,52.422 l -15.64,11.438 c -4.56,-23.672 -7.3,-45.539 -8.27,-65.598 -0.94,-20.078 0.11,-43.914 3.18,-71.512 3.34,-29.972 7.82,-57.617 13.43,-82.941 z m 89.46,186.023 c 12.18,-12.613 23.77,-25.105 34.72,-37.449 10.96,-12.363 21.8,-25.332 32.48,-38.894 10.7,-13.594 21.79,-28.938 33.27,-45.997 l 8.55,-12.238 c 21.65,35.149 36.64,68.945 44.99,101.438 8.36,32.461 10.56,66.445 6.62,101.933 -5.01,44.957 -18.93,78.535 -41.77,100.742 -22.84,22.196 -51.99,31.344 -87.48,27.383 -26.81,-2.98 -50.87,-14.64 -72.16,-34.98 -21.29,-20.332 -36.96,-46.242 -47.04,-77.696 11.49,-9.914 20.14,-17.738 25.96,-23.457 5.86,-5.753 12.78,-12.55 20.85,-20.441 15.17,-14.297 28.84,-27.742 41.01,-40.344 z M 1505.8,938.273 c 12.15,-8.644 25.58,-18.117 40.28,-28.449 13.78,-8.855 26.26,-16.836 37.42,-23.984 11.18,-7.141 22.76,-14.227 34.7,-21.27 11.99,-7.07 25.39,-14.55 40.24,-22.48 14.86,-7.918 32.9,-17.5 54.1,-28.711 11.05,-5.945 20.61,-11.289 28.73,-15.957 8.11,-4.688 15.56,-8.856 22.35,-12.488 6.8,-3.625 13.58,-7.266 20.36,-10.903 6.81,-3.629 14.9,-8.125 24.26,-13.465 2.71,18.653 4.44,33.84 5.12,45.489 0.7,11.633 0.3,24.179 -1.2,37.59 -9.74,87.546 -49.77,156.535 -120.07,207.015 -16.46,11.72 -34.38,22.09 -53.76,31.14 -19.37,9 -39.56,16.34 -60.54,21.99 -20.99,5.64 -41.99,9.48 -62.97,11.55 -20.98,2.04 -40.94,2.02 -59.87,-0.09 -19.72,-2.18 -34.9,-5.68 -45.55,-10.45 -10.65,-4.79 -22.84,-13.53 -36.61,-26.23 11.66,-18.69 26.89,-38.75 45.64,-60.19 18.77,-21.485 37.84,-40.314 57.2,-56.513 7.98,-7.109 18.03,-14.972 30.17,-23.594" /><path
         id="path16"
         style="fill:#100f0d;fill-opacity:1;fill-rule:nonzero;stroke:none"
         d="m 1216.16,1307.16 c -43.37,4.83 -87.28,18.91 -131.71,42.23 -24.14,-16.48 -54.88,-27.61 -92.173,-33.46 -37.312,-5.82 -79.195,-6.16 -125.617,-0.99 -103.144,11.5 -206.715,50.99 -310.762,118.45 -46.089,29.9 -86.918,62.19 -122.5,96.9 -35.585,34.7 -69.902,75.45 -102.937,122.24 -42.668,60.67 -71.953,118.02 -87.844,172.07 -15.887,54.08 -20.57,110.28 -14.066,168.65 0.613,5.53 1.269,11.45 1.969,17.75 0.617,5.52 1.933,13.76 3.949,24.7 l -17.043,7.89 c -73.567,33.77 -129.0354,67.07 -166.4104,99.98 -37.3672,32.89 -54.21482,65.92 -50.5156,99.05 3.33984,29.97 18.1484,51.87 44.4414,65.7 26.2891,13.86 61.9296,18.27 106.8746,13.26 34.704,-3.87 71.325,-13.77 109.879,-29.7 38.535,-15.94 76.778,-36.45 114.707,-61.57 20.344,10.6 37.012,18.79 50.047,24.57 13.02,5.76 24.91,10.47 35.699,14.08 20.766,7.32 41.879,12.36 63.375,15.2 21.454,2.77 44.024,2.88 67.692,0.23 54.433,-6.05 96.41,-21.58 125.961,-46.51 29.574,-24.95 42.312,-55.66 38.258,-92.15 -3.274,-29.33 -15.895,-54.82 -37.86,-76.48 -21.98,-21.63 -55.547,-41.57 -100.687,-59.84 l 8.531,-9.38 13.523,-18.37 c 6.907,-9.58 13.532,-18.35 19.84,-26.28 6.289,-7.92 12.578,-16.05 18.832,-24.37 6.262,-8.34 12.844,-17.3 19.762,-26.9 6.895,-9.59 14.457,-20.89 22.578,-33.84 7.516,-11.27 12.934,-19.69 16.281,-25.28 3.348,-5.6 8.071,-13.15 14.168,-22.67 16.293,3.84 31.27,6.19 44.868,7.06 13.593,0.83 30.605,0.09 51.023,-2.17 46.281,-5.16 89.91,-18.4 130.844,-39.73 40.923,-21.32 76.103,-47.78 105.543,-79.41 29.46,-31.61 51.76,-66.85 66.88,-105.67 15.15,-38.81 20.49,-78.34 16,-118.55 -5.69,-51.27 -28.18,-92.28 -67.47,-123.05 38.04,-23.39 79.93,-37.64 125.67,-42.73 18.13,-2.03 34.67,-2.25 49.63,-0.75 14.93,1.56 31.09,4.94 48.43,10.18 l 3.95,-7.62 c -24.72,-6.82 -44.96,-11.16 -60.73,-12.99 -15.77,-1.84 -32.74,-1.74 -50.88,0.27 z M 24.957,2247.06 c -1.7617,-15.74 2.4844,-32.99 12.7969,-51.71 10.293,-18.7 24.9961,-37.1 44.1445,-55.22 19.1326,-18.09 42.0116,-35.02 68.6056,-50.75 26.578,-15.74 55.269,-28.92 86.031,-39.52 10.258,34.78 25.301,65.85 45.11,93.17 19.804,27.35 45.328,52.05 76.531,74.12 -42.332,28.67 -78.906,49.72 -109.746,63.13 -30.84,13.42 -62.832,21.96 -95.957,25.66 -37.864,4.22 -67.9496,1.18 -90.2425,-9.11 -22.3047,-10.29 -34.7344,-26.86 -37.2735,-49.77 z m 855.488,-921.67 c 74.926,-8.35 136.935,3.52 186.015,35.59 -15.67,9.72 -27.97,17.67 -36.87,23.84 -8.89,6.21 -19.92,14.8 -33.047,25.84 -11.656,10.1 -23.141,19.96 -34.434,29.59 -11.316,9.64 -22.754,19.91 -34.296,30.77 -26.743,25.35 -50.231,50.93 -70.508,76.73 -20.289,25.8 -42.731,57.26 -67.34,94.33 -8.86,13.77 -16.801,26.62 -23.848,38.6 -7.054,11.97 -13.558,23.47 -19.515,34.51 l -33.891,61.24 -10.129,16.71 c -50.828,-19.09 -78.93,-52.68 -84.297,-100.8 -3.156,-28.4 1.028,-55.39 12.551,-81.05 11.508,-25.63 29.879,-47.04 55.117,-64.22 l -4.348,-6.71 c -28.195,19.12 -49.183,42.23 -62.933,69.29 -13.746,27.09 -18.949,55.62 -15.609,85.58 5.703,51.29 36.566,88.15 92.558,110.66 l -8.148,12.88 -32.969,58.77 c -3.336,5.98 -7.899,13.46 -13.668,22.47 -5.793,9.04 -12.789,19.62 -21.035,31.71 -8.93,12.96 -16.692,24 -23.246,33.12 -6.575,9.12 -11.903,16.7 -16.035,22.74 -1.407,1.77 -2.786,3.72 -4.133,5.85 -1.375,2.15 -3.442,4.99 -6.246,8.48 -13.153,-3.32 -25.786,-5.69 -37.922,-7.16 -12.137,-1.43 -24.196,-2.29 -36.211,-2.55 -12.012,-0.25 -24.957,0.2 -38.789,1.34 -13.84,1.13 -29.84,2.72 -47.977,4.73 -29.172,3.25 -54.324,6.85 -75.453,10.79 -21.113,3.98 -45.512,10.67 -73.191,20.15 -1.766,-8.58 -3.301,-15.21 -4.621,-19.85 -1.313,-4.65 -2.329,-10.12 -3.028,-16.43 -6.058,-54.42 -1.254,-108.05 14.414,-160.89 15.68,-52.85 43.352,-109.03 83.039,-168.56 30.828,-45.73 63.086,-85.87 96.778,-120.34 33.679,-34.51 72.84,-66.62 117.429,-96.34 51.34,-33.66 104.184,-60.89 158.571,-81.74 54.359,-20.81 106.785,-34.04 157.265,-39.67 z m -456.996,682.08 c 27.586,-3.06 51.438,-4.12 71.508,-3.16 20.059,0.94 41.914,3.69 65.594,8.25 l -11.434,15.64 c -20.078,27.82 -37.539,50.11 -52.433,66.92 -14.891,16.83 -29.883,32.9 -44.946,48.15 -12.203,12.53 -23.383,23.15 -33.578,31.88 -10.219,8.73 -25.246,20.58 -45.148,35.56 -15.766,-12.62 -27.664,-22.67 -35.692,-30.15 -8.019,-7.49 -16.324,-17.54 -24.922,-30.17 -12.191,-16.19 -22.003,-32.68 -29.441,-49.41 -7.457,-16.74 -14.012,-35.97 -19.613,-57.7 26.105,-9.3 51.828,-16.75 77.152,-22.38 25.317,-5.61 52.965,-10.09 82.953,-13.43 z m 143.426,61.89 c 7.883,-8.08 14.68,-15.01 20.43,-20.86 5.734,-5.81 13.539,-14.46 23.449,-25.95 31.469,10.07 57.375,25.76 77.707,47.03 20.344,21.3 32,45.34 34.992,72.17 3.945,35.48 -5.195,64.64 -27.398,87.47 -22.207,22.85 -55.785,36.77 -100.739,41.76 -35.48,3.95 -69.461,1.75 -101.941,-6.6 -32.48,-8.36 -66.293,-23.35 -101.437,-44.99 l 12.234,-8.56 c 17.082,-11.48 32.41,-22.57 46,-33.28 13.574,-10.66 26.535,-21.51 38.906,-32.47 12.344,-10.95 24.824,-22.53 37.457,-34.71 12.59,-12.17 26.047,-25.84 40.34,-41.01 z m 394.984,-593.74 c 16.2,-19.36 35.032,-38.43 56.501,-57.19 21.45,-18.76 41.53,-33.98 60.19,-45.65 12.7,13.78 21.45,25.97 26.25,36.61 4.77,10.67 8.25,25.84 10.45,45.55 2.11,18.92 2.13,38.89 0.09,59.88 -2.06,20.99 -5.93,41.97 -11.57,62.96 -5.64,20.99 -12.98,41.18 -21.99,60.54 -9.03,19.39 -19.4,37.32 -31.14,53.78 -50.46,70.28 -119.456,110.31 -207.003,120.06 -13.407,1.5 -25.949,1.89 -37.59,1.19 -11.66,-0.67 -26.824,-2.39 -45.496,-5.12 5.34,-9.36 9.84,-17.44 13.476,-24.27 3.625,-6.76 7.274,-13.55 10.907,-20.35 3.617,-6.79 7.785,-14.23 12.484,-22.35 4.672,-8.1 10.008,-17.67 15.957,-28.74 11.219,-21.18 20.781,-39.22 28.711,-54.09 7.93,-14.84 15.41,-28.24 22.469,-40.23 7.05,-11.95 14.152,-23.51 21.285,-34.7 7.144,-11.16 15.121,-23.64 23.98,-37.41 10.34,-14.72 19.801,-28.15 28.453,-40.3 8.614,-12.14 16.489,-22.2 23.586,-30.17" /><path
         id="path18"
         style="fill:#100f0d;fill-opacity:1;fill-rule:nonzero;stroke:none"
         d="m 1194.24,1055.55 c -7.53,9.43 -16.44,17.61 -26.78,24.52 -18.21,12.19 -36.26,15.25 -54.16,9.23 -17.89,-6.06 -35.05,-21.37 -51.52,-45.95 -10.98,-16.4 -20.27,-34.89 -27.93,-55.498 -7.63,-20.606 -13.04,-42.149 -16.22,-64.629 -1.34,-10.535 -2.18,-21.953 -2.5,-34.266 -0.33,-12.305 -0.09,-25.098 0.69,-38.371 0.77,-13.281 1.99,-26.727 3.63,-40.352 1.66,-13.632 3.78,-27.031 6.39,-40.203 4.82,-24.336 11.12,-47.914 18.92,-70.715 7.82,-22.8 16.86,-44.257 27.16,-64.336 9.58,-19.167 19.72,-35.058 30.38,-47.695 10.66,-12.644 22.52,-23.328 35.58,-32.07 40.67,-27.227 76.66,-17.473 107.94,29.277 5.7,8.496 10.66,17.707 14.88,27.625 4.23,9.926 8.02,21.664 11.39,35.238 1.64,7.696 3.17,15.243 4.61,22.637 1.42,7.383 2.71,14.891 3.83,22.488 1.04,9.407 1.77,18.379 2.18,26.887 0.43,8.516 0.65,17.371 0.67,26.59 0.01,9.231 -0.42,19.082 -1.32,29.57 -0.88,10.489 -2.06,22.161 -3.57,35.032 -1.3,11.851 -2.61,22.195 -3.97,31.015 -1.34,8.817 -3,17.176 -4.97,25.078 -1.95,7.911 -4.32,15.86 -7.09,23.875 -2.77,8.008 -6.12,17.286 -10.05,27.832 -3.52,9.825 -6.96,18.496 -10.28,26.008 -3.33,7.488 -6.47,13.992 -9.38,19.473 -7.48,13.789 -16.09,26.355 -25.84,37.73 -9.76,11.36 -19.49,20.3 -29.2,26.81 -27.01,18.08 -49.88,13.15 -68.57,-14.75 -6.3,-9.42 -11.39,-20.974 -15.26,-34.638 -3.88,-13.668 -6.54,-28.816 -8,-45.418 -1.45,-16.601 -1.61,-34.09 -0.49,-52.429 1.15,-18.34 3.81,-36.836 8.02,-55.489 3.13,-15.707 7.07,-30.664 11.85,-44.843 4.78,-14.2 10.03,-27.051 15.73,-38.555 5.71,-11.524 11.77,-21.516 18.17,-29.981 6.43,-8.488 12.83,-14.836 19.2,-19.101 16.69,-11.184 31.33,-7.356 43.93,11.453 5.5,8.195 9.01,19.363 10.56,33.496 1.54,14.121 0.97,30.664 -1.72,49.617 -3,20.473 -7.93,38.051 -14.8,52.758 -6.86,14.707 -15.44,25.516 -25.77,32.422 -1.51,1.016 -4.56,2.391 -9.11,4.121 l 2.3,4.402 c 2.92,-1.523 5.31,-2.89 7.12,-4.121 1.52,-1.015 3.19,-2.129 5.01,-3.34 10.02,-6.707 18.69,-16.582 26.01,-29.609 7.31,-13.047 12.74,-28.418 16.24,-46.16 1.81,-9.113 2.78,-18.34 2.92,-27.668 0.13,-9.317 -0.4,-18.309 -1.58,-26.973 -1.19,-8.664 -2.99,-16.789 -5.44,-24.375 -2.45,-7.586 -5.6,-14.277 -9.46,-20.039 -8.13,-12.148 -17.62,-19.433 -28.46,-21.836 -10.86,-2.402 -22.34,0.457 -34.49,8.582 -10.61,7.114 -20.34,17.883 -29.14,32.309 -8.8,14.441 -16.28,31.824 -22.44,52.168 -6.47,21.844 -11.02,44.609 -13.64,68.277 -2.61,23.656 -3.27,46.645 -1.95,68.977 1.33,22.336 4.45,43.242 9.36,62.734 4.92,19.492 11.73,35.739 20.44,48.739 10.33,15.43 23.43,24.18 39.32,26.25 15.89,2.06 33.1,-3.1 51.61,-15.5 19.44,-13 36.32,-32.758 50.68,-59.243 14.35,-26.504 25.62,-58.926 33.77,-97.285 5.65,-27.023 9.25,-54.648 10.79,-82.863 1.55,-28.231 1.04,-55.418 -1.51,-81.551 -2.55,-26.145 -7.03,-50.227 -13.43,-72.246 -6.41,-22.031 -14.64,-40.606 -24.78,-55.754 -5.07,-7.566 -10.42,-14.402 -16.06,-20.516 -5.62,-6.093 -11.27,-11.41 -16.93,-15.937 -14.91,-12.414 -32.46,-18.625 -52.71,-18.672 -20.25,-0.031 -39.78,6.25 -58.61,18.855 -14.56,9.758 -28.17,23.907 -40.79,42.461 -12.64,18.555 -23.74,40.047 -33.34,64.473 -9.58,24.414 -17.32,50.781 -23.21,79.094 -5.87,28.308 -9.261,57.234 -10.12,86.816 -0.672,23.27 -0.09,45.809 1.77,67.637 1.86,21.816 5.06,41.719 9.66,59.726 4.59,18.008 10.93,36.036 19.06,54.09 8.13,18.045 17.06,34.355 26.81,48.905 17.86,26.68 36.8,43.65 56.8,50.89 20.03,7.23 39.6,4.44 58.72,-8.35 22.16,-14.83 36.86,-35.89 44.1,-63.15 l -5.17,-1.82 c -3.43,10.63 -8.9,20.69 -16.44,30.13" /><path
         id="path20"
         style="fill:#100f0d;fill-opacity:1;fill-rule:nonzero;stroke:none"
         d="m 1028.91,1207.68 1.81,5.15 c 27.26,-7.22 48.32,-21.92 63.16,-44.1 12.8,-19.12 15.57,-38.68 8.34,-58.69 -7.24,-20.02 -24.2,-38.95 -50.89,-56.83 -14.54,-9.73 -30.85,-18.66 -48.9,-26.79 -18.051,-8.14 -36.086,-14.49 -54.09,-19.08 -18.008,-4.57 -37.91,-7.789 -59.731,-9.645 -21.816,-1.863 -44.359,-2.453 -67.652,-1.765 -29.555,0.855 -58.48,4.23 -86.793,10.12 -28.32,5.88 -54.68,13.62 -79.101,23.21 -24.426,9.58 -45.918,20.69 -64.465,33.34 -18.563,12.63 -32.711,26.22 -42.473,40.8 -12.598,18.82 -18.887,38.35 -18.844,58.58 0.035,20.25 6.25,37.82 18.676,52.72 4.516,5.67 9.836,11.31 15.926,16.95 6.113,5.61 12.945,10.98 20.531,16.03 15.129,10.14 33.711,18.39 55.734,24.79 22.032,6.41 46.102,10.88 72.258,13.43 26.125,2.57 53.328,3.08 81.539,1.51 28.223,-1.54 55.844,-5.13 82.871,-10.8 38.352,-8.14 70.786,-19.41 97.282,-33.77 26.482,-14.35 46.232,-31.23 59.252,-50.66 12.38,-18.51 17.55,-35.72 15.5,-51.61 -2.08,-15.9 -10.83,-29 -26.25,-39.32 -13.01,-8.72 -29.256,-15.54 -48.733,-20.44 -19.508,-4.91 -40.41,-8.03 -62.75,-9.37 -22.324,-1.33 -45.32,-0.67 -68.969,1.96 -23.671,2.62 -46.425,7.16 -68.273,13.63 -20.355,6.17 -37.727,13.65 -52.18,22.45 -14.425,8.79 -25.195,18.52 -32.297,29.15 -8.144,12.13 -10.996,23.62 -8.593,34.47 2.414,10.86 9.687,20.33 21.843,28.45 5.766,3.86 12.446,7.02 20.032,9.49 7.593,2.43 15.703,4.24 24.375,5.42 8.668,1.19 17.668,1.72 26.972,1.58 9.332,-0.14 18.551,-1.11 27.672,-2.93 17.731,-3.5 33.121,-8.91 46.168,-16.24 13.008,-7.31 22.895,-15.99 29.594,-26 1.227,-1.82 2.336,-3.48 3.359,-5.01 1.227,-1.81 2.582,-4.2 4.125,-7.13 l -4.406,-2.3 c -1.738,4.56 -3.105,7.61 -4.133,9.13 -6.902,10.31 -17.722,18.9 -32.422,25.77 -14.714,6.87 -32.285,11.79 -52.761,14.8 -18.953,2.68 -35.5,3.27 -49.61,1.71 -14.136,-1.54 -25.304,-5.06 -33.488,-10.56 -18.832,-12.59 -22.652,-27.23 -11.473,-43.93 4.27,-6.37 10.618,-12.77 19.11,-19.2 8.461,-6.4 18.461,-12.46 29.976,-18.17 11.5,-5.7 24.356,-10.94 38.555,-15.72 14.176,-4.78 29.141,-8.73 44.848,-11.84 18.652,-4.24 37.144,-6.9 55.484,-8.03 18.336,-1.13 35.816,-0.96 52.438,0.48 16.593,1.45 31.75,4.12 45.429,8 13.653,3.88 25.208,8.95 34.608,15.26 27.92,18.69 32.85,41.55 14.76,68.58 -6.51,9.7 -15.44,19.43 -26.81,29.19 -11.362,9.74 -23.937,18.37 -37.734,25.84 -5.488,2.92 -11.964,6.06 -19.472,9.39 -7.5,3.31 -16.184,6.75 -26.004,10.26 -10.539,3.95 -19.824,7.29 -27.82,10.06 -8.028,2.77 -15.969,5.14 -23.887,7.1 -7.895,1.96 -16.25,3.62 -25.09,4.97 -8.813,1.34 -19.148,2.67 -31.004,3.97 -12.871,1.49 -24.547,2.69 -35.039,3.56 -10.48,0.9 -20.336,1.34 -29.555,1.33 -9.226,-0.02 -18.082,-0.25 -26.59,-0.67 -8.519,-0.43 -17.488,-1.16 -26.886,-2.19 -7.614,-1.12 -15.098,-2.39 -22.489,-3.83 -7.398,-1.42 -14.945,-2.97 -22.64,-4.6 -13.574,-3.38 -25.32,-7.16 -35.231,-11.4 -9.925,-4.22 -19.14,-9.18 -27.625,-14.87 -46.75,-31.3 -56.507,-67.28 -29.281,-107.94 8.75,-13.06 19.426,-24.93 32.07,-35.59 12.618,-10.66 28.516,-20.78 47.688,-30.38 20.074,-10.28 41.519,-19.35 64.344,-27.14 22.8,-7.81 46.367,-14.12 70.691,-18.94 13.18,-2.6 26.582,-4.72 40.219,-6.38 13.625,-1.63 27.078,-2.86 40.359,-3.65 13.262,-0.77 26.067,-1 38.364,-0.66 12.32,0.3 23.73,1.13 34.277,2.48 22.476,3.18 44.019,8.6 64.625,16.24 20.6,7.64 39.1,16.94 55.49,27.92 24.59,16.47 39.88,33.63 45.95,51.52 6.04,17.9 2.97,35.96 -9.23,54.16 -6.92,10.33 -15.08,19.25 -24.51,26.78 -9.45,7.54 -19.49,13.01 -30.13,16.44" /><path
         id="path22"
         style="fill:#000000;fill-opacity:1;fill-rule:nonzero;stroke:none"
         d="m 1530.62,692.012 c 8.75,8.75 22.95,8.761 31.71,0 8.75,-8.75 8.75,-22.949 -0.01,-31.707 -8.75,-8.742 -22.95,-8.742 -31.69,0 -8.76,8.758 -8.75,22.957 -0.01,31.707" /><path
         id="path24"
         style="fill:#000000;fill-opacity:1;fill-rule:nonzero;stroke:none"
         d="m 1149.04,891.328 c 6.12,6.121 16.06,6.133 22.19,0.012 6.13,-6.145 6.13,-16.074 -0.01,-22.207 -6.13,-6.125 -16.06,-6.125 -22.18,0 -6.13,6.133 -6.13,16.062 0,22.195" /><path
         id="path26"
         style="fill:#000000;fill-opacity:1;fill-rule:nonzero;stroke:none"
         d="m 873.691,1171.05 c 6.125,6.12 16.071,6.13 22.192,0 6.133,-6.14 6.125,-16.07 0,-22.2 -6.121,-6.12 -16.059,-6.12 -22.192,0.01 -6.128,6.13 -6.128,16.05 0,22.19" /><path
         id="path28"
         style="fill:#000000;fill-opacity:1;fill-rule:nonzero;stroke:none"
         d="m 670.117,1562.92 c 8.742,8.74 22.946,8.75 31.684,0 8.765,-8.76 8.765,-22.96 0.015,-31.71 -8.75,-8.75 -22.949,-8.75 -31.707,0.01 -8.746,8.75 -8.746,22.94 0.008,31.7" /><path
         id="path30"
         style="fill:#000000;fill-opacity:1;fill-rule:nonzero;stroke:none"
         d="M 946.344,542.492 H 543.086 l 0.016,397.305 5.925,0.008 -5.925,-0.008 -0.016,5.945 h 403.258 v -403.25 z m -11.891,11.883 V 933.859 H 554.984 l -0.007,-379.484 h 379.476 v 0" /><path
         id="path32"
         style="fill:#000000;fill-opacity:1;fill-rule:nonzero;stroke:none"
         d="m 906.719,582.109 -324.004,0.02 0.012,323.984 318.039,0.012 h 5.941 l 0.012,-324.016 z m -5.953,318.079 h -5.95 5.95 z m -5.942,-306.184 -0.015,300.234 H 594.621 l -0.016,-300.215 300.219,-0.019 v 0" /><path
         id="path34"
         style="fill:#000000;fill-opacity:1;fill-rule:nonzero;stroke:none"
         d="m 867.09,621.73 -244.746,0.04 -0.008,244.722 238.781,-0.008 h 5.938 L 867.09,621.73 Z m -5.973,238.805 -5.949,-0.008 5.949,0.008 z m -5.918,-226.902 -0.031,220.949 -220.926,0.008 -0.008,-220.93 220.965,-0.027 v 0" /><path
         id="path36"
         style="fill:#100f0d;fill-opacity:1;fill-rule:nonzero;stroke:none"
         d="m 1307.16,7117.7 c 4.84,43.39 18.93,87.29 42.21,131.71 -16.46,24.16 -27.6,54.9 -33.44,92.19 -5.81,37.31 -6.13,79.19 -0.98,125.63 11.5,103.13 50.99,206.7 118.46,310.75 29.89,46.07 62.18,86.91 96.88,122.5 34.71,35.57 75.45,69.88 122.25,102.94 60.65,42.65 118.01,71.93 172.07,87.83 54.07,15.89 110.29,20.57 168.64,14.07 5.54,-0.6 11.45,-1.27 17.75,-1.97 5.52,-0.62 13.77,-1.91 24.72,-3.94 l 7.88,17.03 c 33.76,73.58 67.07,129.05 99.97,166.42 32.91,37.37 65.93,54.2 99.06,50.52 29.97,-3.35 51.87,-18.17 65.71,-44.45 13.84,-26.28 18.25,-61.93 13.25,-106.88 -3.87,-34.69 -13.77,-71.32 -29.7,-109.88 -15.93,-38.54 -36.46,-76.78 -61.56,-114.7 10.57,-20.34 18.79,-37.01 24.55,-50.05 5.77,-13.01 10.48,-24.91 14.08,-35.69 7.33,-20.77 12.37,-41.91 15.2,-63.38 2.78,-21.46 2.88,-44.03 0.24,-67.69 -6.06,-54.43 -21.57,-96.42 -46.51,-125.97 -24.96,-29.56 -55.66,-42.32 -92.14,-38.24 -29.34,3.25 -54.84,15.89 -76.49,37.86 -21.63,21.99 -41.58,55.53 -59.83,100.67 l -9.4,-8.53 -18.37,-13.52 c -9.58,-6.9 -18.34,-13.52 -26.27,-19.82 -7.93,-6.31 -16.05,-12.6 -24.39,-18.86 -8.33,-6.26 -17.27,-12.83 -26.88,-19.75 -9.6,-6.91 -20.89,-14.45 -33.84,-22.59 -11.26,-7.5 -19.69,-12.93 -25.28,-16.27 -5.6,-3.34 -13.15,-8.07 -22.66,-14.16 3.84,-16.31 6.18,-31.28 7.03,-44.87 0.84,-13.61 0.12,-30.62 -2.15,-51.04 -5.17,-46.27 -18.4,-89.89 -39.73,-130.83 -21.32,-40.91 -47.78,-76.1 -79.43,-105.54 -31.6,-29.46 -66.84,-51.75 -105.66,-66.9 -38.82,-15.14 -78.33,-20.48 -118.55,-16 -51.26,5.7 -92.27,28.2 -123.03,67.49 -23.4,-38.06 -37.64,-79.93 -42.75,-125.67 -2.02,-18.14 -2.25,-34.67 -0.73,-49.64 1.54,-14.93 4.92,-31.08 10.18,-48.44 l -7.64,-3.93 c -6.82,24.71 -11.15,44.94 -12.99,60.74 -1.83,15.77 -1.73,32.72 0.27,50.85 z m 939.93,1191.22 c -15.77,1.76 -33.01,-2.49 -51.74,-12.8 -18.69,-10.29 -37.1,-25.01 -55.21,-44.16 -18.1,-19.13 -35.01,-42 -50.75,-68.6 -15.74,-26.57 -28.92,-55.26 -39.53,-86.02 34.78,-10.26 65.86,-25.31 93.18,-45.1 27.35,-19.82 52.04,-45.35 74.12,-76.54 28.67,42.32 49.71,78.92 63.13,109.75 13.42,30.84 21.96,62.82 25.66,95.96 4.21,37.84 1.18,67.95 -9.12,90.23 -10.27,22.31 -26.85,34.73 -49.74,37.28 z m -921.7,-855.49 c -8.34,-74.92 3.53,-136.94 35.58,-186.02 9.74,15.69 17.69,27.97 23.87,36.88 6.19,8.87 14.79,19.9 25.84,33.03 10.09,11.67 19.94,23.14 29.57,34.45 9.66,11.32 19.92,22.74 30.79,34.3 25.33,26.72 50.91,50.21 76.71,70.49 25.82,20.3 57.27,42.73 94.34,67.35 13.77,8.86 26.62,16.8 38.58,23.84 11.98,7.05 23.49,13.56 34.51,19.53 l 61.26,33.89 16.7,10.11 c -19.07,50.84 -52.68,78.93 -100.8,84.29 -28.38,3.16 -55.39,-1.01 -81.05,-12.53 -25.62,-11.52 -47.03,-29.88 -64.22,-55.13 l -6.7,4.35 c 19.12,28.21 42.21,49.19 69.29,62.94 27.1,13.75 55.61,18.94 85.59,15.61 51.27,-5.7 88.13,-36.55 110.65,-92.56 l 12.88,8.16 58.76,32.98 c 5.97,3.32 13.47,7.88 22.49,13.64 9.02,5.8 19.6,12.79 31.69,21.03 12.97,8.95 24,16.69 33.13,23.26 9.1,6.59 16.7,11.91 22.74,16.03 1.77,1.41 3.72,2.78 5.85,4.13 2.15,1.39 4.98,3.46 8.47,6.25 -3.32,13.16 -5.68,25.79 -7.14,37.92 -1.45,12.16 -2.29,24.21 -2.55,36.22 -0.26,11.99 0.18,24.95 1.31,38.79 1.15,13.84 2.74,29.82 4.76,47.97 3.25,29.17 6.85,54.33 10.79,75.46 3.97,21.1 10.67,45.51 20.14,73.2 -8.59,1.76 -15.2,3.3 -19.85,4.6 -4.65,1.33 -10.12,2.34 -16.43,3.03 -54.42,6.06 -108.06,1.26 -160.9,-14.42 -52.84,-15.68 -109.04,-43.34 -168.54,-83.03 -45.76,-30.82 -85.87,-63.09 -120.37,-96.78 -34.49,-33.68 -66.59,-72.82 -96.32,-117.41 -33.67,-51.37 -60.9,-104.19 -81.74,-158.6 -20.82,-54.35 -34.05,-106.77 -39.68,-157.25 z m 682.09,457 c -3.07,-27.6 -4.12,-51.44 -3.18,-71.51 0.97,-20.06 3.71,-41.92 8.27,-65.6 l 15.64,11.44 c 27.8,20.08 50.09,37.53 66.93,52.42 16.82,14.91 32.87,29.89 48.12,44.94 12.55,12.2 23.17,23.39 31.88,33.58 8.74,10.23 20.6,25.27 35.58,45.16 -12.62,15.76 -22.68,27.67 -30.16,35.68 -7.49,8.03 -17.53,16.33 -30.15,24.92 -16.2,12.19 -32.7,22.03 -49.44,29.46 -16.72,7.47 -35.96,14.01 -57.69,19.6 -9.3,-26.09 -16.76,-51.81 -22.37,-77.15 -5.61,-25.32 -10.09,-52.97 -13.43,-82.94 z m 61.88,-143.42 c -8.07,-7.89 -14.99,-14.69 -20.85,-20.45 -5.82,-5.72 -14.47,-13.54 -25.96,-23.45 10.08,-31.46 25.75,-57.37 47.04,-77.7 21.29,-20.34 45.35,-32 72.16,-34.98 35.49,-3.97 64.64,5.19 87.48,27.38 22.84,22.21 36.76,55.8 41.77,100.74 3.94,35.49 1.74,69.48 -6.62,101.94 -8.35,32.49 -23.34,66.29 -44.99,101.44 l -8.55,-12.23 c -11.48,-17.07 -22.57,-32.41 -33.27,-46.01 -10.68,-13.56 -21.52,-26.53 -32.48,-38.89 -10.95,-12.35 -22.54,-24.83 -34.72,-37.46 -12.17,-12.59 -25.84,-26.04 -41.01,-40.33 z m -593.73,-395 c -19.36,-16.2 -38.43,-35.04 -57.2,-56.51 -18.75,-21.44 -33.98,-41.51 -45.64,-60.18 13.77,-12.71 25.96,-21.45 36.61,-26.24 10.65,-4.76 25.83,-8.27 45.55,-10.45 18.93,-2.11 38.89,-2.13 59.87,-0.09 20.98,2.07 41.98,5.91 62.97,11.56 20.98,5.64 41.17,12.97 60.54,21.99 19.38,9.03 37.3,19.4 53.76,31.14 70.3,50.47 110.33,119.46 120.07,207 1.5,13.42 1.9,25.96 1.2,37.59 -0.68,11.66 -2.41,26.84 -5.12,45.48 -9.36,-5.32 -17.45,-9.81 -24.26,-13.44 -6.78,-3.65 -13.56,-7.28 -20.36,-10.92 -6.79,-3.62 -14.24,-7.79 -22.35,-12.49 -8.12,-4.66 -17.68,-10 -28.73,-15.95 -21.2,-11.21 -39.24,-20.79 -54.1,-28.71 -14.85,-7.93 -28.25,-15.41 -40.24,-22.47 -11.94,-7.05 -23.52,-14.15 -34.7,-21.28 -11.16,-7.15 -23.64,-15.13 -37.42,-23.99 -14.7,-10.32 -28.13,-19.79 -40.28,-28.44 -12.14,-8.62 -22.19,-16.49 -30.17,-23.6" /><path
         id="path38"
         style="fill:#100f0d;fill-opacity:1;fill-rule:nonzero;stroke:none"
         d="m 1267.04,7026.99 c 15.77,-1.83 36.01,-6.17 60.73,-13 l -3.95,-7.61 c -17.34,5.24 -33.5,8.63 -48.43,10.17 -14.96,1.51 -31.5,1.29 -49.63,-0.74 -45.74,-5.1 -87.63,-19.35 -125.67,-42.74 39.29,-30.75 61.78,-71.77 67.47,-123.04 4.49,-40.21 -0.85,-79.73 -16,-118.55 -15.12,-38.81 -37.42,-74.06 -66.88,-105.67 -29.44,-31.62 -64.62,-58.1 -105.543,-79.41 -40.934,-21.33 -84.563,-34.57 -130.844,-39.73 -20.418,-2.26 -37.43,-3 -51.023,-2.16 -13.598,0.86 -28.575,3.2 -44.868,7.04 -6.097,-9.51 -10.82,-17.06 -14.168,-22.65 -3.347,-5.6 -8.765,-14.02 -16.281,-25.29 -8.121,-12.95 -15.683,-24.25 -22.578,-33.84 -6.918,-9.6 -13.5,-18.56 -19.762,-26.9 -6.254,-8.31 -12.543,-16.45 -18.832,-24.37 -6.308,-7.93 -12.933,-16.7 -19.84,-26.27 l -13.523,-18.37 -8.531,-9.39 c 45.14,-18.28 78.707,-38.21 100.687,-59.84 21.965,-21.65 34.586,-47.15 37.86,-76.47 4.054,-36.51 -8.684,-67.2 -38.258,-92.15 -29.551,-24.94 -71.528,-40.46 -125.961,-46.52 -23.668,-2.65 -46.238,-2.54 -67.692,0.23 -21.496,2.84 -42.609,7.88 -63.375,15.19 -10.789,3.62 -22.679,8.32 -35.699,14.11 -13.035,5.76 -29.703,13.95 -50.047,24.55 -37.929,-25.12 -76.172,-45.63 -114.707,-61.57 -38.554,-15.93 -75.175,-25.84 -109.879,-29.7 -44.945,-5.01 -80.5855,-0.6 -106.8746,13.26 -26.293,13.83 -41.10156,35.73 -44.4414,65.71 -3.69922,33.11 13.1484,66.14 50.5156,99.04 37.375,32.91 92.8434,66.21 166.4104,99.98 l 17.043,7.89 c -2.016,10.94 -3.332,19.18 -3.949,24.71 -0.7,6.29 -1.356,12.21 -1.969,17.74 -6.504,58.35 -1.821,114.58 14.066,168.65 15.891,54.05 45.176,111.42 87.844,172.07 33.035,46.79 67.352,87.54 102.937,122.24 35.582,34.71 76.411,67 122.5,96.9 104.047,67.45 207.618,106.96 310.762,118.45 46.422,5.17 88.305,4.83 125.617,-0.98 37.293,-5.86 68.033,-17 92.173,-33.46 44.43,23.31 88.34,37.39 131.71,42.23 18.14,2 35.11,2.1 50.88,0.26 z M 62.2305,6037.06 c 22.2929,-10.3 52.3785,-13.33 90.2425,-9.12 33.125,3.7 65.117,12.24 95.957,25.65 30.84,13.42 67.414,34.47 109.746,63.13 -31.203,22.09 -56.727,46.79 -76.531,74.13 -19.809,27.31 -34.852,58.38 -45.11,93.19 -30.762,-10.62 -59.453,-23.81 -86.031,-39.54 -26.594,-15.73 -49.473,-32.65 -68.6056,-50.76 -19.1484,-18.11 -33.8515,-36.5 -44.1445,-55.21 -10.3125,-18.73 -14.5586,-35.97 -12.7969,-51.71 2.5391,-22.9 14.9688,-39.48 37.2735,-49.76 z M 723.18,6968.83 c -54.387,-20.85 -107.231,-48.09 -158.571,-81.75 -44.589,-29.72 -83.75,-61.83 -117.429,-96.34 -33.692,-34.47 -65.95,-74.61 -96.778,-120.34 -39.687,-59.52 -67.359,-115.7 -83.039,-168.55 -15.668,-52.85 -20.472,-106.48 -14.414,-160.89 0.699,-6.32 1.715,-11.8 3.028,-16.44 1.32,-4.64 2.855,-11.26 4.621,-19.84 27.679,9.48 52.078,16.16 73.191,20.14 21.129,3.94 46.281,7.54 75.453,10.79 18.137,2.02 34.137,3.6 47.977,4.73 13.832,1.14 26.777,1.59 38.789,1.34 12.015,-0.26 24.074,-1.11 36.211,-2.54 12.136,-1.47 24.769,-3.85 37.922,-7.18 2.804,3.5 4.871,6.33 6.246,8.5 1.347,2.12 2.726,4.07 4.133,5.84 4.132,6.04 9.46,13.62 16.035,22.74 6.554,9.12 14.316,20.16 23.246,33.13 8.246,12.09 15.242,22.65 21.035,31.7 5.769,9.01 10.332,16.49 13.668,22.47 l 32.969,58.78 8.148,12.87 c -55.992,22.52 -86.855,59.37 -92.558,110.66 -3.34,29.98 1.863,58.49 15.609,85.58 13.75,27.06 34.738,50.16 62.933,69.29 l 4.348,-6.7 c -25.238,-17.19 -43.609,-38.61 -55.117,-64.22 -11.523,-25.67 -15.707,-52.66 -12.551,-81.06 5.367,-48.12 33.469,-81.72 84.297,-100.8 l 10.129,16.71 33.891,61.23 c 5.957,11.05 12.461,22.55 19.515,34.53 7.047,11.97 14.988,24.82 23.848,38.6 24.609,37.06 47.051,68.51 67.34,94.31 20.277,25.81 43.765,51.4 70.508,76.74 11.542,10.85 22.98,21.12 34.296,30.76 11.293,9.65 22.778,19.5 34.434,29.59 13.127,11.05 24.157,19.64 33.047,25.84 8.9,6.18 21.2,14.13 36.87,23.85 -49.08,32.07 -111.089,43.94 -186.015,35.59 -50.48,-5.63 -102.906,-18.86 -157.265,-39.66 z M 340.496,6312.99 c -25.324,-5.65 -51.047,-13.09 -77.152,-22.39 5.601,-21.73 12.156,-40.96 19.613,-57.69 7.438,-16.74 17.25,-33.23 29.441,-49.42 8.598,-12.63 16.903,-22.68 24.922,-30.17 8.028,-7.48 19.926,-17.53 35.692,-30.14 19.902,14.98 34.929,26.83 45.148,35.56 10.195,8.72 21.375,19.34 33.578,31.87 15.063,15.25 30.055,31.32 44.946,48.15 14.894,16.81 32.355,39.11 52.433,66.92 l 11.434,15.64 c -23.68,4.55 -45.535,7.31 -65.594,8.26 -20.07,0.95 -43.922,-0.1 -71.508,-3.17 -29.988,-3.34 -57.636,-7.82 -82.953,-13.42 z m 186.039,-89.48 c -12.633,-12.17 -25.113,-23.75 -37.457,-34.7 -12.371,-10.96 -25.332,-21.82 -38.906,-32.48 -13.59,-10.71 -28.918,-21.79 -46,-33.28 l -12.234,-8.56 c 35.144,-21.64 68.957,-36.62 101.437,-44.99 32.48,-8.35 66.461,-10.55 101.941,-6.6 44.954,4.99 78.532,18.91 100.739,41.77 22.203,22.82 31.343,51.98 27.398,87.47 -2.992,26.82 -14.648,50.86 -34.992,72.16 -20.332,21.27 -46.238,36.97 -77.707,47.04 -9.91,-11.5 -17.715,-20.15 -23.449,-25.96 -5.75,-5.85 -12.547,-12.77 -20.43,-20.86 -14.293,-15.17 -27.75,-28.82 -40.34,-41.01 z m 411.738,604.58 c -8.652,-12.15 -18.113,-25.58 -28.453,-40.3 -8.859,-13.76 -16.836,-26.25 -23.98,-37.41 -7.133,-11.18 -14.235,-22.74 -21.285,-34.68 -7.059,-12 -14.539,-25.4 -22.469,-40.24 -7.93,-14.87 -17.492,-32.92 -28.711,-54.1 -5.949,-11.06 -11.285,-20.63 -15.957,-28.74 -4.699,-8.12 -8.867,-15.56 -12.484,-22.33 -3.633,-6.81 -7.282,-13.61 -10.907,-20.38 -3.636,-6.82 -8.136,-14.9 -13.476,-24.27 18.672,-2.72 33.836,-4.44 45.496,-5.11 11.641,-0.71 24.183,-0.3 37.59,1.19 87.547,9.76 156.543,49.78 207.003,120.06 11.74,16.46 22.11,34.39 31.14,53.78 9.01,19.35 16.35,39.56 21.99,60.53 5.64,21 9.51,41.98 11.57,62.98 2.04,20.98 2.02,40.96 -0.09,59.87 -2.2,19.71 -5.68,34.89 -10.45,45.55 -4.8,10.65 -13.55,22.83 -26.25,36.6 -18.66,-11.66 -38.74,-26.87 -60.19,-45.63 -21.469,-18.77 -40.301,-37.84 -56.501,-57.19 -7.097,-7.98 -14.972,-18.04 -23.586,-30.18" /><path
         id="path40"
         style="fill:#100f0d;fill-opacity:1;fill-rule:nonzero;stroke:none"
         d="m 1210.68,7308.46 5.17,-1.82 c -7.24,-27.25 -21.94,-48.31 -44.1,-63.14 -19.12,-12.82 -38.69,-15.59 -58.72,-8.35 -20,7.23 -38.94,24.2 -56.8,50.88 -9.75,14.54 -18.68,30.85 -26.81,48.9 -8.13,18.06 -14.47,36.09 -19.06,54.09 -4.6,18.01 -7.8,37.91 -9.66,59.74 -1.86,21.81 -2.442,44.36 -1.77,67.63 0.859,29.59 4.25,58.5 10.12,86.81 5.89,28.32 13.63,54.69 23.21,79.1 9.6,24.43 20.7,45.91 33.34,64.47 12.62,18.55 26.23,32.7 40.79,42.46 18.83,12.62 38.36,18.9 58.61,18.86 20.25,-0.05 37.8,-6.27 52.71,-18.66 5.66,-4.55 11.31,-9.87 16.93,-15.95 5.64,-6.12 10.99,-12.94 16.06,-20.52 10.14,-15.14 18.37,-33.73 24.78,-55.75 6.4,-22.02 10.88,-46.1 13.43,-72.25 2.55,-26.12 3.06,-53.32 1.51,-81.55 -1.54,-28.21 -5.14,-55.83 -10.79,-82.86 -8.15,-38.36 -19.42,-70.78 -33.77,-97.29 -14.36,-26.47 -31.24,-46.23 -50.68,-59.24 -18.51,-12.39 -35.72,-17.57 -51.61,-15.5 -15.89,2.08 -28.99,10.82 -39.32,26.26 -8.71,12.99 -15.52,29.24 -20.44,48.73 -4.91,19.49 -8.03,40.4 -9.36,62.74 -1.32,22.32 -0.66,45.31 1.95,68.98 2.62,23.66 7.17,46.42 13.64,68.28 6.16,20.32 13.64,37.72 22.44,52.15 8.8,14.44 18.53,25.2 29.14,32.31 12.15,8.12 23.63,10.98 34.49,8.57 10.84,-2.39 20.33,-9.67 28.46,-21.81 3.86,-5.77 7.01,-12.46 9.46,-20.05 2.45,-7.59 4.25,-15.72 5.44,-24.38 1.18,-8.66 1.71,-17.64 1.58,-26.97 -0.14,-9.31 -1.11,-18.54 -2.92,-27.67 -3.5,-17.73 -8.93,-33.11 -16.24,-46.15 -7.32,-13.03 -15.99,-22.91 -26.01,-29.62 -1.82,-1.21 -3.49,-2.32 -5.01,-3.35 -1.81,-1.22 -4.2,-2.58 -7.12,-4.11 l -2.3,4.41 c 4.55,1.73 7.6,3.09 9.11,4.12 10.33,6.9 18.91,17.71 25.77,32.41 6.87,14.73 11.8,32.29 14.8,52.77 2.69,18.96 3.26,35.49 1.72,49.61 -1.55,14.13 -5.06,25.32 -10.56,33.5 -12.6,18.82 -27.24,22.64 -43.93,11.46 -6.37,-4.27 -12.77,-10.62 -19.2,-19.12 -6.4,-8.45 -12.46,-18.45 -18.17,-29.97 -5.7,-11.5 -10.95,-24.35 -15.73,-38.55 -4.78,-14.18 -8.72,-29.14 -11.85,-44.85 -4.21,-18.66 -6.87,-37.15 -8.02,-55.49 -1.12,-18.32 -0.96,-35.82 0.49,-52.42 1.46,-16.61 4.12,-31.76 8,-45.43 3.87,-13.66 8.96,-25.21 15.26,-34.61 18.69,-27.93 41.56,-32.85 68.57,-14.76 9.71,6.5 19.44,15.44 29.2,26.79 9.75,11.38 18.36,23.95 25.84,37.75 2.91,5.48 6.05,11.98 9.38,19.46 3.32,7.51 6.76,16.19 10.28,26.01 3.93,10.55 7.28,19.83 10.05,27.84 2.77,8.02 5.14,15.96 7.09,23.87 1.97,7.91 3.63,16.27 4.97,25.09 1.36,8.8 2.67,19.16 3.97,31.01 1.51,12.86 2.69,24.54 3.57,35.03 0.9,10.49 1.33,20.34 1.32,29.57 -0.02,9.22 -0.24,18.07 -0.67,26.58 -0.41,8.51 -1.14,17.48 -2.18,26.9 -1.12,7.59 -2.41,15.11 -3.83,22.49 -1.44,7.39 -2.97,14.93 -4.61,22.62 -3.37,13.58 -7.16,25.32 -11.39,35.24 -4.22,9.92 -9.18,19.14 -14.88,27.63 -31.28,46.75 -67.27,56.5 -107.94,29.27 -13.06,-8.74 -24.92,-19.42 -35.58,-32.07 -10.66,-12.63 -20.8,-28.52 -30.38,-47.68 -10.3,-20.09 -19.34,-41.54 -27.16,-64.35 -7.8,-22.8 -14.1,-46.38 -18.92,-70.71 -2.61,-13.17 -4.73,-26.56 -6.39,-40.2 -1.64,-13.62 -2.86,-27.08 -3.63,-40.36 -0.78,-13.27 -1.02,-26.06 -0.69,-38.36 0.32,-12.32 1.16,-23.74 2.5,-34.27 3.18,-22.48 8.59,-44.04 16.22,-64.63 7.66,-20.61 16.95,-39.1 27.93,-55.5 16.47,-24.58 33.63,-39.89 51.52,-45.95 17.9,-6.03 35.95,-2.96 54.16,9.23 10.34,6.91 19.25,15.09 26.78,24.52 7.54,9.44 13.01,19.49 16.44,30.13" /><path
         id="path42"
         style="fill:#100f0d;fill-opacity:1;fill-rule:nonzero;stroke:none"
         d="m 1059.04,7142.64 c 9.43,7.53 17.59,16.45 24.51,26.77 12.2,18.21 15.27,36.27 9.23,54.16 -6.07,17.89 -21.36,35.06 -45.95,51.54 -16.39,10.98 -34.89,20.27 -55.49,27.91 -20.606,7.64 -42.149,13.05 -64.625,16.23 -10.547,1.36 -21.957,2.19 -34.277,2.49 -12.297,0.34 -25.102,0.12 -38.364,-0.67 -13.281,-0.78 -26.734,-2.01 -40.359,-3.64 -13.637,-1.65 -27.039,-3.79 -40.219,-6.39 -24.324,-4.8 -47.891,-11.11 -70.691,-18.93 -22.825,-7.79 -44.27,-16.86 -64.344,-27.14 -19.172,-9.59 -35.07,-19.72 -47.688,-30.38 -12.644,-10.65 -23.32,-22.53 -32.07,-35.57 -27.226,-40.67 -17.469,-76.65 29.281,-107.97 8.485,-5.68 17.7,-10.64 27.625,-14.87 9.911,-4.23 21.657,-8.02 35.231,-11.39 7.695,-1.63 15.242,-3.17 22.64,-4.6 7.391,-1.43 14.875,-2.71 22.489,-3.83 9.398,-1.04 18.367,-1.77 26.886,-2.19 8.508,-0.42 17.364,-0.64 26.59,-0.66 9.219,-0.01 19.075,0.42 29.555,1.31 10.492,0.88 22.168,2.07 35.039,3.56 11.856,1.31 22.191,2.64 31.004,3.98 8.84,1.35 17.195,3.01 25.09,4.96 7.918,1.98 15.859,4.35 23.887,7.11 7.996,2.77 17.281,6.12 27.82,10.06 9.82,3.51 18.504,6.95 26.004,10.26 7.508,3.34 13.984,6.47 19.472,9.39 13.797,7.47 26.372,16.09 37.734,25.84 11.37,9.76 20.3,19.48 26.81,29.19 18.09,27.03 13.16,49.89 -14.76,68.6 -9.4,6.28 -20.955,11.37 -34.608,15.25 -13.679,3.87 -28.836,6.54 -45.429,8 -16.622,1.43 -34.102,1.61 -52.438,0.47 -18.34,-1.13 -36.832,-3.79 -55.484,-8.02 -15.707,-3.12 -30.672,-7.07 -44.848,-11.85 -14.199,-4.78 -27.055,-10.03 -38.555,-15.72 -11.515,-5.71 -21.515,-11.76 -29.976,-18.17 -8.492,-6.43 -14.84,-12.83 -19.11,-19.2 -11.179,-16.71 -7.359,-31.33 11.473,-43.93 8.184,-5.49 19.352,-9.01 33.488,-10.57 14.11,-1.54 30.657,-0.96 49.61,1.73 20.476,3 38.047,7.92 52.761,14.8 14.7,6.85 25.52,15.44 32.422,25.76 1.028,1.53 2.395,4.57 4.133,9.13 l 4.406,-2.29 c -1.543,-2.95 -2.898,-5.33 -4.125,-7.14 -1.023,-1.53 -2.132,-3.19 -3.359,-5 -6.699,-10.02 -16.586,-18.7 -29.594,-26.02 -13.047,-7.31 -28.437,-12.72 -46.168,-16.23 -9.121,-1.82 -18.34,-2.79 -27.672,-2.93 -9.304,-0.13 -18.304,0.39 -26.972,1.57 -8.672,1.2 -16.782,3 -24.375,5.44 -7.586,2.45 -14.266,5.62 -20.032,9.47 -12.156,8.14 -19.429,17.61 -21.843,28.46 -2.403,10.85 0.449,22.34 8.593,34.47 7.102,10.63 17.872,20.36 32.297,29.14 14.453,8.81 31.825,16.29 52.18,22.47 21.848,6.46 44.602,11.01 68.273,13.62 23.649,2.64 46.645,3.28 68.969,1.96 22.34,-1.33 43.242,-4.46 62.75,-9.37 19.477,-4.91 35.723,-11.72 48.733,-20.44 15.42,-10.33 24.17,-23.42 26.25,-39.32 2.05,-15.88 -3.12,-33.1 -15.5,-51.61 -13.02,-19.42 -32.77,-36.31 -59.252,-50.66 -26.496,-14.36 -58.93,-25.63 -97.282,-33.77 -27.027,-5.66 -54.648,-9.26 -82.871,-10.81 -28.211,-1.55 -55.414,-1.04 -81.539,1.53 -26.156,2.55 -50.226,7.01 -72.258,13.42 -22.023,6.39 -40.605,14.66 -55.734,24.78 -7.586,5.06 -14.418,10.44 -20.531,16.05 -6.09,5.64 -11.41,11.27 -15.926,16.93 -12.426,14.91 -18.641,32.49 -18.676,52.72 -0.043,20.25 6.246,39.77 18.844,58.59 9.762,14.58 23.91,28.17 42.473,40.81 18.547,12.65 40.039,23.75 64.465,33.34 24.421,9.58 50.781,17.32 79.101,23.2 28.313,5.89 57.238,9.26 86.793,10.12 23.293,0.68 45.836,0.1 67.652,-1.76 21.821,-1.87 41.723,-5.07 59.731,-9.66 18.004,-4.58 36.039,-10.93 54.09,-19.07 18.05,-8.14 34.36,-17.05 48.9,-26.8 26.69,-17.87 43.65,-36.8 50.89,-56.81 7.23,-20.01 4.46,-39.58 -8.34,-58.7 -14.84,-22.18 -35.9,-36.88 -63.16,-44.1 l -1.81,5.16 c 10.64,3.42 20.68,8.89 30.13,16.43" /><path
         id="path44"
         style="fill:#000000;fill-opacity:1;fill-rule:nonzero;stroke:none"
         d="m 1530.62,7641.87 c 8.75,-8.75 22.95,-8.76 31.71,0 8.75,8.75 8.75,22.95 -0.01,31.7 -8.75,8.75 -22.95,8.75 -31.69,0 -8.76,-8.75 -8.75,-22.95 -0.01,-31.7" /><path
         id="path46"
         style="fill:#000000;fill-opacity:1;fill-rule:nonzero;stroke:none"
         d="m 1149.04,7442.56 c 6.12,-6.13 16.06,-6.14 22.19,-0.01 6.13,6.13 6.13,16.06 -0.01,22.19 -6.13,6.12 -16.06,6.12 -22.18,0 -6.13,-6.13 -6.13,-16.06 0,-22.18" /><path
         id="path48"
         style="fill:#000000;fill-opacity:1;fill-rule:nonzero;stroke:none"
         d="m 873.691,7162.83 c 6.125,-6.12 16.071,-6.12 22.192,0 6.133,6.12 6.125,16.08 0,22.2 -6.121,6.12 -16.059,6.12 -22.192,-0.01 -6.128,-6.12 -6.128,-16.07 0,-22.19" /><path
         id="path50"
         style="fill:#000000;fill-opacity:1;fill-rule:nonzero;stroke:none"
         d="m 670.117,6770.97 c 8.742,-8.75 22.946,-8.76 31.684,-0.01 8.765,8.76 8.765,22.96 0.015,31.71 -8.75,8.76 -22.949,8.76 -31.707,0 -8.746,-8.76 -8.746,-22.95 0.008,-31.7" /><path
         id="path52"
         style="fill:#000000;fill-opacity:1;fill-rule:nonzero;stroke:none"
         d="M 946.344,7791.4 V 7388.14 H 543.086 l 0.016,5.94 5.925,-0.01 -5.925,0.01 -0.016,397.32 h 403.258 z m -11.891,-11.9 H 554.977 l 0.007,-379.47 h 379.469 v 379.47 0" /><path
         id="path54"
         style="fill:#000000;fill-opacity:1;fill-rule:nonzero;stroke:none"
         d="m 906.719,7751.77 -0.012,-324 h -5.941 -318.039 l -0.012,323.98 324.004,0.02 z m -5.953,-318.08 h -5.95 5.95 z m -5.942,306.18 -300.219,-0.01 0.016,-300.21 h 300.188 l 0.015,300.22 v 0" /><path
         id="path56"
         style="fill:#000000;fill-opacity:1;fill-rule:nonzero;stroke:none"
         d="m 867.09,7712.15 -0.035,-244.75 h -5.938 l -238.781,-0.02 0.008,244.73 244.746,0.04 z m -5.973,-238.82 -5.949,0.02 5.949,-0.02 z m -5.918,226.91 -220.965,-0.01 0.008,-220.94 220.926,0.01 0.031,220.94 v 0" /><path
         id="path58"
         style="fill:#100f0d;fill-opacity:1;fill-rule:nonzero;stroke:none"
         d="m 9804.66,1216.16 c -4.84,-43.39 -18.93,-87.28 -42.22,-131.71 16.46,-24.15 27.6,-54.88 33.43,-92.173 5.82,-37.304 6.14,-79.191 1,-125.625 -11.51,-103.136 -50.99,-206.703 -118.46,-310.761 -29.9,-46.075 -62.19,-86.907 -96.89,-122.5 -34.7,-35.578 -75.45,-69.883 -122.24,-102.93 -60.65,-42.668 -118.02,-71.945 -172.09,-87.844 -54.05,-15.887 -110.28,-20.574 -168.62,-14.07 -5.54,0.605 -11.45,1.269 -17.75,1.98 -5.53,0.606 -13.77,1.914 -24.73,3.946 l -7.88,-17.051 C 9034.46,143.848 9001.14,88.3906 8968.23,51.0156 8935.33,13.6328 8902.32,-3.19141 8869.18,0.5 c -29.97,3.33984 -51.88,18.1523 -65.71,44.4414 -13.84,26.2813 -18.26,61.9256 -13.24,106.8746 3.86,34.7 13.77,71.321 29.7,109.883 15.93,38.528 36.45,76.778 61.55,114.707 -10.58,20.332 -18.79,37.012 -24.53,50.039 -5.78,13.008 -10.49,24.914 -14.1,35.696 -7.32,20.769 -12.37,41.902 -15.18,63.379 -2.79,21.453 -2.89,44.031 -0.26,67.703 6.08,54.414 21.57,96.406 46.52,125.968 24.95,29.559 55.66,42.301 92.14,38.243 29.33,-3.262 54.83,-15.903 76.49,-37.864 21.62,-21.992 41.58,-55.539 59.83,-100.691 l 9.4,8.531 18.36,13.528 c 9.59,6.906 18.35,13.535 26.28,19.835 7.92,6.297 16.05,12.586 24.38,18.844 8.33,6.25 17.29,12.832 26.89,19.758 9.59,6.906 20.89,14.445 33.84,22.578 11.25,7.512 19.68,12.942 25.28,16.27 5.59,3.359 13.14,8.086 22.66,14.172 -3.84,16.296 -6.18,31.265 -7.04,44.871 -0.84,13.613 -0.1,30.617 2.15,51.035 5.17,46.269 18.39,89.894 39.74,130.832 21.31,40.917 47.77,76.097 79.42,105.547 31.59,29.45 66.85,51.74 105.67,66.88 38.81,15.15 78.31,20.49 118.55,16.01 51.25,-5.7 92.26,-28.2 123.03,-67.48 23.39,38.04 37.63,79.92 42.74,125.67 2.02,18.13 2.25,34.67 0.73,49.62 -1.55,14.94 -4.91,31.08 -10.17,48.45 l 7.63,3.94 c 6.81,-24.71 11.16,-44.96 12.98,-60.75 1.84,-15.77 1.74,-32.73 -0.25,-50.86 z M 8864.72,24.9609 c 15.77,-1.7656 33.01,2.4805 51.74,12.7813 18.7,10.293 37.11,25.0117 55.22,44.1641 18.09,19.1407 35.01,41.9997 50.74,68.6017 15.74,26.582 28.92,55.265 39.54,86.015 -34.79,10.274 -65.87,25.313 -93.19,45.118 -27.34,19.804 -52.04,45.324 -74.11,76.535 -28.67,-42.324 -49.71,-78.918 -63.14,-109.746 -13.42,-30.852 -21.96,-62.832 -25.66,-95.957 -4.21,-37.856 -1.18,-67.9496 9.12,-90.2464 10.27,-22.3047 26.86,-34.7266 49.74,-37.2657 z m 921.7,855.4801 c 8.35,74.911 -3.53,136.939 -35.58,186.019 -9.73,-15.69 -17.7,-27.97 -23.88,-36.87 -6.18,-8.89 -14.78,-19.91 -25.83,-33.047 -10.09,-11.66 -19.94,-23.137 -29.58,-34.434 -9.66,-11.316 -19.9,-22.754 -30.78,-34.304 -25.33,-26.731 -50.91,-50.215 -76.71,-70.489 -25.81,-20.304 -57.27,-42.734 -94.33,-67.355 -13.77,-8.856 -26.63,-16.805 -38.58,-23.848 -11.98,-7.05 -23.49,-13.554 -34.51,-19.511 l -61.27,-33.907 -16.69,-10.105 c 19.07,-50.84 52.67,-78.938 100.79,-84.289 28.39,-3.164 55.39,1.015 81.05,12.531 25.62,11.523 47.03,29.883 64.21,55.125 l 6.72,-4.344 c -19.12,-28.215 -42.22,-49.191 -69.3,-62.941 -27.09,-13.75 -55.61,-18.953 -85.59,-15.613 -51.27,5.711 -88.13,36.558 -110.65,92.566 l -12.88,-8.152 -58.75,-32.981 c -5.99,-3.34 -13.47,-7.89 -22.5,-13.652 -9.01,-5.789 -19.59,-12.793 -31.68,-21.035 -12.98,-8.938 -24.01,-16.688 -33.14,-23.25 -9.11,-6.594 -16.71,-11.914 -22.74,-16.035 -1.77,-1.407 -3.71,-2.786 -5.85,-4.133 -2.14,-1.375 -4.97,-3.457 -8.48,-6.25 3.33,-13.153 5.7,-25.789 7.16,-37.918 1.44,-12.149 2.28,-24.199 2.55,-36.211 0.26,-12.016 -0.19,-24.961 -1.33,-38.801 -1.14,-13.828 -2.72,-29.824 -4.74,-47.969 -3.26,-29.168 -6.85,-54.328 -10.8,-75.449 -3.97,-21.113 -10.66,-45.516 -20.13,-73.203 8.59,-1.766 15.19,-3.301 19.84,-4.609 4.66,-1.329 10.12,-2.332 16.43,-3.028 54.42,-6.062 108.06,-1.258 160.9,14.414 52.84,15.672 109.04,43.332 168.55,83.039 45.75,30.828 85.86,63.086 120.36,96.778 34.5,33.679 66.61,72.832 96.33,117.41 33.66,51.367 60.89,104.199 81.73,158.586 20.82,54.363 34.05,106.785 39.68,157.265 z M 9104.34,423.438 c 3.06,27.597 4.12,51.437 3.17,71.511 -0.97,20.063 -3.7,41.926 -8.26,65.598 l -15.66,-11.434 c -27.79,-20.07 -50.08,-37.531 -66.91,-52.422 -16.82,-14.906 -32.89,-29.894 -48.13,-44.941 -12.55,-12.199 -23.17,-23.391 -31.88,-33.586 -8.74,-10.223 -20.6,-25.262 -35.58,-45.156 12.62,-15.762 22.68,-27.664 30.16,-35.684 7.49,-8.027 17.54,-16.328 30.15,-24.922 16.21,-12.187 32.69,-22.019 49.44,-29.461 16.73,-7.453 35.97,-13.996 57.69,-19.601 9.3,26.105 16.76,51.828 22.38,77.16 5.61,25.32 10.08,52.969 13.43,82.938 z m -61.88,143.429 c 8.06,7.891 14.98,14.688 20.84,20.438 5.82,5.722 14.47,13.547 25.96,23.457 -10.07,31.457 -25.75,57.363 -47.03,77.695 -21.3,20.344 -45.35,32.004 -72.16,34.981 -35.51,3.964 -64.65,-5.184 -87.49,-27.383 -22.83,-22.207 -36.75,-55.782 -41.77,-100.742 -3.94,-35.489 -1.74,-69.473 6.62,-101.934 8.35,-32.488 23.35,-66.289 44.98,-101.434 l 8.56,12.235 c 11.48,17.062 22.57,32.402 33.27,45.996 10.68,13.566 21.52,26.535 32.48,38.898 10.96,12.344 22.54,24.832 34.73,37.449 12.16,12.598 25.84,26.055 41.01,40.344 z m 593.72,394.988 c 19.36,16.204 38.44,35.032 57.2,56.515 18.75,21.43 33.98,41.51 45.64,60.18 -13.77,12.71 -25.97,21.45 -36.61,26.25 -10.64,4.76 -25.83,8.26 -45.55,10.45 -18.92,2.11 -38.88,2.13 -59.86,0.08 -20.99,-2.07 -41.99,-5.92 -62.96,-11.55 -21.01,-5.65 -41.19,-12.99 -60.55,-21.99 -19.39,-9.04 -37.31,-19.41 -53.77,-31.15 -70.31,-50.47 -110.33,-119.456 -120.07,-207.007 -1.51,-13.406 -1.9,-25.945 -1.19,-37.586 0.67,-11.652 2.4,-26.836 5.11,-45.488 9.37,5.339 17.46,9.832 24.25,13.464 6.79,3.633 13.58,7.278 20.38,10.899 6.79,3.633 14.23,7.805 22.35,12.488 8.11,4.672 17.67,10.012 28.72,15.969 21.2,11.203 39.25,20.781 54.1,28.711 14.85,7.922 28.25,15.402 40.24,22.473 11.94,7.039 23.52,14.128 34.7,21.269 11.17,7.148 23.65,15.125 37.41,23.984 14.73,10.332 28.14,19.801 40.3,28.446 12.14,8.625 22.19,16.484 30.16,23.593" /><path
         id="path60"
         style="fill:#100f0d;fill-opacity:1;fill-rule:nonzero;stroke:none"
         d="m 9844.78,1306.88 c -15.78,1.83 -36.03,6.17 -60.74,13 l 3.95,7.61 c 17.34,-5.24 33.49,-8.62 48.44,-10.17 14.95,-1.51 31.49,-1.29 49.62,0.74 45.74,5.1 87.64,19.34 125.65,42.74 -39.28,30.76 -61.76,71.78 -67.45,123.04 -4.49,40.21 0.86,79.73 16,118.55 15.13,38.82 37.43,74.06 66.85,105.67 29.5,31.63 64.7,58.09 105.6,79.41 40.9,21.33 84.5,34.57 130.8,39.73 20.4,2.26 37.4,3.01 51,2.17 13.6,-0.87 28.6,-3.22 44.9,-7.05 6.1,9.51 10.8,17.06 14.2,22.66 3.3,5.59 8.7,14.02 16.3,25.27 8.1,12.96 15.6,24.26 22.5,33.85 7,9.6 13.6,18.56 19.8,26.9 6.3,8.32 12.6,16.45 18.8,24.37 6.3,7.93 13,16.7 19.9,26.28 l 13.5,18.37 8.5,9.39 c -45.1,18.26 -78.7,38.2 -100.6,59.83 -22,21.66 -34.6,47.15 -37.9,76.48 -4.1,36.49 8.7,67.2 38.2,92.15 29.6,24.93 71.6,40.46 126,46.51 23.7,2.65 46.2,2.55 67.7,-0.23 21.5,-2.84 42.6,-7.88 63.4,-15.19 10.8,-3.62 22.7,-8.32 35.7,-14.1 13,-5.77 29.7,-13.96 50,-24.56 38,25.12 76.2,45.63 114.7,61.57 38.6,15.93 75.2,25.84 109.9,29.7 45,5.01 80.6,0.6 106.9,-13.26 26.3,-13.83 41.1,-35.73 44.4,-65.7 3.7,-33.13 -13.1,-66.15 -50.5,-99.04 -37.4,-32.93 -92.8,-66.23 -166.4,-99.98 l -17.1,-7.89 c 2.1,-10.95 3.4,-19.18 4,-24.71 0.7,-6.3 1.4,-12.22 2,-17.75 6.5,-58.36 1.8,-114.57 -14.1,-168.65 -15.9,-54.05 -45.2,-111.41 -87.9,-172.07 -33,-46.79 -67.3,-87.54 -102.9,-122.24 -35.6,-34.71 -76.4,-67 -122.5,-96.9 -104,-67.46 -207.6,-106.95 -310.8,-118.45 -46.4,-5.17 -88.3,-4.83 -125.6,0.99 -37.3,5.85 -68,16.98 -92.1,33.46 -44.47,-23.31 -88.38,-37.4 -131.74,-42.23 -18.15,-2.01 -35.11,-2.11 -50.88,-0.27 z m 1204.82,989.94 c -22.3,10.29 -52.4,13.33 -90.3,9.11 -33.1,-3.7 -65.1,-12.24 -95.9,-25.66 -30.8,-13.41 -67.4,-34.46 -109.8,-63.13 31.3,-22.07 56.8,-46.77 76.6,-74.12 19.8,-27.32 34.8,-58.39 45.1,-93.18 30.7,10.61 59.4,23.79 86,39.53 26.6,15.73 49.5,32.66 68.6,50.75 19.2,18.12 33.9,36.52 44.2,55.22 10.3,18.72 14.5,35.97 12.8,51.71 -2.6,22.91 -15,39.48 -37.3,49.77 z m -661,-931.77 c 54.4,20.85 107.3,48.08 158.6,81.74 44.6,29.73 83.8,61.84 117.4,96.34 33.7,34.47 66,74.6 96.8,120.34 39.7,59.53 67.4,115.71 83.1,168.56 15.6,52.83 20.4,106.47 14.4,160.89 -0.7,6.31 -1.8,11.78 -3,16.43 -1.4,4.63 -2.9,11.27 -4.7,19.85 -27.7,-9.48 -52,-16.17 -73.2,-20.15 -21.1,-3.94 -46.2,-7.55 -75.4,-10.79 -18.2,-2.01 -34.2,-3.6 -48,-4.73 -13.8,-1.14 -26.8,-1.58 -38.8,-1.33 -12,0.25 -24.1,1.11 -36.2,2.54 -12.1,1.47 -24.8,3.85 -37.9,7.17 -2.8,-3.5 -4.9,-6.34 -6.3,-8.49 -1.3,-2.13 -2.7,-4.08 -4.1,-5.85 -4.1,-6.04 -9.5,-13.62 -16,-22.73 -6.6,-9.13 -14.4,-20.17 -23.3,-33.13 -8.2,-12.09 -15.2,-22.67 -21,-31.71 -5.8,-9.01 -10.4,-16.49 -13.7,-22.47 l -33,-58.77 -8.1,-12.88 c 56,-22.51 86.8,-59.38 92.6,-110.65 3.3,-29.98 -1.9,-58.5 -15.7,-85.59 -13.7,-27.06 -34.7,-50.17 -62.9,-69.29 l -4.3,6.71 c 25.2,17.18 43.6,38.6 55.1,64.22 11.5,25.65 15.7,52.65 12.5,81.06 -5.3,48.11 -33.4,81.7 -84.3,100.79 l -10.1,-16.71 -33.9,-61.24 c -5.9,-11.04 -12.4,-22.54 -19.5,-34.52 -7.1,-11.97 -15,-24.82 -23.9,-38.59 -24.5,-37.07 -47,-68.52 -67.3,-94.34 -20.3,-25.78 -43.8,-51.37 -70.5,-76.72 -11.5,-10.86 -23,-21.13 -34.3,-30.76 -11.3,-9.64 -22.8,-19.5 -34.4,-29.59 -13.2,-11.05 -24.2,-19.64 -33.1,-25.84 -8.9,-6.18 -21.2,-14.14 -36.8,-23.85 49,-32.07 111,-43.94 186,-35.59 50.4,5.63 102.9,18.86 157.2,39.67 z m 382.7,655.84 c 25.4,5.63 51.1,13.09 77.2,22.38 -5.6,21.73 -12.2,40.96 -19.6,57.7 -7.5,16.74 -17.3,33.22 -29.5,49.41 -8.6,12.63 -16.9,22.68 -24.9,30.17 -8,7.48 -19.9,17.53 -35.7,30.15 -19.9,-14.98 -34.9,-26.83 -45.1,-35.56 -10.2,-8.73 -21.4,-19.35 -33.6,-31.88 -15.1,-15.25 -30.1,-31.31 -45,-48.15 -14.9,-16.81 -32.3,-39.1 -52.4,-66.91 l -11.4,-15.65 c 23.6,-4.56 45.5,-7.3 65.6,-8.25 20,-0.96 43.9,0.09 71.5,3.16 30,3.34 57.6,7.82 82.9,13.43 z m -186,89.47 c 12.6,12.18 25.1,23.76 37.4,34.71 12.4,10.96 25.4,21.81 39,32.47 13.5,10.71 28.9,21.8 45.9,33.28 l 12.3,8.56 c -35.2,21.64 -69,36.63 -101.5,44.99 -32.4,8.34 -66.4,10.55 -101.9,6.6 -45,-4.99 -78.5,-18.91 -100.7,-41.76 -22.2,-22.83 -31.4,-51.99 -27.4,-87.47 3,-26.83 14.6,-50.87 35,-72.17 20.3,-21.27 46.2,-36.96 77.7,-47.03 9.9,11.49 17.7,20.14 23.4,25.95 5.8,5.85 12.6,12.78 20.5,20.86 14.2,15.17 27.7,28.83 40.3,41.01 z m -411.8,-604.58 c 8.7,12.15 18.1,25.58 28.5,40.31 8.9,13.75 16.8,26.23 24,37.4 7.1,11.19 14.2,22.75 21.3,34.69 7,12 14.5,25.39 22.4,40.24 8,14.87 17.5,32.91 28.7,54.09 6,11.06 11.3,20.63 16,28.74 4.7,8.12 8.9,15.56 12.5,22.34 3.6,6.81 7.3,13.6 10.9,20.37 3.6,6.82 8.1,14.9 13.5,24.26 -18.7,2.73 -33.9,4.45 -45.5,5.12 -11.7,0.7 -24.2,0.31 -37.6,-1.19 -87.6,-9.75 -156.6,-49.77 -207,-120.06 -11.8,-16.45 -22.1,-34.39 -31.2,-53.78 -9,-19.35 -16.3,-39.55 -22,-60.54 -5.6,-20.99 -9.46,-41.97 -11.54,-62.97 -2.03,-20.98 -2.01,-40.95 0.1,-59.87 2.2,-19.72 5.74,-34.88 10.44,-45.55 4.8,-10.64 13.6,-22.83 26.3,-36.61 18.6,11.66 38.7,26.89 60.1,45.65 21.5,18.76 40.4,37.83 56.6,57.19 7.1,7.96 14.9,18.03 23.5,30.17" /><path
         id="path62"
         style="fill:#100f0d;fill-opacity:1;fill-rule:nonzero;stroke:none"
         d="m 9901.13,1025.41 -5.17,1.82 c 7.25,27.26 21.94,48.32 44.1,63.15 19.12,12.8 38.69,15.58 58.72,8.35 20.02,-7.25 38.92,-24.21 56.82,-50.89 9.7,-14.55 18.7,-30.86 26.8,-48.902 8.1,-18.059 14.5,-36.086 19.1,-54.094 4.5,-18.008 7.8,-37.91 9.6,-59.727 1.9,-21.824 2.4,-44.363 1.8,-67.637 -0.9,-29.578 -4.3,-58.503 -10.1,-86.816 -5.9,-28.309 -13.7,-54.676 -23.2,-79.09 -9.6,-24.426 -20.7,-45.918 -33.4,-64.472 -12.6,-18.555 -26.2,-32.707 -40.8,-42.461 -18.81,-12.61 -38.33,-18.887 -58.58,-18.86 -20.26,0.051 -37.8,6.262 -52.72,18.672 -5.66,4.531 -11.31,9.844 -16.94,15.938 -5.62,6.113 -10.98,12.949 -16.03,20.515 -10.15,15.149 -18.4,33.723 -24.79,55.754 -6.41,22.024 -10.89,46.106 -13.44,72.246 -2.55,26.133 -3.06,53.321 -1.51,81.555 1.54,28.211 5.15,55.84 10.79,82.859 8.15,38.36 19.43,70.782 33.78,97.285 14.36,26.485 31.24,46.245 50.67,59.255 18.51,12.39 35.71,17.55 51.62,15.49 15.89,-2.07 28.99,-10.82 39.35,-26.25 8.7,-12.99 15.5,-29.245 20.4,-48.737 4.9,-19.496 8,-40.402 9.4,-62.734 1.3,-22.336 0.6,-45.324 -2,-68.977 -2.6,-23.672 -7.1,-46.433 -13.6,-68.281 -6.2,-20.34 -13.7,-37.723 -22.46,-52.168 -8.8,-14.422 -18.54,-25.195 -29.15,-32.305 -12.15,-8.125 -23.64,-10.988 -34.48,-8.582 -10.85,2.403 -20.33,9.688 -28.45,21.836 -3.87,5.758 -7.03,12.45 -9.49,20.039 -2.44,7.586 -4.24,15.711 -5.43,24.375 -1.18,8.661 -1.71,17.657 -1.57,26.981 0.14,9.316 1.12,18.547 2.91,27.656 3.51,17.746 8.93,33.117 16.25,46.164 7.32,13.028 15.99,22.899 26,29.61 1.82,1.211 3.5,2.324 5.01,3.339 1.81,1.231 4.2,2.594 7.12,4.122 l 2.29,-4.407 c -4.53,-1.726 -7.6,-3.105 -9.1,-4.121 -10.32,-6.902 -18.91,-17.715 -25.77,-32.422 -6.87,-14.707 -11.8,-32.285 -14.8,-52.754 -2.69,-18.953 -3.27,-35.496 -1.72,-49.617 1.56,-14.133 5.06,-25.304 10.56,-33.5 12.6,-18.804 27.25,-22.633 43.94,-11.453 6.38,4.27 12.76,10.625 19.2,19.102 6.39,8.468 12.46,18.457 18.16,29.98 5.7,11.504 10.98,24.356 15.78,38.555 4.7,14.179 8.7,29.14 11.8,44.844 4.2,18.652 6.9,37.148 8,55.488 1.2,18.34 1,35.832 -0.5,52.433 -1.4,16.602 -4.1,31.747 -8,45.418 -3.8,13.664 -8.9,25.216 -15.2,34.626 -18.72,27.91 -41.59,32.84 -68.6,14.76 -9.71,-6.51 -19.44,-15.45 -29.2,-26.81 -9.74,-11.372 -18.36,-23.943 -25.85,-37.732 -2.9,-5.476 -6.04,-11.98 -9.36,-19.473 -3.33,-7.507 -6.77,-16.179 -10.28,-26.003 -3.93,-10.547 -7.29,-19.825 -10.05,-27.832 -2.78,-8.02 -5.15,-15.969 -7.1,-23.879 -1.97,-7.899 -3.63,-16.258 -4.96,-25.078 -1.36,-8.821 -2.69,-19.161 -3.98,-31.016 -1.5,-12.871 -2.68,-24.539 -3.56,-35.027 -0.91,-10.489 -1.34,-20.344 -1.33,-29.571 0.02,-9.219 0.25,-18.078 0.67,-26.594 0.42,-8.503 1.15,-17.48 2.18,-26.882 1.13,-7.598 2.41,-15.11 3.83,-22.493 1.43,-7.39 2.97,-14.941 4.62,-22.636 3.37,-13.574 7.16,-25.313 11.38,-35.235 4.23,-9.921 9.19,-19.129 14.89,-27.625 31.28,-46.75 67.26,-56.504 107.94,-29.269 13.06,8.73 24.91,19.414 35.56,32.062 10.7,12.633 20.8,28.524 30.4,47.696 10.3,20.078 19.3,41.531 27.2,64.336 7.7,22.8 14.1,46.375 18.9,70.711 2.6,13.175 4.7,26.574 6.4,40.207 1.6,13.621 2.8,27.07 3.6,40.347 0.8,13.274 1,26.067 0.7,38.371 -0.3,12.317 -1.2,23.731 -2.5,34.27 -3.2,22.48 -8.6,44.023 -16.2,64.629 -7.7,20.606 -17,39.106 -28,55.496 -16.4,24.58 -33.6,39.89 -51.48,45.95 -17.91,6.02 -35.96,2.96 -54.17,-9.23 -10.33,-6.92 -19.26,-15.09 -26.78,-24.52 -7.54,-9.45 -13.01,-19.49 -16.44,-30.13" /><path
         id="path64"
         style="fill:#100f0d;fill-opacity:1;fill-rule:nonzero;stroke:none"
         d="m 10052.8,1191.23 c -9.5,-7.53 -17.6,-16.45 -24.5,-26.78 -12.2,-18.2 -15.3,-36.25 -9.3,-54.16 6.1,-17.89 21.4,-35.06 46,-51.52 16.4,-10.98 34.9,-20.28 55.5,-27.92 20.6,-7.64 42.1,-13.06 64.6,-16.24 10.5,-1.35 22,-2.18 34.3,-2.48 12.3,-0.34 25.1,-0.11 38.3,0.66 13.3,0.78 26.8,2.03 40.4,3.65 13.6,1.66 27,3.79 40.2,6.38 24.3,4.82 47.9,11.13 70.7,18.94 22.8,7.79 44.3,16.85 64.4,27.15 19.1,9.59 35,19.72 47.6,30.37 12.7,10.66 23.4,22.53 32.1,35.58 27.2,40.67 17.5,76.64 -29.3,107.95 -8.5,5.69 -17.7,10.65 -27.6,14.87 -9.9,4.23 -21.7,8.02 -35.2,11.4 -7.7,1.63 -15.3,3.18 -22.7,4.6 -7.4,1.44 -14.8,2.71 -22.4,3.83 -9.5,1.04 -18.4,1.76 -26.9,2.19 -8.5,0.42 -17.4,0.65 -26.6,0.67 -9.2,0.01 -19.1,-0.43 -29.6,-1.33 -10.5,-0.88 -22.2,-2.07 -35,-3.56 -11.9,-1.3 -22.2,-2.63 -31,-3.96 -8.9,-1.36 -17.2,-3.02 -25.1,-4.98 -7.9,-1.96 -15.9,-4.33 -23.9,-7.09 -8,-2.78 -17.3,-6.12 -27.8,-10.06 -9.9,-3.52 -18.5,-6.96 -26,-10.27 -7.5,-3.33 -14,-6.47 -19.5,-9.39 -13.8,-7.46 -26.4,-16.1 -37.7,-25.84 -11.4,-9.76 -20.3,-19.48 -26.8,-29.19 -18.1,-27.03 -13.2,-49.88 14.7,-68.59 9.4,-6.29 21,-11.37 34.6,-15.25 13.7,-3.88 28.8,-6.55 45.5,-8 16.6,-1.44 34,-1.61 52.4,-0.48 18.3,1.13 36.8,3.79 55.5,8.03 15.7,3.11 30.6,7.06 44.8,11.84 14.2,4.78 27.1,10.02 38.6,15.72 11.5,5.71 21.5,11.77 29.9,18.17 8.5,6.43 14.9,12.84 19.2,19.2 11.1,16.7 7.3,31.34 -11.5,43.93 -8.2,5.5 -19.4,9.02 -33.5,10.57 -14.1,1.55 -30.7,0.96 -49.6,-1.72 -20.5,-3.01 -38.1,-7.93 -52.8,-14.8 -14.7,-6.86 -25.5,-15.46 -32.4,-25.77 -1,-1.52 -2.4,-4.57 -4.1,-9.13 l -4.4,2.3 c 1.5,2.93 2.9,5.32 4.1,7.13 1,1.54 2.1,3.2 3.3,5.01 6.7,10.01 16.6,18.69 29.6,26 13.1,7.33 28.5,12.74 46.2,16.24 9.1,1.81 18.3,2.79 27.7,2.93 9.3,0.13 18.3,-0.39 27,-1.57 8.6,-1.19 16.7,-3 24.3,-5.43 7.6,-2.46 14.3,-5.63 20.1,-9.49 12.1,-8.12 19.4,-17.59 21.8,-28.45 2.4,-10.85 -0.4,-22.34 -8.6,-34.48 -7.1,-10.62 -17.9,-20.35 -32.3,-29.14 -14.4,-8.79 -31.8,-16.29 -52.2,-22.45 -21.8,-6.47 -44.6,-11.01 -68.2,-13.63 -23.7,-2.63 -46.7,-3.29 -69,-1.96 -22.3,1.34 -43.2,4.46 -62.8,9.37 -19.4,4.9 -35.7,11.72 -48.7,20.44 -15.4,10.32 -24.2,23.42 -26.2,39.32 -2.1,15.89 3.1,33.1 15.5,51.61 13,19.43 32.7,36.32 59.2,50.66 26.5,14.37 58.9,25.63 97.3,33.77 27,5.67 54.6,9.26 82.9,10.8 28.2,1.56 55.4,1.06 81.5,-1.51 26.2,-2.55 50.2,-7.02 72.3,-13.43 22,-6.39 40.6,-14.65 55.7,-24.79 7.6,-5.05 14.4,-10.42 20.5,-16.03 6.1,-5.64 11.4,-11.28 15.9,-16.95 12.5,-14.9 18.7,-32.47 18.7,-52.72 0.1,-20.23 -6.2,-39.76 -18.8,-58.58 -9.8,-14.58 -23.9,-28.18 -42.5,-40.8 -18.5,-12.65 -40,-23.76 -64.4,-33.34 -24.5,-9.59 -50.8,-17.32 -79.1,-23.21 -28.4,-5.89 -57.3,-9.263 -86.8,-10.11 -23.3,-0.696 -45.9,-0.11 -67.7,1.758 -21.8,1.855 -41.7,5.062 -59.7,9.652 -18,4.59 -36.1,10.93 -54.1,19.07 -18.1,8.13 -34.4,17.06 -48.9,26.79 -26.7,17.87 -43.7,36.81 -50.9,56.83 -7.2,20.01 -4.5,39.57 8.3,58.69 14.9,22.18 35.9,36.88 63.2,44.1 l 1.8,-5.15 c -10.6,-3.43 -20.7,-8.9 -30.1,-16.44" /><path
         id="path66"
         style="fill:#000000;fill-opacity:1;fill-rule:nonzero;stroke:none"
         d="m 9581.19,692.004 c -8.75,8.75 -22.94,8.758 -31.72,0 -8.74,-8.75 -8.74,-22.949 0.03,-31.711 8.75,-8.738 22.94,-8.738 31.69,0 8.75,8.762 8.75,22.961 0,31.711" /><path
         id="path68"
         style="fill:#000000;fill-opacity:1;fill-rule:nonzero;stroke:none"
         d="m 9962.79,891.32 c -6.14,6.121 -16.08,6.129 -22.2,0.008 -6.13,-6.14 -6.13,-16.074 0.01,-22.207 6.12,-6.121 16.05,-6.121 22.19,0 6.12,6.133 6.12,16.067 0,22.199" /><path
         id="path70"
         style="fill:#000000;fill-opacity:1;fill-rule:nonzero;stroke:none"
         d="m 10238.1,1171.04 c -6.1,6.12 -16,6.13 -22.2,0.01 -6.1,-6.15 -6.1,-16.08 0,-22.21 6.2,-6.13 16.1,-6.13 22.2,0.01 6.1,6.13 6.1,16.05 0,22.19" /><path
         id="path72"
         style="fill:#000000;fill-opacity:1;fill-rule:nonzero;stroke:none"
         d="m 10441.7,1562.91 c -8.7,8.74 -22.9,8.75 -31.7,0 -8.7,-8.76 -8.7,-22.96 0,-31.71 8.8,-8.75 23,-8.75 31.7,0.01 8.7,8.75 8.7,22.94 0,31.7" /><path
         id="path74"
         style="fill:#000000;fill-opacity:1;fill-rule:nonzero;stroke:none"
         d="m 10165.5,542.48 v 403.254 h 403.2 v -5.949 l -5.9,0.012 5.9,-0.012 V 542.48 h -403.2 z m 11.9,11.887 h 379.4 v 379.481 h -379.4 v -379.481 0" /><path
         id="path76"
         style="fill:#000000;fill-opacity:1;fill-rule:nonzero;stroke:none"
         d="m 10205.1,582.102 v 324.011 h 6 l 318,-0.008 V 582.117 l -324,-0.015 z m 6,318.074 h 5.9 -5.9 z m 5.9,-306.184 300.2,0.024 V 894.23 H 10217 v -300.238 0" /><path
         id="path78"
         style="fill:#000000;fill-opacity:1;fill-rule:nonzero;stroke:none"
         d="m 10244.7,621.73 0.1,244.747 h 5.9 l 238.8,0.007 V 621.758 l -244.8,-0.028 z m 6,238.797 5.9,-0.007 -5.9,0.007 z m 5.9,-226.902 221,0.027 v 220.93 l -221,-0.012 v -220.945 0" /><path
         id="path80"
         style="fill:#100f0d;fill-opacity:1;fill-rule:nonzero;stroke:none"
         d="m 9804.92,7066.84 c -1.82,-15.79 -6.17,-36.03 -12.97,-60.73 l -7.64,3.92 c 5.26,17.36 8.62,33.51 10.17,48.44 1.52,14.97 1.29,31.5 -0.73,49.64 -5.11,45.74 -19.34,87.61 -42.74,125.67 -30.78,-39.29 -71.78,-61.79 -123.03,-67.49 -40.23,-4.48 -79.73,0.86 -118.55,16.01 -38.82,15.14 -74.08,37.43 -105.67,66.89 -31.65,29.44 -58.1,64.63 -79.42,105.54 -21.35,40.95 -34.57,84.56 -39.74,130.84 -2.26,20.41 -2.99,37.42 -2.15,51.03 0.86,13.6 3.21,28.56 7.04,44.86 -9.52,6.1 -17.07,10.83 -22.66,14.18 -5.6,3.34 -14.03,8.75 -25.29,16.27 -12.95,8.13 -24.24,15.67 -33.83,22.58 -9.6,6.92 -18.56,13.49 -26.89,19.75 -8.33,6.26 -16.46,12.55 -24.38,18.86 -7.93,6.29 -16.69,12.92 -26.28,19.82 l -18.36,13.53 -9.4,8.52 c -18.25,-45.13 -38.21,-78.68 -59.83,-100.67 -21.66,-21.96 -47.16,-34.61 -76.5,-37.86 -36.47,-4.08 -67.18,8.68 -92.13,38.24 -24.94,29.55 -40.44,71.54 -46.52,125.96 -2.63,23.67 -2.54,46.25 0.26,67.7 2.81,21.48 7.86,42.61 15.18,63.38 3.6,10.78 8.32,22.67 14.09,35.69 5.75,13.04 13.96,29.71 24.55,50.05 -25.11,37.92 -45.63,76.16 -61.56,114.7 -15.94,38.56 -25.84,75.2 -29.71,109.88 -5,44.95 -0.59,80.6 13.25,106.88 13.84,26.28 35.74,41.1 65.71,44.45 33.13,3.68 66.15,-13.16 99.05,-50.52 32.91,-37.37 66.23,-92.84 99.98,-166.42 l 7.89,-17.04 c 10.95,2.04 19.18,3.34 24.72,3.95 6.3,0.7 12.21,1.37 17.74,1.97 58.36,6.51 114.57,1.82 168.63,-14.07 54.07,-15.9 111.43,-45.17 172.09,-87.83 46.79,-33.06 87.54,-67.36 122.23,-102.94 34.71,-35.59 67,-76.43 96.9,-122.5 67.47,-104.05 106.96,-207.62 118.46,-310.75 5.14,-46.44 4.82,-88.32 -1,-125.63 -5.83,-37.29 -16.97,-68.04 -33.43,-92.18 23.3,-44.43 37.38,-88.32 42.22,-131.71 1.99,-18.14 2.09,-35.09 0.25,-50.86 z m -989.93,1204.79 c -10.3,-22.28 -13.33,-52.38 -9.12,-90.23 3.7,-33.14 12.24,-65.12 25.67,-95.96 13.42,-30.83 34.46,-67.43 63.13,-109.76 22.07,31.21 46.77,56.73 74.11,76.55 27.33,19.79 58.4,34.84 93.19,45.09 -10.62,30.77 -23.81,59.46 -39.54,86.04 -15.73,26.59 -32.65,49.46 -50.74,68.59 -18.1,19.16 -36.52,33.87 -55.23,44.16 -18.71,10.31 -35.96,14.55 -51.73,12.8 -22.88,-2.55 -39.46,-14.97 -49.74,-37.28 z m 931.76,-660.95 c -20.84,54.4 -48.07,107.22 -81.73,158.59 -29.73,44.59 -61.84,83.73 -96.33,117.41 -34.5,33.69 -74.61,65.96 -120.36,96.78 -59.51,39.7 -115.71,67.35 -168.55,83.03 -52.85,15.68 -106.48,20.48 -160.9,14.42 -6.31,-0.7 -11.77,-1.7 -16.43,-3.03 -4.65,-1.3 -11.25,-2.84 -19.84,-4.6 9.47,-27.69 16.16,-52.1 20.14,-73.2 3.94,-21.13 7.54,-46.29 10.79,-75.46 2.02,-18.14 3.6,-34.13 4.74,-47.97 1.13,-13.84 1.58,-26.79 1.33,-38.79 -0.27,-12.01 -1.11,-24.06 -2.55,-36.22 -1.46,-12.13 -3.83,-24.76 -7.16,-37.92 3.51,-2.79 6.34,-4.86 8.48,-6.25 2.14,-1.35 4.08,-2.72 5.85,-4.13 6.04,-4.12 13.63,-9.44 22.74,-16.02 9.14,-6.58 20.16,-14.32 33.14,-23.27 12.09,-8.24 22.66,-15.23 31.68,-21.03 9.03,-5.76 16.51,-10.32 22.5,-13.64 l 58.75,-32.98 12.88,-8.16 c 22.52,56.01 59.37,86.86 110.65,92.56 29.97,3.33 58.5,-1.86 85.59,-15.61 27.08,-13.74 50.18,-34.73 69.3,-62.94 l -6.72,-4.35 c -17.18,25.26 -38.59,43.6 -64.21,55.13 -25.65,11.52 -52.66,15.69 -81.05,12.54 -48.12,-5.37 -81.73,-33.46 -100.79,-84.3 l 16.69,-10.11 61.27,-33.89 c 11.02,-5.97 22.53,-12.47 34.51,-19.53 11.95,-7.04 24.81,-14.99 38.58,-23.84 37.06,-24.62 68.51,-47.05 94.33,-67.35 25.81,-20.28 51.38,-43.77 76.71,-70.5 10.88,-11.55 21.13,-22.98 30.78,-34.29 9.64,-11.31 19.49,-22.78 29.57,-34.44 11.06,-13.14 19.66,-24.16 25.84,-33.04 6.19,-8.91 14.14,-21.19 23.88,-36.88 32.05,49.08 43.93,111.1 35.58,186.02 -5.63,50.48 -18.86,102.9 -39.68,157.26 z m -655.83,382.68 c -5.63,25.34 -13.08,51.07 -22.38,77.15 -21.72,-5.59 -40.96,-12.13 -57.69,-19.6 -16.75,-7.43 -33.23,-17.27 -49.44,-29.46 -12.61,-8.59 -22.66,-16.89 -30.15,-24.92 -7.48,-8.01 -17.54,-19.92 -30.15,-35.68 14.98,-19.89 26.83,-34.93 35.57,-45.15 8.71,-10.2 19.33,-21.38 31.87,-33.59 15.25,-15.05 31.31,-30.03 48.14,-44.94 16.83,-14.89 39.12,-32.35 66.92,-52.42 l 15.65,-11.44 c 4.56,23.68 7.29,45.54 8.26,65.6 0.95,20.07 -0.11,43.91 -3.17,71.51 -3.35,29.97 -7.83,57.62 -13.43,82.94 z m -89.46,-186.02 c -12.19,12.62 -23.77,25.1 -34.73,37.45 -10.96,12.36 -21.8,25.33 -32.48,38.89 -10.7,13.6 -21.79,28.94 -33.27,46.01 l -8.56,12.24 c -21.63,-35.16 -36.63,-68.96 -44.98,-101.45 -8.36,-32.46 -10.56,-66.45 -6.62,-101.93 5.02,-44.96 18.94,-78.54 41.77,-100.75 22.84,-22.19 51.98,-31.35 87.49,-27.38 26.81,2.98 50.86,14.64 72.16,34.98 21.28,20.33 36.96,46.24 47.03,77.7 -11.48,9.91 -20.14,17.73 -25.96,23.45 -5.86,5.75 -12.78,12.56 -20.84,20.45 -15.17,14.29 -28.84,27.74 -41.01,40.34 z m 604.57,-411.74 c -12.16,8.65 -25.57,18.12 -40.3,28.44 -13.77,8.86 -26.23,16.84 -37.41,23.99 -11.18,7.13 -22.76,14.23 -34.69,21.28 -12,7.06 -25.4,14.54 -40.25,22.47 -14.85,7.92 -32.9,17.5 -54.1,28.71 -11.05,5.95 -20.61,11.29 -28.72,15.96 -8.12,4.69 -15.56,8.86 -22.36,12.48 -6.79,3.64 -13.58,7.27 -20.37,10.91 -6.79,3.64 -14.88,8.13 -24.24,13.45 -2.72,-18.64 -4.45,-33.82 -5.12,-45.48 -0.7,-11.63 -0.31,-24.17 1.19,-37.58 9.75,-87.55 49.77,-156.54 120.07,-207.01 16.46,-11.74 34.38,-22.11 53.77,-31.14 19.36,-9.01 39.54,-16.35 60.54,-21.99 20.98,-5.66 41.98,-9.49 62.96,-11.56 20.99,-2.04 40.95,-2.01 59.87,0.09 19.72,2.18 34.91,5.69 45.55,10.45 10.64,4.79 22.85,13.53 36.62,26.24 -11.66,18.67 -26.9,38.74 -45.65,60.18 -18.76,21.47 -37.84,40.31 -57.2,56.51 -7.98,7.11 -18.02,14.98 -30.16,23.6" /><path
         id="path82"
         style="fill:#100f0d;fill-opacity:1;fill-rule:nonzero;stroke:none"
         d="m 9895.67,7026.72 c 43.37,-4.84 87.27,-18.92 131.73,-42.23 24.1,16.46 54.9,27.6 92.2,33.46 37.3,5.81 79.1,6.15 125.6,0.98 103.1,-11.49 206.7,-51 310.7,-118.45 46.1,-29.91 86.9,-62.19 122.5,-96.91 35.6,-34.69 69.9,-75.44 103,-122.23 42.6,-60.66 71.9,-118.02 87.8,-172.07 15.9,-54.07 20.6,-110.29 14.1,-168.65 -0.6,-5.53 -1.3,-11.45 -2,-17.74 -0.6,-5.54 -1.9,-13.77 -4,-24.72 l 17.1,-7.87 c 73.6,-33.77 129,-67.08 166.4,-99.99 37.4,-32.9 54.2,-65.93 50.5,-99.04 -3.3,-29.98 -18.1,-51.88 -44.4,-65.71 -26.3,-13.86 -61.9,-18.27 -106.9,-13.25 -34.7,3.85 -71.3,13.77 -109.9,29.69 -38.5,15.94 -76.7,36.45 -114.7,61.56 -20.3,-10.59 -37,-18.78 -50,-24.55 -13,-5.78 -24.9,-10.48 -35.7,-14.1 -20.8,-7.31 -41.9,-12.35 -63.4,-15.19 -21.5,-2.78 -44,-2.88 -67.7,-0.23 -54.4,6.06 -96.4,21.57 -126,46.52 -29.5,24.95 -42.3,55.64 -38.2,92.14 3.3,29.33 15.9,54.83 37.9,76.48 21.9,21.63 55.5,41.56 100.6,59.84 l -8.5,9.39 -13.5,18.37 c -6.9,9.57 -13.6,18.34 -19.9,26.27 -6.2,7.92 -12.5,16.06 -18.8,24.37 -6.2,8.34 -12.8,17.3 -19.8,26.9 -6.9,9.59 -14.4,20.88 -22.5,33.85 -7.5,11.25 -13,19.68 -16.3,25.28 -3.4,5.59 -8.1,13.14 -14.2,22.65 -16.3,-3.84 -31.3,-6.18 -44.8,-7.04 -13.6,-0.84 -30.7,-0.11 -51.1,2.16 -46.2,5.16 -89.9,18.4 -130.8,39.73 -40.9,21.32 -76.1,47.79 -105.6,79.41 -29.41,31.61 -51.72,66.86 -66.83,105.68 -15.15,38.81 -20.5,78.34 -16.01,118.54 5.69,51.27 28.17,92.28 67.44,123.05 -38,23.38 -79.9,37.63 -125.65,42.73 -18.12,2.03 -34.66,2.25 -49.61,0.74 -14.94,-1.54 -31.1,-4.93 -48.44,-10.17 l -3.95,7.61 c 24.71,6.83 44.97,11.17 60.74,13 15.77,1.84 32.73,1.74 50.88,-0.26 z m 1191.23,-939.91 c 1.7,15.74 -2.5,32.99 -12.8,51.71 -10.3,18.71 -25,37.1 -44.2,55.21 -19.1,18.11 -42,35.03 -68.6,50.76 -26.6,15.74 -55.3,28.92 -86,39.53 -10.3,-34.8 -25.3,-65.86 -45.1,-93.18 -19.8,-27.34 -45.3,-52.04 -76.6,-74.13 42.4,-28.66 79,-49.71 109.8,-63.12 30.8,-13.42 62.8,-21.96 95.9,-25.66 37.9,-4.21 68,-1.18 90.3,9.12 22.3,10.27 34.7,26.86 37.3,49.76 z m -855.5,921.67 c -74.9,8.34 -137,-3.52 -186,-35.59 15.6,-9.71 27.9,-17.68 36.8,-23.85 8.9,-6.2 19.9,-14.79 33.1,-25.84 11.6,-10.09 23.1,-19.94 34.4,-29.59 11.3,-9.63 22.8,-19.91 34.3,-30.76 26.8,-25.34 50.2,-50.92 70.5,-76.74 20.3,-25.8 42.8,-57.25 67.4,-94.31 8.8,-13.78 16.8,-26.63 23.8,-38.6 7.1,-11.98 13.6,-23.48 19.5,-34.53 l 33.9,-61.23 10.2,-16.71 c 50.8,19.09 78.9,52.68 84.2,100.81 3.2,28.39 -1,55.39 -12.5,81.05 -11.5,25.61 -29.9,47.03 -55.1,64.22 l 4.3,6.7 c 28.2,-19.12 49.2,-42.23 63,-69.29 13.7,-27.09 18.9,-55.61 15.6,-85.58 -5.8,-51.28 -36.6,-88.14 -92.6,-110.66 l 8.1,-12.87 33,-58.78 c 3.4,-5.98 7.9,-13.46 13.7,-22.47 5.8,-9.04 12.8,-19.61 21,-31.7 8.9,-12.97 16.7,-24.02 23.3,-33.14 6.5,-9.11 11.9,-16.68 16,-22.73 1.4,-1.77 2.8,-3.72 4.1,-5.84 1.4,-2.17 3.5,-5 6.3,-8.5 13.1,3.34 25.8,5.71 37.9,7.18 12.1,1.43 24.2,2.28 36.2,2.54 12,0.26 25,-0.21 38.8,-1.34 13.8,-1.13 29.8,-2.71 48,-4.73 29.2,-3.24 54.3,-6.85 75.4,-10.8 21.2,-3.97 45.5,-10.65 73.2,-20.13 1.8,8.58 3.3,15.21 4.7,19.84 1.2,4.64 2.3,10.12 3,16.44 6,54.41 1.2,108.05 -14.4,160.89 -15.7,52.85 -43.4,109.03 -83.1,168.55 -30.8,45.73 -63.1,85.87 -96.8,120.34 -33.6,34.51 -72.8,66.63 -117.4,96.34 -51.3,33.66 -104.2,60.9 -158.5,81.75 -54.4,20.8 -106.8,34.04 -157.3,39.66 z m 457,-682.08 c -27.6,3.07 -51.5,4.12 -71.5,3.17 -20.1,-0.94 -42,-3.71 -65.6,-8.26 l 11.4,-15.65 c 20.1,-27.8 37.5,-50.1 52.4,-66.91 14.9,-16.84 29.9,-32.9 45,-48.15 12.2,-12.53 23.4,-23.15 33.6,-31.87 10.2,-8.73 25.2,-20.59 45.1,-35.57 15.8,12.63 27.7,22.68 35.7,30.15 8,7.49 16.3,17.54 24.9,30.17 12.2,16.19 22,32.68 29.5,49.42 7.4,16.73 14,35.96 19.6,57.69 -26.1,9.3 -51.8,16.75 -77.2,22.39 -25.3,5.61 -52.9,10.08 -82.9,13.42 z m -143.4,-61.89 c -7.9,8.09 -14.7,15.01 -20.5,20.86 -5.7,5.81 -13.5,14.47 -23.4,25.96 -31.5,-10.07 -57.4,-25.76 -77.7,-47.04 -20.4,-21.3 -32,-45.33 -35,-72.16 -4,-35.49 5.2,-64.65 27.4,-87.47 22.2,-22.86 55.7,-36.78 100.7,-41.77 35.5,-3.95 69.5,-1.75 101.9,6.6 32.5,8.37 66.3,23.35 101.5,44.99 l -12.3,8.56 c -17,11.49 -32.4,22.57 -45.9,33.28 -13.6,10.66 -26.6,21.52 -39,32.48 -12.3,10.95 -24.8,22.53 -37.4,34.7 -12.6,12.18 -26.1,25.84 -40.3,41.01 z m -395,593.75 c -16.2,19.35 -35.1,38.42 -56.5,57.19 -21.5,18.76 -41.6,33.98 -60.2,45.64 -12.7,-13.79 -21.5,-25.96 -26.3,-36.61 -4.7,-10.66 -8.23,-25.84 -10.43,-45.55 -2.11,-18.91 -2.12,-38.89 -0.09,-59.87 2.07,-21 5.92,-41.98 11.52,-62.97 5.7,-20.98 13,-41.19 22,-60.54 9.1,-19.39 19.4,-37.32 31.2,-53.78 50.4,-70.27 119.4,-110.31 207,-120.06 13.4,-1.5 25.9,-1.89 37.6,-1.19 11.6,0.67 26.8,2.39 45.5,5.12 -5.4,9.36 -9.9,17.44 -13.5,24.26 -3.6,6.77 -7.3,13.57 -10.9,20.37 -3.6,6.78 -7.8,14.22 -12.5,22.34 -4.7,8.11 -10,17.68 -16,28.74 -11.2,21.19 -20.7,39.23 -28.7,54.1 -7.9,14.84 -15.4,28.24 -22.4,40.23 -7.1,11.95 -14.2,23.51 -21.3,34.69 -7.2,11.16 -15.1,23.65 -24,37.41 -10.3,14.72 -19.8,28.15 -28.5,40.29 -8.6,12.14 -16.4,22.21 -23.5,30.19" /><path
         id="path84"
         style="fill:#100f0d;fill-opacity:1;fill-rule:nonzero;stroke:none"
         d="m 9917.58,7278.32 c 7.52,-9.43 16.44,-17.61 26.78,-24.52 18.21,-12.19 36.26,-15.25 54.17,-9.23 17.87,6.07 35.07,21.37 51.47,45.95 11,16.39 20.3,34.89 28,55.5 7.6,20.59 13,42.14 16.2,64.62 1.3,10.54 2.2,21.96 2.5,34.28 0.3,12.3 0.1,25.09 -0.7,38.37 -0.8,13.27 -2,26.73 -3.6,40.35 -1.7,13.64 -3.8,27.04 -6.4,40.2 -4.8,24.34 -11.1,47.91 -18.9,70.71 -7.9,22.81 -16.9,44.26 -27.2,64.35 -9.6,19.16 -19.7,35.05 -30.4,47.68 -10.64,12.65 -22.5,23.33 -35.55,32.07 -40.68,27.23 -76.66,17.48 -107.94,-29.27 -5.7,-8.49 -10.66,-17.71 -14.88,-27.63 -4.24,-9.93 -8.02,-21.66 -11.39,-35.23 -1.65,-7.7 -3.19,-15.24 -4.62,-22.63 -1.42,-7.39 -2.7,-14.9 -3.83,-22.49 -1.04,-9.42 -1.76,-18.38 -2.18,-26.9 -0.42,-8.51 -0.65,-17.36 -0.67,-26.58 -0.01,-9.23 0.42,-19.08 1.33,-29.57 0.87,-10.49 2.06,-22.17 3.56,-35.03 1.29,-11.86 2.62,-22.21 3.97,-31.02 1.34,-8.81 3,-17.17 4.97,-25.08 1.95,-7.9 4.32,-15.85 7.1,-23.87 2.76,-8.01 6.12,-17.28 10.05,-27.84 3.51,-9.81 6.95,-18.5 10.28,-26.01 3.32,-7.48 6.46,-13.98 9.36,-19.46 7.49,-13.8 16.11,-26.37 25.85,-37.74 9.76,-11.36 19.5,-20.3 29.2,-26.8 27.02,-18.09 49.89,-13.16 68.59,14.75 6.3,9.41 11.4,20.96 15.3,34.62 3.8,13.68 6.5,28.82 7.9,45.43 1.5,16.59 1.7,34.09 0.5,52.43 -1.1,18.34 -3.8,36.82 -8,55.48 -3.1,15.71 -7.1,30.67 -11.8,44.86 -4.8,14.19 -10.06,27.04 -15.77,38.54 -5.7,11.53 -11.77,21.52 -18.16,29.97 -6.44,8.5 -12.83,14.85 -19.2,19.12 -16.69,11.19 -31.34,7.36 -43.94,-11.46 -5.49,-8.19 -9,-19.37 -10.55,-33.5 -1.56,-14.12 -0.98,-30.65 1.72,-49.61 2.99,-20.47 7.93,-38.04 14.79,-52.77 6.85,-14.7 15.45,-25.51 25.77,-32.41 1.51,-1.03 4.57,-2.4 9.1,-4.13 l -2.29,-4.4 c -2.92,1.53 -5.3,2.89 -7.12,4.11 -1.52,1.03 -3.2,2.14 -5.01,3.35 -10.01,6.71 -18.68,16.58 -26,29.62 -7.32,13.04 -12.74,28.42 -16.25,46.16 -1.8,9.12 -2.77,18.34 -2.91,27.66 -0.14,9.33 0.39,18.31 1.58,26.97 1.18,8.66 2.98,16.79 5.43,24.38 2.44,7.59 5.61,14.28 9.48,20.05 8.11,12.14 17.61,19.42 28.45,21.81 10.84,2.42 22.33,-0.44 34.48,-8.57 10.61,-7.11 20.35,-17.87 29.15,-32.3 8.75,-14.44 16.25,-31.84 22.45,-52.16 6.5,-21.86 11,-44.62 13.6,-68.29 2.6,-23.66 3.3,-46.64 2,-68.97 -1.4,-22.34 -4.5,-43.25 -9.4,-62.74 -4.9,-19.48 -11.7,-35.73 -20.4,-48.73 -10.35,-15.45 -23.45,-24.18 -39.35,-26.26 -15.89,-2.06 -33.1,3.11 -51.61,15.49 -19.43,13.02 -36.31,32.78 -50.67,59.25 -14.34,26.51 -25.63,58.93 -33.78,97.29 -5.65,27.03 -9.25,54.65 -10.79,82.86 -1.54,28.23 -1.04,55.43 1.51,81.55 2.55,26.16 7.03,50.23 13.44,72.25 6.4,22.02 14.64,40.61 24.78,55.75 5.06,7.58 10.41,14.41 16.04,20.52 5.63,6.08 11.28,11.4 16.94,15.94 14.91,12.41 32.46,18.62 52.72,18.66 20.25,0.05 39.77,-6.23 58.57,-18.85 14.6,-9.76 28.2,-23.91 40.8,-42.46 12.7,-18.56 23.8,-40.04 33.4,-64.46 9.5,-24.42 17.3,-50.8 23.2,-79.1 5.8,-28.32 9.2,-57.23 10.1,-86.82 0.7,-23.27 0.1,-45.81 -1.8,-67.63 -1.8,-21.82 -5,-41.73 -9.6,-59.73 -4.6,-18.01 -11,-36.04 -19.1,-54.1 -8.1,-18.05 -17.1,-34.35 -26.8,-48.9 -17.9,-26.67 -36.8,-43.65 -56.81,-50.88 -20.03,-7.24 -39.6,-4.46 -58.72,8.35 -22.16,14.83 -36.86,35.89 -44.1,63.14 l 5.17,1.82 c 3.43,-10.64 8.9,-20.68 16.44,-30.13" /><path
         id="path86"
         style="fill:#100f0d;fill-opacity:1;fill-rule:nonzero;stroke:none"
         d="m 10082.9,7126.2 -1.8,-5.15 c -27.3,7.21 -48.3,21.91 -63.2,44.09 -12.8,19.12 -15.5,38.69 -8.3,58.7 7.2,20.01 24.2,38.94 50.9,56.82 14.5,9.74 30.8,18.66 48.9,26.79 18,8.14 36.1,14.5 54.1,19.07 18,4.59 37.9,7.8 59.7,9.66 21.8,1.86 44.4,2.44 67.7,1.76 29.5,-0.86 58.5,-4.23 86.8,-10.12 28.3,-5.87 54.6,-13.62 79.1,-23.2 24.4,-9.59 45.9,-20.69 64.4,-33.34 18.6,-12.64 32.7,-26.23 42.5,-40.81 12.6,-18.82 18.9,-38.34 18.8,-58.58 0,-20.24 -6.2,-37.82 -18.6,-52.73 -4.6,-5.66 -9.9,-11.29 -16,-16.93 -6.1,-5.61 -12.9,-10.99 -20.5,-16.05 -15.1,-10.13 -33.7,-18.39 -55.7,-24.78 -22.1,-6.41 -46.1,-10.87 -72.3,-13.42 -26.1,-2.57 -53.3,-3.08 -81.5,-1.53 -28.3,1.55 -55.9,5.15 -82.9,10.81 -38.3,8.14 -70.8,19.41 -97.3,33.77 -26.5,14.35 -46.2,31.24 -59.2,50.66 -12.4,18.51 -17.6,35.73 -15.5,51.62 2.1,15.89 10.8,28.99 26.2,39.31 13,8.72 29.3,15.54 48.8,20.45 19.5,4.9 40.4,8.02 62.7,9.36 22.3,1.32 45.3,0.68 69,-1.96 23.7,-2.61 46.4,-7.16 68.3,-13.62 20.3,-6.17 37.7,-13.67 52.1,-22.46 14.5,-8.79 25.2,-18.52 32.3,-29.15 8.2,-12.13 11,-23.62 8.6,-34.47 -2.4,-10.85 -9.7,-20.32 -21.8,-28.45 -5.8,-3.86 -12.5,-7.03 -20,-9.48 -7.7,-2.44 -15.8,-4.25 -24.4,-5.44 -8.7,-1.18 -17.7,-1.7 -27,-1.57 -9.3,0.14 -18.5,1.12 -27.7,2.93 -17.7,3.51 -33.1,8.92 -46.1,16.23 -13.1,7.31 -22.9,16 -29.6,26.02 -1.3,1.81 -2.4,3.47 -3.4,5 -1.2,1.81 -2.6,4.19 -4.1,7.13 l 4.4,2.3 c 1.7,-4.56 3.1,-7.6 4.1,-9.13 6.9,-10.32 17.7,-18.91 32.4,-25.76 14.8,-6.88 32.3,-11.8 52.8,-14.8 19,-2.69 35.5,-3.27 49.6,-1.73 14.1,1.55 25.3,5.08 33.5,10.57 18.8,12.6 22.6,27.23 11.5,43.93 -4.3,6.37 -10.6,12.77 -19.1,19.19 -8.5,6.42 -18.5,12.47 -30,18.18 -11.5,5.69 -24.4,10.93 -38.6,15.72 -14.1,4.78 -29.1,8.73 -44.8,11.85 -18.7,4.23 -37.2,6.89 -55.5,8.02 -18.3,1.14 -35.8,0.96 -52.4,-0.47 -16.6,-1.46 -31.8,-4.12 -45.5,-8 -13.6,-3.88 -25.2,-8.97 -34.6,-15.26 -27.9,-18.7 -32.8,-41.56 -14.7,-68.59 6.5,-9.71 15.4,-19.43 26.8,-29.19 11.3,-9.74 23.9,-18.37 37.7,-25.84 5.5,-2.92 12,-6.06 19.5,-9.39 7.5,-3.31 16.2,-6.75 26,-10.26 10.5,-3.94 19.8,-7.29 27.8,-10.07 8,-2.75 16,-5.12 23.9,-7.09 7.9,-1.96 16.2,-3.62 25.1,-4.96 8.8,-1.35 19.1,-2.68 31,-3.99 12.9,-1.48 24.5,-2.67 35,-3.55 10.5,-0.9 20.4,-1.33 29.6,-1.32 9.2,0.02 18.1,0.24 26.6,0.66 8.5,0.42 17.4,1.15 26.9,2.19 7.6,1.12 15,2.4 22.4,3.83 7.4,1.43 15,2.98 22.7,4.6 13.6,3.38 25.3,7.17 35.2,11.39 9.9,4.23 19.2,9.19 27.6,14.88 46.8,31.31 56.5,67.29 29.3,107.95 -8.7,13.05 -19.4,24.93 -32.1,35.58 -12.6,10.66 -28.5,20.79 -47.6,30.38 -20.1,10.28 -41.6,19.35 -64.4,27.14 -22.8,7.82 -46.3,14.13 -70.7,18.93 -13.2,2.6 -26.6,4.74 -40.2,6.39 -13.6,1.63 -27.1,2.86 -40.4,3.65 -13.2,0.78 -26,1 -38.3,0.66 -12.3,-0.3 -23.7,-1.13 -34.3,-2.49 -22.5,-3.17 -44,-8.6 -64.6,-16.23 -20.6,-7.64 -39.1,-16.94 -55.5,-27.91 -24.6,-16.48 -39.9,-33.65 -46,-51.55 -6,-17.87 -2.9,-35.94 9.3,-54.14 6.9,-10.33 15.1,-19.25 24.5,-26.78 9.4,-7.54 19.5,-13.01 30.1,-16.43" /><path
         id="path88"
         style="fill:#000000;fill-opacity:1;fill-rule:nonzero;stroke:none"
         d="m 9581.2,7641.86 c -8.75,-8.75 -22.95,-8.76 -31.72,0 -8.73,8.75 -8.73,22.94 0.02,31.71 8.75,8.75 22.95,8.75 31.7,0 8.75,-8.77 8.75,-22.96 0,-31.71" /><path
         id="path90"
         style="fill:#000000;fill-opacity:1;fill-rule:nonzero;stroke:none"
         d="m 9962.79,7442.55 c -6.13,-6.13 -16.07,-6.14 -22.19,-0.01 -6.14,6.13 -6.14,16.07 0.01,22.19 6.12,6.12 16.05,6.12 22.18,0 6.13,-6.12 6.13,-16.06 0,-22.18" /><path
         id="path92"
         style="fill:#000000;fill-opacity:1;fill-rule:nonzero;stroke:none"
         d="m 10238.1,7162.82 c -6.1,-6.12 -16,-6.12 -22.2,0 -6.1,6.13 -6.1,16.08 0,22.2 6.2,6.12 16.1,6.12 22.2,-0.01 6.2,-6.12 6.2,-16.06 0,-22.19" /><path
         id="path94"
         style="fill:#000000;fill-opacity:1;fill-rule:nonzero;stroke:none"
         d="m 10441.7,6770.96 c -8.7,-8.75 -22.9,-8.76 -31.7,-0.01 -8.7,8.76 -8.7,22.96 0,31.71 8.8,8.76 23,8.76 31.7,0 8.8,-8.76 8.8,-22.95 0,-31.7" /><path
         id="path96"
         style="fill:#000000;fill-opacity:1;fill-rule:nonzero;stroke:none"
         d="m 10165.5,7791.39 h 403.2 v -397.32 l -5.9,-0.01 5.9,0.01 v -5.94 h -403.2 v 403.26 z m 11.9,-11.9 v -379.47 h 379.4 v 379.47 h -379.4 v 0" /><path
         id="path98"
         style="fill:#000000;fill-opacity:1;fill-rule:nonzero;stroke:none"
         d="m 10205.1,7751.76 324,-0.02 v -323.97 l -318,-0.02 h -6 v 324.01 z m 6,-318.08 h 5.9 -5.9 z m 5.9,306.18 v -300.22 h 300.2 v 300.2 l -300.2,0.02 v 0" /><path
         id="path100"
         style="fill:#000000;fill-opacity:1;fill-rule:nonzero;stroke:none"
         d="m 10244.7,7712.14 244.8,-0.04 v -244.73 l -238.8,0.02 h -5.9 l -0.1,244.75 z m 6,-238.82 6,0.02 -6,-0.02 z m 5.9,226.91 0.1,-220.94 220.9,-0.01 v 220.93 l -221,0.02 v 0" /><path
         id="path102"
         style="fill:#211d1d;fill-opacity:1;fill-rule:nonzero;stroke:none"
         d="m 381.578,6013.34 h -13.902 v -3692.8 h 13.902 v 3692.8" /><path
         id="path104"
         style="fill:#211d1d;fill-opacity:1;fill-rule:nonzero;stroke:none"
         d="m 10722.2,2320.54 h 13.9 v 3692.8 h -13.9 v -3692.8" /><path
         id="path106"
         style="fill:#211d1d;fill-opacity:1;fill-rule:nonzero;stroke:none"
         d="m 2326.76,7950.4 h 6458.31 v 13.9 H 2326.76 v -13.9" /><path
         id="path108"
         style="fill:#211d1d;fill-opacity:1;fill-rule:nonzero;stroke:none"
         d="m 2326.76,380.723 v -13.907 h 6458.3 v 13.907 h -6458.3" /></g></g></svg>