<svg width="128" height="40" viewBox="0 0 128 40" fill="none" xmlns="http://www.w3.org/2000/svg">
<path d="M53.4884 26V13.31H55.4144L60.2024 22.148H59.6264L64.3964 13.31H66.2864V26H64.1984V16.73H64.5944L60.5624 24.074H59.2124L55.1444 16.712H55.5764V26H53.4884ZM72.0494 26.18C71.3174 26.18 70.7114 26.048 70.2314 25.784C69.7514 25.508 69.3914 25.1 69.1514 24.56C68.9234 24.02 68.8094 23.348 68.8094 22.544V17.198H71.0594V22.58C71.0594 22.988 71.1134 23.33 71.2214 23.606C71.3414 23.882 71.5154 24.086 71.7434 24.218C71.9834 24.35 72.2834 24.416 72.6434 24.416C73.0514 24.416 73.4054 24.326 73.7054 24.146C74.0174 23.954 74.2574 23.69 74.4254 23.354C74.6054 23.006 74.6954 22.604 74.6954 22.148V17.198H76.9454V26H74.7494V24.164H75.0014C74.7494 24.812 74.3654 25.31 73.8494 25.658C73.3454 26.006 72.7454 26.18 72.0494 26.18ZM87.4148 26V15.236H83.0588V13.31H94.0748V15.236H89.7188V26H87.4148ZM97.9262 26.18C97.0142 26.18 96.2222 25.994 95.5502 25.622C94.8782 25.25 94.3562 24.722 93.9842 24.038C93.6122 23.342 93.4262 22.526 93.4262 21.59C93.4262 20.654 93.6122 19.844 93.9842 19.16C94.3562 18.476 94.8782 17.948 95.5502 17.576C96.2222 17.204 97.0142 17.018 97.9262 17.018C98.8382 17.018 99.6302 17.204 100.302 17.576C100.974 17.948 101.496 18.476 101.868 19.16C102.24 19.844 102.426 20.654 102.426 21.59C102.426 22.526 102.24 23.342 101.868 24.038C101.496 24.722 100.974 25.25 100.302 25.622C99.6302 25.994 98.8382 26.18 97.9262 26.18ZM97.9262 24.47C98.5982 24.47 99.1382 24.23 99.5462 23.75C99.9542 23.258 100.158 22.538 100.158 21.59C100.158 20.63 99.9542 19.916 99.5462 19.448C99.1382 18.968 98.5982 18.728 97.9262 18.728C97.2542 18.728 96.7142 18.968 96.3062 19.448C95.8982 19.916 95.6942 20.63 95.6942 21.59C95.6942 22.538 95.8982 23.258 96.3062 23.75C96.7142 24.23 97.2542 24.47 97.9262 24.47ZM108.297 26.18C107.385 26.18 106.593 25.994 105.921 25.622C105.249 25.25 104.727 24.722 104.355 24.038C103.983 23.342 103.797 22.526 103.797 21.59C103.797 20.654 103.983 19.844 104.355 19.16C104.727 18.476 105.249 17.948 105.921 17.576C106.593 17.204 107.385 17.018 108.297 17.018C109.209 17.018 110.001 17.204 110.673 17.576C111.345 17.948 111.867 18.476 112.239 19.16C112.611 19.844 112.797 20.654 112.797 21.59C112.797 22.526 112.611 23.342 112.239 24.038C111.867 24.722 111.345 25.25 110.673 25.622C110.001 25.994 109.209 26.18 108.297 26.18ZM108.297 24.47C108.969 24.47 109.509 24.23 109.917 23.75C110.325 23.258 110.529 22.538 110.529 21.59C110.529 20.63 110.325 19.916 109.917 19.448C109.509 18.968 108.969 18.728 108.297 18.728C107.625 18.728 107.085 18.968 106.677 19.448C106.269 19.916 106.065 20.63 106.065 21.59C106.065 22.538 106.269 23.258 106.677 23.75C107.085 24.23 107.625 24.47 108.297 24.47ZM117.714 26.18C116.67 26.18 115.896 25.898 115.392 25.334C114.9 24.758 114.654 23.918 114.654 22.814V13.31H116.904V22.706C116.904 23.054 116.952 23.354 117.048 23.606C117.156 23.846 117.312 24.026 117.516 24.146C117.72 24.266 117.972 24.326 118.272 24.326C118.404 24.326 118.536 24.32 118.668 24.308C118.8 24.296 118.926 24.272 119.046 24.236L119.01 26.018C118.794 26.066 118.578 26.102 118.362 26.126C118.158 26.162 117.942 26.18 117.714 26.18ZM123.537 26.18C123.045 26.18 122.565 26.138 122.097 26.054C121.641 25.97 121.221 25.856 120.837 25.712C120.453 25.556 120.117 25.364 119.829 25.136L120.405 23.66C120.705 23.852 121.029 24.02 121.377 24.164C121.725 24.308 122.085 24.416 122.457 24.488C122.829 24.56 123.195 24.596 123.555 24.596C124.131 24.596 124.557 24.5 124.833 24.308C125.121 24.104 125.265 23.84 125.265 23.516C125.265 23.24 125.169 23.03 124.977 22.886C124.797 22.73 124.521 22.616 124.149 22.544L122.349 22.202C121.605 22.058 121.035 21.788 120.639 21.392C120.255 20.984 120.063 20.462 120.063 19.826C120.063 19.25 120.219 18.752 120.531 18.332C120.855 17.912 121.299 17.588 121.863 17.36C122.427 17.132 123.075 17.018 123.807 17.018C124.227 17.018 124.635 17.06 125.031 17.144C125.427 17.216 125.799 17.33 126.147 17.486C126.507 17.63 126.819 17.822 127.083 18.062L126.471 19.538C126.243 19.346 125.979 19.184 125.679 19.052C125.379 18.908 125.067 18.8 124.743 18.728C124.431 18.644 124.125 18.602 123.825 18.602C123.237 18.602 122.799 18.704 122.511 18.908C122.235 19.112 122.097 19.382 122.097 19.718C122.097 19.97 122.181 20.18 122.349 20.348C122.517 20.516 122.775 20.63 123.123 20.69L124.923 21.032C125.703 21.176 126.291 21.44 126.687 21.824C127.095 22.208 127.299 22.724 127.299 23.372C127.299 23.96 127.143 24.464 126.831 24.884C126.519 25.304 126.081 25.628 125.517 25.856C124.953 26.072 124.293 26.18 123.537 26.18Z" fill="#DE283B"/>
<path d="M36.7136 3.75057V3.6792H36.6422H30.9927C30.1342 3.6792 29.4118 2.87301 29.4118 1.87528C29.4118 0.876763 30.1083 0.0713648 30.9927 0.0713648H36.6156C38.4067 0.0713648 39.8753 1.72446 39.8753 3.78081V11.3727C39.8753 12.3704 39.1529 13.1766 38.2945 13.1766C37.4353 13.1766 36.7136 12.3999 36.7136 11.3727V3.75057ZM1.65223 13.2069H1.58087V13.2353C0.753511 13.1937 0.0713648 12.4318 0.0713648 11.4332V3.81106C0.0713648 1.7547 1.53998 0.101611 3.33111 0.101611H9.03398C9.8924 0.101611 10.6148 0.907803 10.6148 1.90553C10.6148 2.90405 9.91836 3.70945 9.03398 3.70945H3.30446H3.2331V3.78081V11.4029C3.2331 12.4015 2.53661 13.2069 1.65223 13.2069ZM3.33111 35.611H8.96261V35.6413H9.03398C9.8924 35.6413 10.6148 36.4474 10.6148 37.4452C10.6148 38.4437 9.91836 39.2491 9.03398 39.2491H3.35776C1.56662 39.2491 0.0980137 37.596 0.0980137 35.5396V27.9175C0.0980137 26.9198 0.820456 26.1136 1.67888 26.1136C2.53801 26.1136 3.25975 26.8903 3.25975 27.9175V35.5396V35.611H3.33111ZM38.3211 26.1136H38.3534L38.3747 26.0894L38.3797 26.0837C39.2247 26.1027 39.9286 26.8728 39.9286 27.8873V35.5094C39.9286 37.5657 38.46 39.2188 36.6689 39.2188H31.0193C30.1609 39.2188 29.4385 38.4127 29.4385 37.4149C29.4385 36.4164 30.1349 35.611 31.0193 35.611H36.6689H36.7403V35.5396V27.9175C36.7403 26.919 37.4367 26.1136 38.3211 26.1136Z" fill="#DE283B" stroke="#DE283B" stroke-width="0.14273"/>
<path d="M14.9796 14.715H15.051V14.6437V9.9857V9.91434H14.9796H9.40999H9.33862V9.9857V14.6437V14.715H9.40999H14.9796ZM9.40999 6.27626H14.9796C16.7707 6.27626 18.2394 7.92935 18.2394 9.9857V14.6437C18.2394 16.7 16.7707 18.3531 14.9796 18.3531H9.40999C7.61885 18.3531 6.15024 16.7 6.15024 14.6437V9.9857C6.15024 7.92935 7.61885 6.27626 9.40999 6.27626ZM21.7398 13.2329H28.3126V16.871H21.7398V13.2329ZM21.7398 7.78858H33.829V11.4267H21.7398V7.78858ZM11.6666 22.4581H18.2394V26.0962H11.6666V22.4581ZM6.15024 27.9025H18.2394V31.5406H6.15024V27.9025Z" fill="#DE283B" stroke="#DE283B" stroke-width="0.14273"/>
<path d="M27.827 24.4996C28.0747 24.4996 28.32 24.4508 28.5488 24.356C28.7777 24.2612 28.9856 24.1223 29.1607 23.9471C29.3359 23.772 29.4748 23.564 29.5696 23.3352C29.6644 23.1064 29.7132 22.8611 29.7132 22.6134C29.7132 22.3657 29.6644 22.1204 29.5696 21.8916C29.4748 21.6628 29.3359 21.4548 29.1607 21.2797C28.9856 21.1046 28.7777 20.9656 28.5488 20.8708C28.32 20.776 28.0747 20.7273 27.827 20.7273C27.3268 20.7273 26.847 20.926 26.4933 21.2797C26.1396 21.6334 25.9409 22.1132 25.9409 22.6134C25.9409 23.1136 26.1396 23.5934 26.4933 23.9471C26.847 24.3008 27.3268 24.4996 27.827 24.4996ZM22.9769 30.1041V30.4275H32.6771V30.1041C32.6771 28.897 32.6771 28.2934 32.4422 27.8321C32.2355 27.4265 31.9058 27.0968 31.5002 26.8901C31.0389 26.6552 30.4353 26.6552 29.2282 26.6552H26.4259C25.2188 26.6552 24.6152 26.6552 24.1539 26.8901C23.7483 27.0968 23.4185 27.4265 23.2119 27.8321C22.9769 28.2934 22.9769 28.897 22.9769 30.1041Z" fill="#DE283B" stroke="#DE283B" stroke-width="1.85006" stroke-linecap="round" stroke-linejoin="round"/>
</svg>
