<svg width="243" height="243" viewBox="0 0 243 243" fill="none" xmlns="http://www.w3.org/2000/svg">
<path d="M151.875 151.875H192.375L222.75 222.75H20.25L50.625 151.875H91.125M131.625 81C131.625 83.6853 130.558 86.2606 128.659 88.1595C126.761 90.0583 124.185 91.125 121.5 91.125C118.815 91.125 116.239 90.0583 114.341 88.1595C112.442 86.2606 111.375 83.6853 111.375 81C111.375 78.3147 112.442 75.7394 114.341 73.8405C116.239 71.9417 118.815 70.875 121.5 70.875C124.185 70.875 126.761 71.9417 128.659 73.8405C130.558 75.7394 131.625 78.3147 131.625 81ZM60.75 81C60.75 131.625 121.5 182.25 121.5 182.25C121.5 182.25 182.25 131.625 182.25 81C182.25 46.4029 155.054 20.25 121.5 20.25C87.9458 20.25 60.75 46.4029 60.75 81Z" stroke="" stroke-width="20.25"/>
</svg>
