<svg width="416" height="416" viewBox="0 0 416 416" fill="none" xmlns="http://www.w3.org/2000/svg">
<path fill-rule="evenodd" clip-rule="evenodd" d="M208 0C116.098 0 41.6001 74.4965 41.6001 166.397C41.6001 212.332 60.2207 253.928 90.3142 284.036C120.423 314.159 191.362 357.751 195.521 403.521C196.152 410.384 201.123 416 208 416C214.893 416 219.863 410.384 220.494 403.521C224.654 357.751 295.578 314.159 325.686 284.036C355.794 253.928 374.4 212.332 374.4 166.397C374.4 74.4965 299.902 0 208 0Z" fill="#FF4433"/>
<path fill-rule="evenodd" clip-rule="evenodd" d="M208.467 225.277C240.722 225.277 266.864 199.12 266.864 166.879C266.864 134.623 240.722 108.466 208.467 108.466C176.211 108.466 150.069 134.623 150.069 166.879C150.069 199.12 176.211 225.277 208.467 225.277Z" fill="white"/>
</svg>
