<svg width="677" height="676" viewBox="0 0 677 676" fill="none" xmlns="http://www.w3.org/2000/svg">
<path d="M423.435 478.803C438.375 478.803 452.704 472.868 463.269 462.304C473.833 451.739 479.768 437.411 479.768 422.47C479.768 407.53 473.833 393.201 463.269 382.636C452.704 372.072 438.375 366.137 423.435 366.137C408.494 366.137 394.166 372.072 383.601 382.636C373.037 393.201 367.102 407.53 367.102 422.47C367.102 437.411 373.037 451.739 383.601 462.304C394.166 472.868 408.494 478.803 423.435 478.803Z"/>
<path fill-rule="evenodd" clip-rule="evenodd" d="M169.875 84.5C147.464 84.5 125.971 93.4027 110.124 109.249C94.2777 125.096 85.375 146.589 85.375 169V507C85.375 529.411 94.2777 550.904 110.124 566.751C125.971 582.597 147.464 591.5 169.875 591.5H507.875C530.286 591.5 551.779 582.597 567.626 566.751C583.472 550.904 592.375 529.411 592.375 507V169C592.375 146.589 583.472 125.096 567.626 109.249C551.779 93.4027 530.286 84.5 507.875 84.5H169.875ZM141.708 507V197.167H536.042V507C536.042 514.47 533.074 521.635 527.792 526.917C522.51 532.199 515.345 535.167 507.875 535.167H169.875C162.405 535.167 155.24 532.199 149.958 526.917C144.676 521.635 141.708 514.47 141.708 507Z"/>
</svg>
