<svg width="222" height="166" viewBox="0 0 222 166" fill="none" xmlns="http://www.w3.org/2000/svg">
<path d="M158.084 64.1666H186.334M186.334 64.1666H214.584M186.334 64.1666V35.9166M186.334 64.1666V92.4166M7.41699 158.333V148.917C7.41699 131.434 14.3618 114.668 26.7235 102.307C39.0853 89.9447 55.8515 83 73.3337 83M73.3337 83C90.8158 83 107.582 89.9447 119.944 102.307C132.306 114.668 139.25 131.434 139.25 148.917V158.333M73.3337 83C83.3235 83 92.9041 79.0315 99.968 71.9677C107.032 64.9038 111 55.3231 111 45.3333C111 35.3435 107.032 25.7628 99.968 18.6989C92.9041 11.6351 83.3235 7.66663 73.3337 7.66663C63.3438 7.66663 53.7632 11.6351 46.6993 18.6989C39.6354 25.7628 35.667 35.3435 35.667 45.3333C35.667 55.3231 39.6354 64.9038 46.6993 71.9677C53.7632 79.0315 63.3438 83 73.3337 83Z"  stroke-width="14.125" stroke-linecap="round" stroke-linejoin="round"/>
</svg>
