<svg width="125" height="153" viewBox="0 0 125 153" fill="none" xmlns="http://www.w3.org/2000/svg">
<path d="M7.5 128.062V24.9375C7.5 20.3791 9.31082 16.0074 12.5341 12.7841C15.7574 9.56082 20.1291 7.75 24.6875 7.75H110.625C112.448 7.75 114.197 8.47433 115.486 9.76364C116.776 11.053 117.5 12.8016 117.5 14.625V138.375C117.5 140.198 116.776 141.947 115.486 143.236C114.197 144.526 112.448 145.25 110.625 145.25H24.6875C20.1291 145.25 15.7574 143.439 12.5341 140.216C9.31082 136.993 7.5 132.621 7.5 128.062ZM7.5 128.062C7.5 123.504 9.31082 119.132 12.5341 115.909C15.7574 112.686 20.1291 110.875 24.6875 110.875H117.5"  stroke-width="13.75" stroke-linecap="round" stroke-linejoin="round"/>
</svg>
