<svg width="165" height="165" viewBox="0 0 165 165" fill="none" xmlns="http://www.w3.org/2000/svg">
<path d="M27.5 134.062V30.9375C27.5 26.3791 29.3108 22.0074 32.5341 18.7841C35.7574 15.5608 40.1291 13.75 44.6875 13.75H130.625C132.448 13.75 134.197 14.4743 135.486 15.7636C136.776 17.053 137.5 18.8016 137.5 20.625V144.375C137.5 146.198 136.776 147.947 135.486 149.236C134.197 150.526 132.448 151.25 130.625 151.25H44.6875C40.1291 151.25 35.7574 149.439 32.5341 146.216C29.3108 142.993 27.5 138.621 27.5 134.062ZM27.5 134.062C27.5 129.504 29.3108 125.132 32.5341 121.909C35.7574 118.686 40.1291 116.875 44.6875 116.875H137.5" stroke="black" stroke-width="13.75" stroke-linecap="round" stroke-linejoin="round"/>
<path d="M88.4386 33.5003C95.0869 34.2008 101.297 37.1495 106.042 41.8587C110.786 46.5679 113.782 52.7555 114.532 59.3983M88.4386 46.5471C91.6466 47.1797 94.5903 48.7619 96.8877 51.0884C99.1851 53.415 100.73 56.3783 101.322 59.594M114.369 82.165V91.9501C114.373 92.8585 114.187 93.7576 113.823 94.59C113.459 95.4223 112.925 96.1694 112.256 96.7835C111.587 97.3976 110.796 97.8652 109.936 98.1562C109.075 98.4472 108.163 98.5553 107.259 98.4735C97.2221 97.3818 87.5813 93.9522 79.1102 88.4601C71.2293 83.4523 64.5477 76.7707 59.5399 68.8898C54.0287 60.3802 50.5983 50.6925 49.5265 40.6108C49.445 39.7089 49.5522 38.7998 49.8412 37.9415C50.1303 37.0833 50.5949 36.2946 51.2055 35.6257C51.8161 34.9568 52.5592 34.4224 53.3877 34.0565C54.2161 33.6906 55.1116 33.5012 56.0173 33.5003H65.8024C67.3853 33.4847 68.9199 34.0453 70.1201 35.0775C71.3203 36.1096 72.1043 37.543 72.3258 39.1105C72.7377 42.2421 73.5037 45.3169 74.609 48.2758C75.0478 49.4433 75.1428 50.7121 74.8827 51.9318C74.6225 53.1516 74.0182 54.2712 73.1412 55.1581L68.9989 59.3004C73.6421 67.4663 80.4033 74.2274 88.5691 78.8707L92.7115 74.7283C93.5983 73.8513 94.7179 73.247 95.9377 72.9868C97.1575 72.7267 98.4262 72.8217 99.5937 73.2605C102.553 74.3658 105.627 75.1318 108.759 75.5437C110.344 75.7672 111.791 76.5653 112.825 77.7861C113.859 79.0069 114.409 80.5654 114.369 82.165Z" stroke="black" stroke-width="9" stroke-linecap="round" stroke-linejoin="round"/>
</svg>
