<svg width="720" height="720" viewBox="0 0 720 720" fill="none" xmlns="http://www.w3.org/2000/svg">
<path fill-rule="evenodd" clip-rule="evenodd" d="M240.167 210.208C240.167 178.427 252.792 147.946 275.265 125.473C297.738 103 328.218 90.375 360 90.375C391.782 90.375 422.262 103 444.735 125.473C467.208 147.946 479.833 178.427 479.833 210.208C479.833 241.99 467.208 272.47 444.735 294.943C422.262 317.416 391.782 330.042 360 330.042C328.218 330.042 297.738 317.416 275.265 294.943C252.792 272.47 240.167 241.99 240.167 210.208ZM240.167 389.958C200.439 389.958 162.339 405.74 134.248 433.831C106.157 461.923 90.375 500.023 90.375 539.75C90.375 563.586 99.8439 586.446 116.699 603.301C133.554 620.156 156.414 629.625 180.25 629.625H539.75C563.586 629.625 586.446 620.156 603.301 603.301C620.156 586.446 629.625 563.586 629.625 539.75C629.625 500.023 613.843 461.923 585.752 433.831C557.661 405.74 519.561 389.958 479.833 389.958H240.167Z"/>
</svg>
