<svg width="676" height="676" viewBox="0 0 676 676" fill="none" xmlns="http://www.w3.org/2000/svg">
<path d="M472.299 160.98C481.905 149.536 495.665 142.376 510.55 141.077C525.436 139.777 540.228 144.444 551.672 154.051C563.117 163.658 570.276 177.418 571.576 192.303C572.875 207.188 568.208 221.98 558.601 233.425L305.129 535.484C300.433 541.328 294.617 546.175 288.023 549.742C281.429 553.309 274.189 555.524 266.728 556.257C259.267 556.989 251.735 556.226 244.573 554.01C237.41 551.795 230.763 548.172 225.019 543.354C219.275 538.536 214.55 532.62 211.122 525.953C207.694 519.285 205.631 512.001 205.054 504.526C204.478 497.051 205.399 489.537 207.764 482.423C210.129 475.308 213.89 468.738 218.827 463.096L472.299 160.98ZM84.5 358.879C84.5 343.939 90.4351 329.61 101 319.046C111.564 308.481 125.893 302.546 140.833 302.546C155.774 302.546 170.102 308.481 180.667 319.046C191.232 329.61 197.167 343.939 197.167 358.879C197.167 373.82 191.232 388.148 180.667 398.713C170.102 409.277 155.774 415.213 140.833 415.213C125.893 415.213 111.564 409.277 101 398.713C90.4351 388.148 84.5 373.82 84.5 358.879Z"/>
</svg>
