<svg width="165" height="165" viewBox="0 0 165 165" fill="none" xmlns="http://www.w3.org/2000/svg">
<path d="M123.75 55C123.75 85.9375 82.5 116.875 82.5 116.875C82.5 116.875 41.25 85.9375 41.25 55C41.25 44.0598 45.596 33.5677 53.3318 25.8318C61.0677 18.096 71.5598 13.75 82.5 13.75C93.4402 13.75 103.932 18.096 111.668 25.8318C119.404 33.5677 123.75 44.0598 123.75 55Z" stroke="white" stroke-width="13.75" stroke-linecap="round" stroke-linejoin="round"/>
<path d="M82.5 68.75C90.0939 68.75 96.25 62.5939 96.25 55C96.25 47.4061 90.0939 41.25 82.5 41.25C74.9061 41.25 68.75 47.4061 68.75 55C68.75 62.5939 74.9061 68.75 82.5 68.75Z" stroke="white" stroke-width="13.75" stroke-linecap="round" stroke-linejoin="round"/>
<path d="M60.7406 96.25H34.375C32.9762 96.3262 31.634 96.8279 30.5282 97.688C29.4224 98.5481 28.6057 99.7255 28.1875 101.062L14.4375 142.313C13.75 143 13.75 143.687 13.75 144.375C13.75 148.5 16.5 151.25 20.625 151.25H144.375C148.5 151.25 151.25 148.5 151.25 144.375C151.25 143.687 151.25 143 150.562 142.313L136.812 101.062C136.394 99.7255 135.578 98.5481 134.472 97.688C133.366 96.8279 132.024 96.3262 130.625 96.25H104.259" stroke="white" stroke-width="13.75" stroke-linecap="round" stroke-linejoin="round"/>
</svg>
