<svg width="165" height="165" viewBox="0 0 165 165" fill="none" xmlns="http://www.w3.org/2000/svg">
<path d="M67.9253 67.925C65.8989 69.8132 64.2736 72.0902 63.1463 74.6202C62.0191 77.1502 61.4129 79.8813 61.364 82.6506C61.3152 85.42 61.8246 88.1708 62.8619 90.7389C63.8993 93.3071 65.4432 95.6401 67.4018 97.5986C69.3603 99.5571 71.6932 101.101 74.2614 102.138C76.8296 103.176 79.5804 103.685 82.3497 103.636C85.119 103.587 87.8501 102.981 90.3801 101.854C92.9101 100.727 95.1871 99.1014 97.0753 97.075M73.7691 34.925C76.6649 34.5565 79.5812 34.3728 82.5003 34.375C130.625 34.375 151.25 82.5 151.25 82.5C148.174 89.079 144.32 95.2649 139.769 100.925" stroke="white" stroke-width="13.75" stroke-linecap="round" stroke-linejoin="round"/>
<path d="M45.4438 45.4438C31.7653 54.7503 20.823 67.5439 13.75 82.5C13.75 82.5 34.375 130.625 82.5 130.625C95.6719 130.66 108.562 126.81 119.556 119.556M13.75 13.75L151.25 151.25" stroke="white" stroke-width="13.75" stroke-linecap="round" stroke-linejoin="round"/>
</svg>
