<svg width="16" height="16" viewBox="0 0 16 16" fill="none" xmlns="http://www.w3.org/2000/svg">
<path d="M9.23334 3.46442C9.23334 1.89623 10.4318 0.697754 12 0.697754C13.5682 0.697754 14.7667 1.89623 14.7667 3.46442C14.7667 4.16278 14.5555 4.8367 14.348 5.33338H9.65207C9.44449 4.8367 9.23334 4.16278 9.23334 3.46442Z" fill="#28251B"/>
<path d="M10 6.66671C10 7.77128 10.8955 8.66671 12 8.66671C13.1046 8.66671 14 7.77128 14 6.66671H10Z" fill="#28251B"/>
<path d="M4.25033 1.60004H5.08306C5.64527 1.59991 6.0047 1.59983 6.32128 1.70066C6.80079 1.85338 7.21086 2.1707 7.47904 2.59653C7.65609 2.87768 7.74622 3.22562 7.88719 3.76988L8.22496 5.07277C8.38947 5.70728 8.08795 6.37043 7.50166 6.66358C6.93239 6.94821 6.2425 6.80948 5.8275 6.32693L5.50431 5.95113C5.29444 5.70709 4.98857 5.56671 4.66669 5.56671C4.34482 5.56671 4.03895 5.70709 3.82908 5.95113L3.50589 6.32693C3.09089 6.80948 2.401 6.94821 1.83173 6.66358C1.24544 6.37043 0.943922 5.70728 1.10843 5.07277L1.4462 3.76988C1.58717 3.22562 1.6773 2.87768 1.85435 2.59653C2.12253 2.1707 2.5326 1.85338 3.01211 1.70066C3.32869 1.59983 3.68812 1.59991 4.25033 1.60004Z" fill="#28251B"/>
<path d="M6.66669 8.92697C6.66669 8.2764 6.0553 7.79904 5.42415 7.95683L2.75748 8.6235C2.31232 8.73479 2.00002 9.13477 2.00002 9.59364V12.9966C1.87052 13.0128 1.7402 13.0513 1.61346 13.1146L1.32363 13.2596C0.921011 13.4609 0.666687 13.8724 0.666687 14.3225C0.666687 15.206 1.5964 15.7805 2.38658 15.3855L2.67641 15.2405C2.89546 15.131 3.0706 14.9593 3.18479 14.753C3.27769 14.6384 3.33335 14.4924 3.33335 14.3334V10.6872L5.33335 10.1872V12.4966C5.20385 12.5128 5.07353 12.5513 4.9468 12.6146L4.65696 12.7596C4.25434 12.9609 4.00002 13.3724 4.00002 13.8225C4.00002 14.706 4.92973 15.2805 5.71991 14.8855L6.00975 14.7405C6.41236 14.5392 6.66669 14.1277 6.66669 13.6776L6.66667 13.6713L6.66669 13.6667V8.92697Z" fill="#28251B"/>
<path fill-rule="evenodd" clip-rule="evenodd" d="M10.6667 15.3334C11.6537 15.3334 12.5155 14.7971 12.9766 14H14C15.1046 14 16 13.1046 16 12C16 10.8955 15.1046 10 14 10H8.79014C8.67546 10 8.61812 10 8.57007 10.0071C8.27863 10.0498 8.04975 10.2787 8.00706 10.5701C8.00002 10.6181 8.00002 10.6755 8.00002 10.7902V12.6667C8.00002 14.1395 9.19393 15.3334 10.6667 15.3334ZM14 11.3334H13.4146V12.6667H14C14.3682 12.6667 14.6667 12.3682 14.6667 12C14.6667 11.6319 14.3682 11.3334 14 11.3334Z" fill="#28251B"/>
</svg>
