<svg width="165" height="165" viewBox="0 0 165 165" fill="none" xmlns="http://www.w3.org/2000/svg">
<path d="M103.125 13.75H41.25C37.6033 13.75 34.1059 15.1987 31.5273 17.7773C28.9487 20.3559 27.5 23.8533 27.5 27.5V137.5C27.5 141.147 28.9487 144.644 31.5273 147.223C34.1059 149.801 37.6033 151.25 41.25 151.25H123.75C127.397 151.25 130.894 149.801 133.473 147.223C136.051 144.644 137.5 141.147 137.5 137.5V48.125L103.125 13.75Z" stroke="#535D69" stroke-width="13.75" stroke-linecap="round" stroke-linejoin="round"/>
<path d="M96.25 13.75V41.25C96.25 44.8967 97.6987 48.3941 100.277 50.9727C102.856 53.5513 106.353 55 110 55H137.5M55 123.75V116.875M82.5 123.75V82.5M110 123.75V103.125" stroke="#535D69" stroke-width="13.75" stroke-linecap="round" stroke-linejoin="round"/>
</svg>
