<svg width="165" height="165" viewBox="0 0 165 165" fill="none" xmlns="http://www.w3.org/2000/svg">
<path d="M96.25 13.75V41.25C96.25 44.8967 97.6987 48.3941 100.277 50.9727C102.856 53.5513 106.353 55 110 55H137.5" stroke="#535D69" stroke-width="13.75" stroke-linecap="round" stroke-linejoin="round"/>
<path d="M110 151.25H123.75C127.397 151.25 130.894 149.801 133.473 147.223C136.051 144.644 137.5 141.147 137.5 137.5V48.125L103.125 13.75H41.2501C37.6034 13.75 34.106 15.1987 31.5274 17.7773C28.9487 20.3559 27.5001 23.8533 27.5001 27.5V51.5625M27.617 79.145C23.412 82.8767 20.0143 87.4285 17.6323 92.5209C15.2504 97.6134 13.9346 103.139 13.7657 108.758C13.5968 114.378 14.5784 119.973 16.6502 125.199C18.7219 130.425 21.8402 135.173 25.8134 139.15C29.7867 143.128 34.531 146.251 39.7551 148.328C44.9793 150.406 50.5729 151.393 56.1925 151.23C61.8122 151.067 67.3392 149.758 72.4342 147.381C77.5292 145.005 82.0846 141.612 85.8207 137.411" stroke="#535D69" stroke-width="13.75" stroke-linecap="round" stroke-linejoin="round"/>
<path d="M55 110V68.75C65.9402 68.75 76.4323 73.096 84.1682 80.8318C91.904 88.5677 96.25 99.0598 96.25 110H55Z" stroke="#535D69" stroke-width="13.75" stroke-linecap="round" stroke-linejoin="round"/>
</svg>
