<svg width="75" height="74" viewBox="0 0 75 74" fill="none" xmlns="http://www.w3.org/2000/svg">
<path d="M43.4386 4.50032C50.0869 5.20083 56.2968 8.14951 61.0416 12.8587C65.7864 17.5679 68.7818 23.7555 69.5323 30.3983M43.4386 17.5471C46.6466 18.1797 49.5903 19.7619 51.8877 22.0884C54.1851 24.415 55.7302 27.3783 56.3224 30.594M69.3692 53.165V62.9501C69.3729 63.8585 69.1868 64.7576 68.8229 65.59C68.459 66.4223 67.9253 67.1694 67.2559 67.7835C66.5865 68.3976 65.7963 68.8652 64.9357 69.1562C64.0752 69.4472 63.1634 69.5553 62.2587 69.4735C52.2221 68.3818 42.5813 64.9522 34.1102 59.4601C26.2293 54.4523 19.5477 47.7707 14.5399 39.8898C9.02866 31.3802 5.59831 21.6925 4.52647 11.6108C4.44497 10.7089 4.55216 9.79981 4.84123 8.94154C5.1303 8.08326 5.59491 7.29459 6.20549 6.62571C6.81607 5.95684 7.55923 5.42243 8.38765 5.05651C9.21608 4.69059 10.1116 4.50117 11.0173 4.50032H20.8024C22.3853 4.48474 23.9199 5.04528 25.1201 6.07746C26.3203 7.10964 27.1043 8.54303 27.3258 10.1105C27.7377 13.2421 28.5037 16.3169 29.609 19.2758C30.0478 20.4433 30.1428 21.7121 29.8827 22.9318C29.6225 24.1516 29.0182 25.2712 28.1412 26.1581L23.9989 30.3004C28.6421 38.4663 35.4033 45.2274 43.5691 49.8707L47.7115 45.7283C48.5983 44.8513 49.7179 44.247 50.9377 43.9868C52.1575 43.7267 53.4262 43.8217 54.5937 44.2605C57.5526 45.3658 60.6274 46.1318 63.7591 46.5437C65.3435 46.7672 66.7905 47.5653 67.8249 48.7861C68.8593 50.0069 69.4089 51.5654 69.3692 53.165Z" stroke="black" stroke-width="9" stroke-linecap="round" stroke-linejoin="round"/>
</svg>
