<svg width="676" height="676" viewBox="0 0 676 676" fill="none" xmlns="http://www.w3.org/2000/svg">
<path d="M619.669 338.003C619.669 301.014 612.384 264.387 598.229 230.213C584.074 196.04 563.326 164.989 537.171 138.834C511.016 112.679 479.965 91.9316 445.792 77.7765C411.618 63.6215 374.992 56.3359 338.003 56.3359V112.669C382.567 112.668 426.132 125.882 463.187 150.639C500.243 175.396 529.125 210.585 546.182 251.756C557.509 279.1 563.338 308.406 563.336 338.003H619.669ZM56.3359 281.669V140.836C56.3359 133.366 59.3035 126.201 64.5858 120.919C69.868 115.637 77.0323 112.669 84.5026 112.669H225.336C232.806 112.669 239.97 115.637 245.253 120.919C250.535 126.201 253.503 133.366 253.503 140.836V253.503C253.503 260.973 250.535 268.137 245.253 273.419C239.97 278.702 232.806 281.669 225.336 281.669H169.003C169.003 341.431 192.743 398.746 235.001 441.004C277.259 483.262 334.574 507.003 394.336 507.003V450.669C394.336 443.199 397.303 436.035 402.586 430.752C407.868 425.47 415.032 422.503 422.503 422.503H535.169C542.64 422.503 549.804 425.47 555.086 430.752C560.368 436.035 563.336 443.199 563.336 450.669V591.503C563.336 598.973 560.368 606.137 555.086 611.419C549.804 616.702 542.64 619.669 535.169 619.669H394.336C207.675 619.669 56.3359 468.33 56.3359 281.669Z" fill="#535D69"/>
<path d="M494.132 273.333C502.627 293.836 507.001 315.811 507.004 338.004H456.304C456.304 306.629 443.84 276.539 421.655 254.353C399.469 232.168 369.379 219.704 338.004 219.704V169.004C371.428 169.006 404.101 178.918 431.891 197.489C459.682 216.059 481.341 242.453 494.132 273.333Z" fill="#535D69"/>
</svg>
