<svg width="165" height="165" viewBox="0 0 165 165" fill="none" xmlns="http://www.w3.org/2000/svg">
<path d="M82.5 130.625C109.079 130.625 130.625 109.079 130.625 82.5C130.625 55.9213 109.079 34.375 82.5 34.375C55.9213 34.375 34.375 55.9213 34.375 82.5C34.375 109.079 55.9213 130.625 82.5 130.625Z" stroke="#535D69" stroke-width="13.75"/>
<path d="M82.5 96.25C90.0939 96.25 96.25 90.0939 96.25 82.5C96.25 74.9061 90.0939 68.75 82.5 68.75C74.9061 68.75 68.75 74.9061 68.75 82.5C68.75 90.0939 74.9061 96.25 82.5 96.25Z" fill="white" stroke="#535D69" stroke-width="13.75"/>
<path d="M82.5 34.375V20.625M130.625 82.5H144.375M82.5 144.375V130.625M20.625 82.5H34.375" stroke="#535D69" stroke-width="13.75" stroke-linecap="round"/>
</svg>
