<svg width="165" height="165" viewBox="0 0 165 165" fill="none" xmlns="http://www.w3.org/2000/svg">
<path d="M103.125 13.75H61.875C58.078 13.75 55 16.828 55 20.625V34.375C55 38.172 58.078 41.25 61.875 41.25H103.125C106.922 41.25 110 38.172 110 34.375V20.625C110 16.828 106.922 13.75 103.125 13.75Z" stroke="#535D69" stroke-width="13.75" stroke-linecap="round" stroke-linejoin="round"/>
<path d="M110 27.5H123.75C127.397 27.5 130.894 28.9487 133.473 31.5273C136.051 34.1059 137.5 37.6033 137.5 41.25V137.5C137.5 141.147 136.051 144.644 133.473 147.223C130.894 149.801 127.397 151.25 123.75 151.25H41.25C37.6033 151.25 34.1059 149.801 31.5273 147.223C28.9487 144.644 27.5 141.147 27.5 137.5V41.25C27.5 37.6033 28.9487 34.1059 31.5273 31.5273C34.1059 28.9487 37.6033 27.5 41.25 27.5H55M82.5 75.625H110M82.5 110H110M55 75.625H55.0688M55 110H55.0688" stroke="#535D69" stroke-width="13.75" stroke-linecap="round" stroke-linejoin="round"/>
</svg>
